<svg xmlns="http://www.w3.org/2000/svg" viewBox="0 0 760 1000"><defs><radialGradient id="g493"><stop offset="0" stop-color="#A9762B" stop-opacity="0.35"/><stop offset="1" stop-color="#A9762B" stop-opacity="0"/></radialGradient><radialGradient id="g494"><stop offset="0" stop-color="#E9E4D8" stop-opacity="0.06"/><stop offset="0.65" stop-color="#E9E4D8" stop-opacity="0.033"/><stop offset="1" stop-color="#E9E4D8" stop-opacity="0"/></radialGradient><radialGradient id="g495"><stop offset="0" stop-color="#E9E4D8" stop-opacity="0.05"/><stop offset="0.65" stop-color="#E9E4D8" stop-opacity="0.028"/><stop offset="1" stop-color="#E9E4D8" stop-opacity="0"/></radialGradient><radialGradient id="g496"><stop offset="0" stop-color="#26364F" stop-opacity="0.16"/><stop offset="0.65" stop-color="#26364F" stop-opacity="0.088"/><stop offset="1" stop-color="#26364F" stop-opacity="0"/></radialGradient></defs><ellipse cx="180" cy="150" rx="300" ry="210.0" fill="url(#g494)"/><ellipse cx="620" cy="320" rx="260" ry="208.0" fill="url(#g495)"/><rect x="0" y="0" width="760" height="1000" rx="0" fill="#26364F"/><rect x="0" y="620" width="760" height="380" rx="0" fill="#A9762B"/><path d="M0 620 h760" fill="none" stroke="#E9E4D8" stroke-width="2" stroke-linecap="round" stroke-linejoin="round" stroke-opacity="0.6"/><path d="M-80 620 Q180 440 440 620 Z" fill="#E9E4D8" fill-opacity="0.06"/><path d="M260 620 Q560 380 860 620 Z" fill="#E9E4D8" fill-opacity="0.08"/><path d="M120 780 Q380 700 640 780" fill="none" stroke="#26364F" stroke-width="2" stroke-linecap="round" stroke-linejoin="round" stroke-opacity="0.35"/><path d="M60 880 Q380 800 700 880" fill="none" stroke="#26364F" stroke-width="2" stroke-linecap="round" stroke-linejoin="round" stroke-opacity="0.25"/><circle cx="380" cy="588" r="130" fill="url(#g493)"/><path d="M380 720 Q346 660 360 560 Q368 520 380 512 Q392 520 400 560 Q414 660 380 720 Z" fill="#141E2D"/><path d="M348 700 Q330 664 342 590 Q354 540 380 532 Q406 540 418 590 Q430 664 412 700 L404 720 H356 Z" fill="#141E2D"/><circle cx="380" cy="496" r="24" fill="#141E2D"/><path d="M402 512 Q414 548 418 590" fill="none" stroke="#A9762B" stroke-width="1.4" stroke-linecap="round" stroke-linejoin="round" stroke-opacity="0.5"/><path d="M356 700 L352 720 M404 700 L408 720" fill="none" stroke="#141E2D" stroke-width="3" stroke-linecap="round" stroke-linejoin="round"/><circle cx="360.3" cy="319.7" r="0.78" fill="#E9E4D8" fill-opacity="0.05"/><circle cx="52.5" cy="824.6" r="0.45" fill="#E9E4D8" fill-opacity="0.05"/><circle cx="579.5" cy="861.5" r="1.04" fill="#E9E4D8" fill-opacity="0.05"/><circle cx="174.2" cy="863.0" r="0.55" fill="#E9E4D8" fill-opacity="0.05"/><circle cx="36.1" cy="427.7" r="0.79" fill="#E9E4D8" fill-opacity="0.05"/><circle cx="17.9" cy="455.6" r="0.70" fill="#E9E4D8" fill-opacity="0.05"/><circle cx="260.7" cy="163.1" r="0.64" fill="#E9E4D8" fill-opacity="0.05"/><circle cx="357.5" cy="715.8" r="0.91" fill="#E9E4D8" fill-opacity="0.05"/><circle cx="594.6" cy="958.9" r="0.98" fill="#E9E4D8" fill-opacity="0.05"/><circle cx="361.1" cy="552.0" r="1.04" fill="#E9E4D8" fill-opacity="0.05"/><circle cx="533.7" cy="750.0" r="1.06" fill="#E9E4D8" fill-opacity="0.05"/><circle cx="659.6" cy="514.1" r="0.99" fill="#E9E4D8" fill-opacity="0.05"/><circle cx="639.3" cy="196.4" r="1.00" fill="#E9E4D8" fill-opacity="0.05"/><circle cx="479.8" cy="66.9" r="0.66" fill="#E9E4D8" fill-opacity="0.05"/><circle cx="9.8" cy="464.2" r="0.70" fill="#E9E4D8" fill-opacity="0.05"/><circle cx="756.4" cy="501.0" r="0.76" fill="#E9E4D8" fill-opacity="0.05"/><circle cx="445.7" cy="75.8" r="1.13" fill="#E9E4D8" fill-opacity="0.05"/><circle cx="13.9" cy="695.7" r="0.97" fill="#E9E4D8" fill-opacity="0.05"/><circle cx="182.2" cy="276.1" r="1.08" fill="#E9E4D8" fill-opacity="0.05"/><circle cx="45.0" cy="11.4" r="0.82" fill="#E9E4D8" fill-opacity="0.05"/><circle cx="571.7" cy="861.9" r="0.68" fill="#E9E4D8" fill-opacity="0.05"/><circle cx="132.1" cy="606.4" r="0.44" fill="#E9E4D8" fill-opacity="0.05"/><circle cx="25.1" cy="367.2" r="0.89" fill="#E9E4D8" fill-opacity="0.05"/><circle cx="740.7" cy="301.9" r="0.45" fill="#E9E4D8" fill-opacity="0.05"/><circle cx="102.3" cy="627.2" r="0.44" fill="#E9E4D8" fill-opacity="0.05"/><circle cx="685.4" cy="133.6" r="1.15" fill="#E9E4D8" fill-opacity="0.05"/><circle cx="474.5" cy="694.1" r="0.74" fill="#E9E4D8" fill-opacity="0.05"/><circle cx="152.0" cy="62.9" r="0.99" fill="#E9E4D8" fill-opacity="0.05"/><circle cx="267.6" cy="200.2" r="1.08" fill="#E9E4D8" fill-opacity="0.05"/><circle cx="173.1" cy="749.0" r="0.48" fill="#E9E4D8" fill-opacity="0.05"/><circle cx="243.1" cy="393.4" r="0.58" fill="#E9E4D8" fill-opacity="0.05"/><circle cx="60.8" cy="77.1" r="0.64" fill="#E9E4D8" fill-opacity="0.05"/><circle cx="737.6" cy="997.1" r="0.55" fill="#E9E4D8" fill-opacity="0.05"/><circle cx="698.7" cy="950.0" r="0.60" fill="#E9E4D8" fill-opacity="0.05"/><circle cx="576.2" cy="890.9" r="1.01" fill="#E9E4D8" fill-opacity="0.05"/><circle cx="709.2" cy="432.1" r="1.19" fill="#E9E4D8" fill-opacity="0.05"/><circle cx="209.8" cy="129.7" r="1.01" fill="#E9E4D8" fill-opacity="0.05"/><circle cx="363.7" cy="301.0" r="0.76" fill="#E9E4D8" fill-opacity="0.05"/><circle cx="380.1" cy="635.2" r="0.92" fill="#E9E4D8" fill-opacity="0.05"/><circle cx="593.1" cy="975.1" r="1.15" fill="#E9E4D8" fill-opacity="0.05"/><circle cx="623.4" cy="604.3" r="0.86" fill="#E9E4D8" fill-opacity="0.05"/><circle cx="387.5" cy="34.8" r="0.51" fill="#E9E4D8" fill-opacity="0.05"/><circle cx="370.8" cy="851.9" r="0.73" fill="#E9E4D8" fill-opacity="0.05"/><circle cx="537.8" cy="410.5" r="0.97" fill="#E9E4D8" fill-opacity="0.05"/><circle cx="674.2" cy="897.1" r="0.76" fill="#E9E4D8" fill-opacity="0.05"/><circle cx="610.4" cy="406.2" r="1.05" fill="#E9E4D8" fill-opacity="0.05"/><circle cx="516.6" cy="265.6" r="0.53" fill="#E9E4D8" fill-opacity="0.05"/><circle cx="695.7" cy="717.3" r="0.86" fill="#E9E4D8" fill-opacity="0.05"/><circle cx="286.6" cy="221.2" r="0.71" fill="#E9E4D8" fill-opacity="0.05"/><circle cx="126.4" cy="733.4" r="1.14" fill="#E9E4D8" fill-opacity="0.05"/><circle cx="231.4" cy="627.1" r="0.86" fill="#E9E4D8" fill-opacity="0.05"/><circle cx="273.8" cy="437.5" r="1.08" fill="#E9E4D8" fill-opacity="0.05"/><circle cx="207.1" cy="651.9" r="0.97" fill="#E9E4D8" fill-opacity="0.05"/><circle cx="37.9" cy="60.4" r="0.79" fill="#E9E4D8" fill-opacity="0.05"/><circle cx="456.8" cy="98.2" r="0.78" fill="#E9E4D8" fill-opacity="0.05"/><circle cx="512.5" cy="386.2" r="0.87" fill="#E9E4D8" fill-opacity="0.05"/><circle cx="374.9" cy="655.5" r="0.46" fill="#E9E4D8" fill-opacity="0.05"/><circle cx="53.8" cy="763.0" r="0.45" fill="#E9E4D8" fill-opacity="0.05"/><circle cx="131.9" cy="493.2" r="0.67" fill="#E9E4D8" fill-opacity="0.05"/><circle cx="158.4" cy="70.0" r="1.06" fill="#E9E4D8" fill-opacity="0.05"/><circle cx="543.2" cy="994.5" r="0.97" fill="#E9E4D8" fill-opacity="0.05"/><circle cx="310.3" cy="237.3" r="0.59" fill="#E9E4D8" fill-opacity="0.05"/><circle cx="97.6" cy="641.5" r="0.95" fill="#E9E4D8" fill-opacity="0.05"/><circle cx="459.3" cy="701.1" r="0.69" fill="#E9E4D8" fill-opacity="0.05"/><circle cx="63.7" cy="252.6" r="1.12" fill="#E9E4D8" fill-opacity="0.05"/><circle cx="239.4" cy="435.5" r="1.03" fill="#E9E4D8" fill-opacity="0.05"/><circle cx="444.2" cy="391.5" r="0.80" fill="#E9E4D8" fill-opacity="0.05"/><circle cx="727.3" cy="502.4" r="0.64" fill="#E9E4D8" fill-opacity="0.05"/><circle cx="43.5" cy="385.6" r="0.60" fill="#E9E4D8" fill-opacity="0.05"/><circle cx="698.5" cy="54.6" r="1.06" fill="#E9E4D8" fill-opacity="0.05"/><circle cx="455.2" cy="690.0" r="0.58" fill="#E9E4D8" fill-opacity="0.05"/><circle cx="346.9" cy="481.4" r="1.10" fill="#E9E4D8" fill-opacity="0.05"/><circle cx="415.7" cy="600.9" r="0.68" fill="#E9E4D8" fill-opacity="0.05"/><circle cx="741.0" cy="635.9" r="1.02" fill="#E9E4D8" fill-opacity="0.05"/><circle cx="70.2" cy="12.7" r="0.87" fill="#E9E4D8" fill-opacity="0.05"/><circle cx="524.5" cy="410.4" r="0.48" fill="#E9E4D8" fill-opacity="0.05"/><circle cx="203.0" cy="620.9" r="1.08" fill="#E9E4D8" fill-opacity="0.05"/><circle cx="753.5" cy="767.6" r="0.69" fill="#E9E4D8" fill-opacity="0.05"/><circle cx="235.5" cy="5.9" r="0.49" fill="#E9E4D8" fill-opacity="0.05"/><circle cx="137.6" cy="548.3" r="0.61" fill="#E9E4D8" fill-opacity="0.05"/><circle cx="54.6" cy="378.9" r="0.58" fill="#E9E4D8" fill-opacity="0.05"/><circle cx="454.7" cy="916.5" r="1.02" fill="#E9E4D8" fill-opacity="0.05"/><circle cx="574.0" cy="551.3" r="0.90" fill="#E9E4D8" fill-opacity="0.05"/><circle cx="426.5" cy="680.1" r="0.82" fill="#E9E4D8" fill-opacity="0.05"/><circle cx="615.4" cy="562.4" r="0.50" fill="#E9E4D8" fill-opacity="0.05"/><circle cx="48.0" cy="73.0" r="0.51" fill="#E9E4D8" fill-opacity="0.05"/><circle cx="189.3" cy="561.0" r="1.08" fill="#E9E4D8" fill-opacity="0.05"/><circle cx="612.2" cy="108.6" r="0.81" fill="#E9E4D8" fill-opacity="0.05"/><circle cx="707.0" cy="624.1" r="1.06" fill="#E9E4D8" fill-opacity="0.05"/><circle cx="711.2" cy="486.5" r="1.06" fill="#E9E4D8" fill-opacity="0.05"/><circle cx="355.7" cy="644.0" r="0.86" fill="#E9E4D8" fill-opacity="0.05"/><circle cx="622.8" cy="12.1" r="0.81" fill="#E9E4D8" fill-opacity="0.05"/><circle cx="317.3" cy="471.8" r="0.71" fill="#E9E4D8" fill-opacity="0.05"/><circle cx="223.9" cy="879.7" r="0.58" fill="#E9E4D8" fill-opacity="0.05"/><circle cx="114.7" cy="76.9" r="0.48" fill="#E9E4D8" fill-opacity="0.05"/><circle cx="107.7" cy="105.0" r="0.94" fill="#E9E4D8" fill-opacity="0.05"/><circle cx="383.0" cy="721.7" r="0.48" fill="#E9E4D8" fill-opacity="0.05"/><circle cx="703.5" cy="895.6" r="0.72" fill="#E9E4D8" fill-opacity="0.05"/><circle cx="587.2" cy="678.7" r="0.49" fill="#E9E4D8" fill-opacity="0.05"/><circle cx="688.9" cy="695.5" r="1.12" fill="#E9E4D8" fill-opacity="0.05"/><circle cx="50.7" cy="116.3" r="0.79" fill="#E9E4D8" fill-opacity="0.05"/><circle cx="254.9" cy="893.9" r="1.10" fill="#E9E4D8" fill-opacity="0.05"/><circle cx="279.7" cy="399.1" r="0.95" fill="#E9E4D8" fill-opacity="0.05"/><circle cx="90.6" cy="517.3" r="0.72" fill="#E9E4D8" fill-opacity="0.05"/><circle cx="746.2" cy="72.9" r="0.48" fill="#E9E4D8" fill-opacity="0.05"/><circle cx="378.4" cy="94.8" r="0.42" fill="#E9E4D8" fill-opacity="0.05"/><circle cx="312.1" cy="177.2" r="0.45" fill="#E9E4D8" fill-opacity="0.05"/><circle cx="5.9" cy="997.4" r="1.06" fill="#E9E4D8" fill-opacity="0.05"/><circle cx="74.9" cy="690.7" r="0.95" fill="#E9E4D8" fill-opacity="0.05"/><circle cx="414.8" cy="788.4" r="1.13" fill="#E9E4D8" fill-opacity="0.05"/><circle cx="755.8" cy="608.8" r="0.75" fill="#E9E4D8" fill-opacity="0.05"/><circle cx="594.9" cy="589.0" r="1.10" fill="#E9E4D8" fill-opacity="0.05"/><circle cx="398.7" cy="972.9" r="0.85" fill="#E9E4D8" fill-opacity="0.05"/><circle cx="352.7" cy="657.1" r="1.01" fill="#E9E4D8" fill-opacity="0.05"/><circle cx="265.2" cy="857.6" r="0.96" fill="#E9E4D8" fill-opacity="0.05"/><circle cx="204.0" cy="459.2" r="1.19" fill="#E9E4D8" fill-opacity="0.05"/><circle cx="170.9" cy="996.4" r="1.13" fill="#E9E4D8" fill-opacity="0.05"/><circle cx="654.7" cy="777.1" r="0.53" fill="#E9E4D8" fill-opacity="0.05"/><circle cx="323.5" cy="342.6" r="1.00" fill="#E9E4D8" fill-opacity="0.05"/><circle cx="439.8" cy="465.9" r="0.63" fill="#E9E4D8" fill-opacity="0.05"/><circle cx="329.4" cy="840.2" r="0.83" fill="#E9E4D8" fill-opacity="0.05"/><circle cx="624.8" cy="297.9" r="1.02" fill="#E9E4D8" fill-opacity="0.05"/><circle cx="37.6" cy="838.5" r="0.86" fill="#E9E4D8" fill-opacity="0.05"/><circle cx="588.2" cy="797.6" r="0.69" fill="#E9E4D8" fill-opacity="0.05"/><circle cx="458.1" cy="953.8" r="0.76" fill="#E9E4D8" fill-opacity="0.05"/><circle cx="335.9" cy="335.1" r="0.71" fill="#E9E4D8" fill-opacity="0.05"/><circle cx="422.1" cy="382.7" r="0.73" fill="#E9E4D8" fill-opacity="0.05"/><circle cx="314.1" cy="178.8" r="0.53" fill="#E9E4D8" fill-opacity="0.05"/><circle cx="353.8" cy="767.0" r="1.05" fill="#E9E4D8" fill-opacity="0.05"/><circle cx="12.8" cy="663.2" r="1.07" fill="#E9E4D8" fill-opacity="0.05"/><circle cx="712.5" cy="683.4" r="0.93" fill="#E9E4D8" fill-opacity="0.05"/><circle cx="718.9" cy="134.0" r="0.93" fill="#E9E4D8" fill-opacity="0.05"/><circle cx="617.3" cy="962.4" r="0.94" fill="#E9E4D8" fill-opacity="0.05"/><circle cx="609.6" cy="799.6" r="0.88" fill="#E9E4D8" fill-opacity="0.05"/><circle cx="304.2" cy="929.9" r="0.41" fill="#E9E4D8" fill-opacity="0.05"/><circle cx="398.8" cy="813.8" r="0.88" fill="#E9E4D8" fill-opacity="0.05"/><circle cx="755.4" cy="525.2" r="1.19" fill="#E9E4D8" fill-opacity="0.05"/><circle cx="228.5" cy="903.1" r="0.52" fill="#E9E4D8" fill-opacity="0.05"/><circle cx="145.8" cy="733.3" r="0.45" fill="#E9E4D8" fill-opacity="0.05"/><circle cx="255.2" cy="975.8" r="1.17" fill="#E9E4D8" fill-opacity="0.05"/><circle cx="535.6" cy="546.8" r="0.98" fill="#E9E4D8" fill-opacity="0.05"/><circle cx="615.7" cy="420.3" r="0.56" fill="#E9E4D8" fill-opacity="0.05"/><circle cx="213.7" cy="71.6" r="0.92" fill="#E9E4D8" fill-opacity="0.05"/><circle cx="347.1" cy="321.4" r="0.54" fill="#E9E4D8" fill-opacity="0.05"/><circle cx="150.4" cy="381.9" r="0.47" fill="#E9E4D8" fill-opacity="0.05"/><circle cx="362.2" cy="906.3" r="0.54" fill="#E9E4D8" fill-opacity="0.05"/><circle cx="312.4" cy="101.4" r="1.08" fill="#E9E4D8" fill-opacity="0.05"/><circle cx="696.5" cy="602.8" r="1.04" fill="#E9E4D8" fill-opacity="0.05"/><circle cx="746.9" cy="639.2" r="1.01" fill="#E9E4D8" fill-opacity="0.05"/><circle cx="133.4" cy="822.9" r="1.07" fill="#E9E4D8" fill-opacity="0.05"/><circle cx="625.9" cy="547.2" r="1.18" fill="#E9E4D8" fill-opacity="0.05"/><circle cx="697.5" cy="129.1" r="0.67" fill="#E9E4D8" fill-opacity="0.05"/><circle cx="105.2" cy="149.9" r="0.98" fill="#E9E4D8" fill-opacity="0.05"/><circle cx="255.6" cy="675.8" r="1.03" fill="#E9E4D8" fill-opacity="0.05"/><circle cx="228.1" cy="514.1" r="0.92" fill="#E9E4D8" fill-opacity="0.05"/><circle cx="285.8" cy="747.8" r="1.12" fill="#E9E4D8" fill-opacity="0.05"/><circle cx="166.8" cy="191.8" r="0.89" fill="#E9E4D8" fill-opacity="0.05"/><circle cx="116.1" cy="995.0" r="0.94" fill="#E9E4D8" fill-opacity="0.05"/><circle cx="523.0" cy="561.1" r="0.86" fill="#E9E4D8" fill-opacity="0.05"/><circle cx="271.2" cy="2.9" r="1.14" fill="#E9E4D8" fill-opacity="0.05"/><circle cx="509.2" cy="344.7" r="0.64" fill="#E9E4D8" fill-opacity="0.05"/><circle cx="658.8" cy="221.6" r="1.13" fill="#E9E4D8" fill-opacity="0.05"/><circle cx="112.9" cy="689.5" r="0.88" fill="#E9E4D8" fill-opacity="0.05"/><circle cx="75.8" cy="978.1" r="1.04" fill="#E9E4D8" fill-opacity="0.05"/><circle cx="691.1" cy="495.3" r="0.63" fill="#E9E4D8" fill-opacity="0.05"/><circle cx="581.9" cy="649.8" r="0.67" fill="#E9E4D8" fill-opacity="0.05"/><circle cx="444.7" cy="304.0" r="1.11" fill="#E9E4D8" fill-opacity="0.05"/><circle cx="507.9" cy="139.9" r="0.90" fill="#E9E4D8" fill-opacity="0.05"/><circle cx="299.4" cy="189.2" r="1.00" fill="#E9E4D8" fill-opacity="0.05"/><circle cx="3.5" cy="766.4" r="0.77" fill="#E9E4D8" fill-opacity="0.05"/><circle cx="207.6" cy="877.8" r="0.49" fill="#E9E4D8" fill-opacity="0.05"/><circle cx="205.3" cy="214.2" r="0.72" fill="#E9E4D8" fill-opacity="0.05"/><circle cx="398.9" cy="792.8" r="1.01" fill="#E9E4D8" fill-opacity="0.05"/><circle cx="306.2" cy="194.7" r="0.86" fill="#E9E4D8" fill-opacity="0.05"/><circle cx="470.3" cy="449.1" r="1.12" fill="#E9E4D8" fill-opacity="0.05"/><circle cx="166.6" cy="91.8" r="1.20" fill="#E9E4D8" fill-opacity="0.05"/><circle cx="313.9" cy="269.7" r="0.91" fill="#E9E4D8" fill-opacity="0.05"/><circle cx="421.2" cy="816.4" r="1.13" fill="#E9E4D8" fill-opacity="0.05"/><circle cx="546.6" cy="251.8" r="0.48" fill="#E9E4D8" fill-opacity="0.05"/><circle cx="642.2" cy="193.3" r="0.61" fill="#E9E4D8" fill-opacity="0.05"/><circle cx="607.1" cy="384.1" r="1.15" fill="#E9E4D8" fill-opacity="0.05"/><circle cx="187.6" cy="864.1" r="0.69" fill="#E9E4D8" fill-opacity="0.05"/><circle cx="10.0" cy="489.4" r="0.46" fill="#E9E4D8" fill-opacity="0.05"/><circle cx="587.3" cy="932.3" r="1.17" fill="#E9E4D8" fill-opacity="0.05"/><circle cx="303.3" cy="178.3" r="0.57" fill="#E9E4D8" fill-opacity="0.05"/><circle cx="339.4" cy="790.7" r="0.87" fill="#E9E4D8" fill-opacity="0.05"/><circle cx="293.2" cy="202.4" r="0.71" fill="#E9E4D8" fill-opacity="0.05"/><circle cx="63.2" cy="190.5" r="0.82" fill="#E9E4D8" fill-opacity="0.05"/><circle cx="132.0" cy="963.9" r="1.04" fill="#E9E4D8" fill-opacity="0.05"/><circle cx="62.5" cy="479.0" r="0.63" fill="#E9E4D8" fill-opacity="0.05"/><circle cx="334.1" cy="90.4" r="0.71" fill="#E9E4D8" fill-opacity="0.05"/><circle cx="425.5" cy="763.9" r="0.67" fill="#E9E4D8" fill-opacity="0.05"/><circle cx="11.1" cy="128.8" r="0.77" fill="#E9E4D8" fill-opacity="0.05"/><circle cx="185.2" cy="327.5" r="0.85" fill="#E9E4D8" fill-opacity="0.05"/><circle cx="755.4" cy="211.7" r="1.11" fill="#E9E4D8" fill-opacity="0.05"/><circle cx="627.6" cy="777.0" r="1.14" fill="#E9E4D8" fill-opacity="0.05"/><circle cx="303.4" cy="58.4" r="0.93" fill="#E9E4D8" fill-opacity="0.05"/><circle cx="663.7" cy="791.3" r="1.19" fill="#E9E4D8" fill-opacity="0.05"/><circle cx="28.8" cy="346.8" r="0.91" fill="#E9E4D8" fill-opacity="0.05"/><circle cx="704.6" cy="426.3" r="0.47" fill="#E9E4D8" fill-opacity="0.05"/><circle cx="483.7" cy="294.4" r="0.76" fill="#E9E4D8" fill-opacity="0.05"/><circle cx="24.4" cy="208.3" r="0.51" fill="#E9E4D8" fill-opacity="0.05"/><circle cx="510.5" cy="646.7" r="0.99" fill="#E9E4D8" fill-opacity="0.05"/><circle cx="457.4" cy="328.5" r="1.09" fill="#E9E4D8" fill-opacity="0.05"/><circle cx="505.6" cy="26.0" r="0.49" fill="#E9E4D8" fill-opacity="0.05"/><circle cx="145.3" cy="917.5" r="0.93" fill="#E9E4D8" fill-opacity="0.05"/><circle cx="33.1" cy="44.4" r="0.76" fill="#E9E4D8" fill-opacity="0.05"/><circle cx="287.0" cy="641.2" r="0.69" fill="#E9E4D8" fill-opacity="0.05"/><circle cx="55.1" cy="18.5" r="0.62" fill="#E9E4D8" fill-opacity="0.05"/><circle cx="388.1" cy="155.3" r="0.74" fill="#E9E4D8" fill-opacity="0.05"/><circle cx="661.5" cy="417.3" r="1.19" fill="#E9E4D8" fill-opacity="0.05"/><circle cx="406.7" cy="842.0" r="1.09" fill="#E9E4D8" fill-opacity="0.05"/><circle cx="90.8" cy="933.6" r="1.15" fill="#E9E4D8" fill-opacity="0.05"/><circle cx="303.7" cy="588.4" r="0.46" fill="#E9E4D8" fill-opacity="0.05"/><circle cx="659.3" cy="695.0" r="1.06" fill="#E9E4D8" fill-opacity="0.05"/><circle cx="543.5" cy="798.1" r="0.87" fill="#E9E4D8" fill-opacity="0.05"/><circle cx="565.7" cy="556.8" r="1.12" fill="#E9E4D8" fill-opacity="0.05"/><circle cx="236.9" cy="909.9" r="1.20" fill="#E9E4D8" fill-opacity="0.05"/><circle cx="9.6" cy="388.3" r="0.58" fill="#E9E4D8" fill-opacity="0.05"/><circle cx="122.9" cy="601.4" r="0.61" fill="#E9E4D8" fill-opacity="0.05"/><circle cx="104.1" cy="531.9" r="0.76" fill="#E9E4D8" fill-opacity="0.05"/><circle cx="606.1" cy="576.6" r="0.94" fill="#E9E4D8" fill-opacity="0.05"/><circle cx="729.5" cy="122.1" r="0.87" fill="#E9E4D8" fill-opacity="0.05"/><circle cx="677.6" cy="446.9" r="0.92" fill="#E9E4D8" fill-opacity="0.05"/><circle cx="72.1" cy="687.1" r="1.15" fill="#E9E4D8" fill-opacity="0.05"/><circle cx="62.7" cy="799.0" r="0.57" fill="#E9E4D8" fill-opacity="0.05"/><circle cx="581.8" cy="878.6" r="0.56" fill="#E9E4D8" fill-opacity="0.05"/><circle cx="381.2" cy="262.1" r="1.02" fill="#E9E4D8" fill-opacity="0.05"/><circle cx="738.7" cy="943.8" r="1.14" fill="#E9E4D8" fill-opacity="0.05"/><circle cx="588.5" cy="817.0" r="0.66" fill="#E9E4D8" fill-opacity="0.05"/><circle cx="409.5" cy="319.5" r="0.91" fill="#E9E4D8" fill-opacity="0.05"/><circle cx="474.8" cy="390.9" r="0.72" fill="#E9E4D8" fill-opacity="0.05"/><circle cx="174.9" cy="56.8" r="0.57" fill="#E9E4D8" fill-opacity="0.05"/><circle cx="458.6" cy="232.3" r="1.14" fill="#E9E4D8" fill-opacity="0.05"/><circle cx="513.2" cy="787.8" r="0.68" fill="#E9E4D8" fill-opacity="0.05"/><circle cx="728.0" cy="858.8" r="0.52" fill="#E9E4D8" fill-opacity="0.05"/><circle cx="227.4" cy="298.1" r="1.07" fill="#E9E4D8" fill-opacity="0.05"/><circle cx="207.2" cy="322.8" r="0.97" fill="#E9E4D8" fill-opacity="0.05"/><circle cx="580.2" cy="103.5" r="0.99" fill="#E9E4D8" fill-opacity="0.05"/><circle cx="211.4" cy="948.7" r="0.63" fill="#E9E4D8" fill-opacity="0.05"/><circle cx="441.2" cy="716.1" r="0.84" fill="#E9E4D8" fill-opacity="0.05"/><circle cx="113.0" cy="80.9" r="0.85" fill="#E9E4D8" fill-opacity="0.05"/><circle cx="419.1" cy="166.8" r="1.07" fill="#E9E4D8" fill-opacity="0.05"/><circle cx="537.5" cy="191.0" r="0.92" fill="#E9E4D8" fill-opacity="0.05"/><circle cx="382.2" cy="794.9" r="0.44" fill="#E9E4D8" fill-opacity="0.05"/><circle cx="159.3" cy="459.6" r="1.13" fill="#E9E4D8" fill-opacity="0.05"/><circle cx="353.1" cy="60.5" r="0.61" fill="#E9E4D8" fill-opacity="0.05"/><circle cx="595.3" cy="963.5" r="0.99" fill="#E9E4D8" fill-opacity="0.05"/><circle cx="735.0" cy="267.5" r="0.50" fill="#E9E4D8" fill-opacity="0.05"/><circle cx="88.7" cy="416.1" r="0.93" fill="#E9E4D8" fill-opacity="0.05"/><circle cx="429.3" cy="219.0" r="0.79" fill="#E9E4D8" fill-opacity="0.05"/><circle cx="459.5" cy="934.0" r="0.82" fill="#E9E4D8" fill-opacity="0.05"/><circle cx="41.5" cy="559.4" r="0.53" fill="#E9E4D8" fill-opacity="0.05"/><circle cx="621.3" cy="831.4" r="0.62" fill="#E9E4D8" fill-opacity="0.05"/><circle cx="141.1" cy="193.3" r="0.72" fill="#E9E4D8" fill-opacity="0.05"/><circle cx="628.5" cy="681.2" r="0.80" fill="#E9E4D8" fill-opacity="0.05"/><circle cx="4.4" cy="492.7" r="0.91" fill="#E9E4D8" fill-opacity="0.05"/><circle cx="421.5" cy="489.8" r="0.81" fill="#E9E4D8" fill-opacity="0.05"/><circle cx="290.3" cy="848.3" r="0.47" fill="#E9E4D8" fill-opacity="0.05"/><circle cx="666.1" cy="303.4" r="1.02" fill="#E9E4D8" fill-opacity="0.05"/><circle cx="551.0" cy="389.8" r="0.45" fill="#E9E4D8" fill-opacity="0.05"/><circle cx="503.2" cy="253.0" r="0.63" fill="#E9E4D8" fill-opacity="0.05"/><circle cx="423.9" cy="274.6" r="0.65" fill="#E9E4D8" fill-opacity="0.05"/><circle cx="190.7" cy="874.7" r="0.93" fill="#E9E4D8" fill-opacity="0.05"/><circle cx="248.7" cy="382.0" r="0.87" fill="#E9E4D8" fill-opacity="0.05"/><circle cx="18.3" cy="447.7" r="0.72" fill="#E9E4D8" fill-opacity="0.05"/><circle cx="595.1" cy="351.4" r="0.48" fill="#E9E4D8" fill-opacity="0.05"/><circle cx="551.1" cy="253.3" r="0.60" fill="#E9E4D8" fill-opacity="0.05"/><circle cx="254.0" cy="452.9" r="0.71" fill="#E9E4D8" fill-opacity="0.05"/><circle cx="9.8" cy="225.2" r="0.98" fill="#E9E4D8" fill-opacity="0.05"/><circle cx="35.1" cy="383.3" r="0.97" fill="#E9E4D8" fill-opacity="0.05"/><circle cx="303.8" cy="250.3" r="1.13" fill="#E9E4D8" fill-opacity="0.05"/><circle cx="260.3" cy="216.6" r="1.19" fill="#E9E4D8" fill-opacity="0.05"/><circle cx="203.6" cy="328.9" r="1.05" fill="#E9E4D8" fill-opacity="0.05"/><circle cx="750.4" cy="724.0" r="0.54" fill="#E9E4D8" fill-opacity="0.05"/><circle cx="68.9" cy="375.6" r="0.44" fill="#E9E4D8" fill-opacity="0.05"/><circle cx="410.4" cy="817.4" r="0.46" fill="#E9E4D8" fill-opacity="0.05"/><circle cx="259.5" cy="542.7" r="0.96" fill="#E9E4D8" fill-opacity="0.05"/><circle cx="96.0" cy="326.5" r="0.77" fill="#E9E4D8" fill-opacity="0.05"/><circle cx="693.6" cy="987.9" r="0.97" fill="#E9E4D8" fill-opacity="0.05"/><circle cx="31.3" cy="221.8" r="0.64" fill="#E9E4D8" fill-opacity="0.05"/><circle cx="153.6" cy="593.5" r="0.91" fill="#E9E4D8" fill-opacity="0.05"/><circle cx="255.0" cy="421.3" r="0.43" fill="#E9E4D8" fill-opacity="0.05"/><circle cx="322.5" cy="401.1" r="0.86" fill="#E9E4D8" fill-opacity="0.05"/><circle cx="74.5" cy="681.2" r="0.92" fill="#E9E4D8" fill-opacity="0.05"/><circle cx="142.9" cy="24.5" r="0.82" fill="#E9E4D8" fill-opacity="0.05"/><circle cx="462.2" cy="19.1" r="0.79" fill="#E9E4D8" fill-opacity="0.05"/><circle cx="752.3" cy="594.0" r="0.59" fill="#E9E4D8" fill-opacity="0.05"/><circle cx="644.4" cy="250.3" r="0.84" fill="#E9E4D8" fill-opacity="0.05"/><circle cx="21.1" cy="602.8" r="0.40" fill="#E9E4D8" fill-opacity="0.05"/><circle cx="25.8" cy="514.3" r="0.47" fill="#E9E4D8" fill-opacity="0.05"/><circle cx="499.9" cy="883.5" r="1.11" fill="#E9E4D8" fill-opacity="0.05"/><circle cx="626.4" cy="421.7" r="0.59" fill="#E9E4D8" fill-opacity="0.05"/><circle cx="684.2" cy="49.5" r="1.17" fill="#E9E4D8" fill-opacity="0.05"/><circle cx="522.0" cy="233.9" r="0.74" fill="#E9E4D8" fill-opacity="0.05"/><circle cx="493.8" cy="146.2" r="1.11" fill="#E9E4D8" fill-opacity="0.05"/><circle cx="457.4" cy="486.1" r="0.79" fill="#E9E4D8" fill-opacity="0.05"/><circle cx="483.4" cy="143.5" r="0.61" fill="#E9E4D8" fill-opacity="0.05"/><circle cx="605.9" cy="919.4" r="1.04" fill="#E9E4D8" fill-opacity="0.05"/><circle cx="533.2" cy="675.9" r="0.91" fill="#E9E4D8" fill-opacity="0.05"/><circle cx="506.8" cy="781.8" r="0.78" fill="#E9E4D8" fill-opacity="0.05"/><circle cx="428.0" cy="459.1" r="0.57" fill="#E9E4D8" fill-opacity="0.05"/><circle cx="283.0" cy="814.0" r="0.71" fill="#E9E4D8" fill-opacity="0.05"/><circle cx="673.6" cy="396.6" r="0.50" fill="#E9E4D8" fill-opacity="0.05"/><circle cx="736.0" cy="781.3" r="1.12" fill="#E9E4D8" fill-opacity="0.05"/><circle cx="127.1" cy="303.2" r="0.62" fill="#E9E4D8" fill-opacity="0.05"/><circle cx="173.9" cy="677.8" r="1.18" fill="#E9E4D8" fill-opacity="0.05"/><circle cx="423.1" cy="525.2" r="0.59" fill="#E9E4D8" fill-opacity="0.05"/><circle cx="567.5" cy="497.0" r="0.65" fill="#E9E4D8" fill-opacity="0.05"/><circle cx="245.9" cy="597.3" r="0.66" fill="#E9E4D8" fill-opacity="0.05"/><circle cx="276.0" cy="626.0" r="0.85" fill="#E9E4D8" fill-opacity="0.05"/><circle cx="92.3" cy="62.0" r="0.52" fill="#E9E4D8" fill-opacity="0.05"/><circle cx="444.0" cy="492.4" r="0.40" fill="#E9E4D8" fill-opacity="0.05"/><circle cx="410.3" cy="213.3" r="0.61" fill="#E9E4D8" fill-opacity="0.05"/><circle cx="298.6" cy="592.2" r="0.85" fill="#E9E4D8" fill-opacity="0.05"/><circle cx="454.8" cy="61.3" r="0.64" fill="#E9E4D8" fill-opacity="0.05"/><circle cx="595.2" cy="290.6" r="0.60" fill="#E9E4D8" fill-opacity="0.05"/><circle cx="638.2" cy="656.2" r="1.10" fill="#E9E4D8" fill-opacity="0.05"/><circle cx="313.6" cy="251.8" r="0.76" fill="#E9E4D8" fill-opacity="0.05"/><circle cx="395.0" cy="39.9" r="1.03" fill="#E9E4D8" fill-opacity="0.05"/><circle cx="17.8" cy="639.4" r="1.00" fill="#E9E4D8" fill-opacity="0.05"/><circle cx="53.3" cy="603.3" r="0.81" fill="#E9E4D8" fill-opacity="0.05"/><circle cx="503.9" cy="709.1" r="0.69" fill="#E9E4D8" fill-opacity="0.05"/><circle cx="424.2" cy="102.8" r="0.85" fill="#E9E4D8" fill-opacity="0.05"/><circle cx="193.2" cy="581.0" r="0.69" fill="#E9E4D8" fill-opacity="0.05"/><circle cx="228.4" cy="640.3" r="1.10" fill="#E9E4D8" fill-opacity="0.05"/><circle cx="505.4" cy="821.5" r="1.11" fill="#E9E4D8" fill-opacity="0.05"/><circle cx="120.1" cy="270.1" r="0.85" fill="#E9E4D8" fill-opacity="0.05"/><circle cx="65.1" cy="981.7" r="0.52" fill="#E9E4D8" fill-opacity="0.05"/><circle cx="278.5" cy="297.2" r="0.41" fill="#E9E4D8" fill-opacity="0.05"/><circle cx="145.0" cy="117.9" r="0.97" fill="#E9E4D8" fill-opacity="0.05"/><circle cx="77.0" cy="857.4" r="1.03" fill="#E9E4D8" fill-opacity="0.05"/><circle cx="153.8" cy="61.1" r="1.02" fill="#E9E4D8" fill-opacity="0.05"/><circle cx="277.7" cy="770.1" r="1.08" fill="#E9E4D8" fill-opacity="0.05"/><circle cx="407.8" cy="626.2" r="0.63" fill="#E9E4D8" fill-opacity="0.05"/><circle cx="202.7" cy="810.7" r="1.02" fill="#E9E4D8" fill-opacity="0.05"/><circle cx="141.4" cy="532.6" r="0.61" fill="#E9E4D8" fill-opacity="0.05"/><circle cx="270.5" cy="573.0" r="0.54" fill="#E9E4D8" fill-opacity="0.05"/><circle cx="237.6" cy="270.2" r="0.78" fill="#E9E4D8" fill-opacity="0.05"/><circle cx="331.5" cy="548.2" r="0.56" fill="#E9E4D8" fill-opacity="0.05"/><circle cx="536.1" cy="143.5" r="0.68" fill="#E9E4D8" fill-opacity="0.05"/><circle cx="129.0" cy="238.1" r="0.75" fill="#E9E4D8" fill-opacity="0.05"/><circle cx="580.0" cy="516.3" r="0.73" fill="#E9E4D8" fill-opacity="0.05"/><circle cx="667.4" cy="749.0" r="0.66" fill="#E9E4D8" fill-opacity="0.05"/><circle cx="384.7" cy="679.6" r="1.09" fill="#E9E4D8" fill-opacity="0.05"/><circle cx="129.3" cy="660.4" r="0.79" fill="#E9E4D8" fill-opacity="0.05"/><circle cx="610.5" cy="133.2" r="0.50" fill="#E9E4D8" fill-opacity="0.05"/><circle cx="321.0" cy="758.9" r="0.45" fill="#E9E4D8" fill-opacity="0.05"/><circle cx="420.7" cy="904.8" r="1.01" fill="#E9E4D8" fill-opacity="0.05"/><circle cx="486.8" cy="857.9" r="0.89" fill="#E9E4D8" fill-opacity="0.05"/><circle cx="758.9" cy="102.3" r="0.80" fill="#E9E4D8" fill-opacity="0.05"/><circle cx="636.3" cy="512.6" r="0.90" fill="#E9E4D8" fill-opacity="0.05"/><circle cx="538.6" cy="344.2" r="0.97" fill="#E9E4D8" fill-opacity="0.05"/><circle cx="541.5" cy="893.9" r="0.90" fill="#E9E4D8" fill-opacity="0.05"/><circle cx="91.0" cy="519.0" r="0.67" fill="#E9E4D8" fill-opacity="0.05"/><circle cx="74.1" cy="45.9" r="1.11" fill="#E9E4D8" fill-opacity="0.05"/><circle cx="634.2" cy="104.6" r="0.93" fill="#E9E4D8" fill-opacity="0.05"/><circle cx="195.1" cy="249.0" r="0.49" fill="#E9E4D8" fill-opacity="0.05"/><circle cx="225.3" cy="751.1" r="0.76" fill="#E9E4D8" fill-opacity="0.05"/><circle cx="547.9" cy="967.7" r="0.46" fill="#E9E4D8" fill-opacity="0.05"/><circle cx="695.3" cy="226.5" r="0.51" fill="#E9E4D8" fill-opacity="0.05"/><circle cx="597.6" cy="7.3" r="0.49" fill="#E9E4D8" fill-opacity="0.05"/><circle cx="243.5" cy="4.0" r="1.11" fill="#E9E4D8" fill-opacity="0.05"/><circle cx="115.4" cy="201.2" r="0.79" fill="#E9E4D8" fill-opacity="0.05"/><circle cx="129.7" cy="478.5" r="0.46" fill="#E9E4D8" fill-opacity="0.05"/><circle cx="260.5" cy="170.8" r="0.68" fill="#E9E4D8" fill-opacity="0.05"/><circle cx="629.4" cy="234.0" r="0.98" fill="#E9E4D8" fill-opacity="0.05"/><circle cx="445.0" cy="537.6" r="1.03" fill="#E9E4D8" fill-opacity="0.05"/><circle cx="231.0" cy="981.2" r="1.14" fill="#E9E4D8" fill-opacity="0.05"/><circle cx="487.3" cy="711.6" r="0.81" fill="#E9E4D8" fill-opacity="0.05"/><circle cx="71.0" cy="67.1" r="1.08" fill="#E9E4D8" fill-opacity="0.05"/><circle cx="608.2" cy="241.8" r="0.56" fill="#E9E4D8" fill-opacity="0.05"/><circle cx="694.2" cy="536.1" r="1.19" fill="#E9E4D8" fill-opacity="0.05"/><circle cx="597.6" cy="285.0" r="0.70" fill="#E9E4D8" fill-opacity="0.05"/><circle cx="650.2" cy="145.7" r="0.53" fill="#E9E4D8" fill-opacity="0.05"/><circle cx="583.4" cy="878.4" r="0.58" fill="#E9E4D8" fill-opacity="0.05"/><circle cx="53.9" cy="869.6" r="0.88" fill="#E9E4D8" fill-opacity="0.05"/><circle cx="26.4" cy="260.4" r="1.09" fill="#E9E4D8" fill-opacity="0.05"/><circle cx="573.9" cy="0.3" r="0.97" fill="#E9E4D8" fill-opacity="0.05"/><circle cx="183.4" cy="907.5" r="0.58" fill="#E9E4D8" fill-opacity="0.05"/><circle cx="663.6" cy="31.5" r="0.54" fill="#E9E4D8" fill-opacity="0.05"/><circle cx="337.2" cy="413.7" r="0.54" fill="#E9E4D8" fill-opacity="0.05"/><circle cx="535.1" cy="68.3" r="1.15" fill="#E9E4D8" fill-opacity="0.05"/><circle cx="422.8" cy="606.9" r="0.41" fill="#E9E4D8" fill-opacity="0.05"/><circle cx="653.7" cy="37.3" r="0.68" fill="#E9E4D8" fill-opacity="0.05"/><circle cx="246.2" cy="125.3" r="1.17" fill="#E9E4D8" fill-opacity="0.05"/><circle cx="688.7" cy="222.3" r="0.72" fill="#E9E4D8" fill-opacity="0.05"/><circle cx="374.6" cy="359.0" r="0.41" fill="#E9E4D8" fill-opacity="0.05"/><circle cx="32.6" cy="369.9" r="0.41" fill="#E9E4D8" fill-opacity="0.05"/><circle cx="463.5" cy="75.2" r="1.09" fill="#E9E4D8" fill-opacity="0.05"/><circle cx="378.9" cy="932.9" r="0.66" fill="#E9E4D8" fill-opacity="0.05"/><circle cx="584.4" cy="817.0" r="0.45" fill="#E9E4D8" fill-opacity="0.05"/><circle cx="226.2" cy="689.9" r="0.59" fill="#E9E4D8" fill-opacity="0.05"/><circle cx="529.9" cy="761.9" r="0.42" fill="#E9E4D8" fill-opacity="0.05"/><circle cx="698.7" cy="430.0" r="0.99" fill="#E9E4D8" fill-opacity="0.05"/><circle cx="605.3" cy="644.1" r="0.89" fill="#E9E4D8" fill-opacity="0.05"/><circle cx="45.3" cy="313.1" r="0.74" fill="#E9E4D8" fill-opacity="0.05"/><circle cx="102.9" cy="39.4" r="0.52" fill="#E9E4D8" fill-opacity="0.05"/><circle cx="197.1" cy="46.9" r="1.15" fill="#E9E4D8" fill-opacity="0.05"/><circle cx="679.8" cy="356.8" r="0.53" fill="#E9E4D8" fill-opacity="0.05"/><circle cx="467.1" cy="696.2" r="1.10" fill="#E9E4D8" fill-opacity="0.05"/><circle cx="271.9" cy="347.9" r="1.16" fill="#E9E4D8" fill-opacity="0.05"/><circle cx="111.0" cy="753.2" r="0.68" fill="#E9E4D8" fill-opacity="0.05"/><circle cx="153.4" cy="553.4" r="0.94" fill="#E9E4D8" fill-opacity="0.05"/><circle cx="565.8" cy="618.2" r="1.06" fill="#E9E4D8" fill-opacity="0.05"/><circle cx="382.8" cy="387.9" r="1.12" fill="#E9E4D8" fill-opacity="0.05"/><circle cx="717.3" cy="513.1" r="0.67" fill="#E9E4D8" fill-opacity="0.05"/><circle cx="401.7" cy="111.1" r="1.04" fill="#E9E4D8" fill-opacity="0.05"/><circle cx="122.4" cy="879.0" r="0.76" fill="#E9E4D8" fill-opacity="0.05"/><circle cx="712.7" cy="602.9" r="1.05" fill="#E9E4D8" fill-opacity="0.05"/><circle cx="387.7" cy="148.4" r="1.07" fill="#E9E4D8" fill-opacity="0.05"/><circle cx="402.7" cy="638.2" r="0.42" fill="#E9E4D8" fill-opacity="0.05"/><circle cx="675.5" cy="37.9" r="0.48" fill="#E9E4D8" fill-opacity="0.05"/><circle cx="738.2" cy="215.8" r="1.08" fill="#E9E4D8" fill-opacity="0.05"/><circle cx="583.2" cy="661.6" r="0.43" fill="#E9E4D8" fill-opacity="0.05"/><circle cx="122.0" cy="807.1" r="1.02" fill="#E9E4D8" fill-opacity="0.05"/><circle cx="2.2" cy="163.1" r="0.64" fill="#E9E4D8" fill-opacity="0.05"/><circle cx="676.8" cy="415.0" r="0.84" fill="#E9E4D8" fill-opacity="0.05"/><circle cx="49.8" cy="840.6" r="1.03" fill="#E9E4D8" fill-opacity="0.05"/><circle cx="254.8" cy="91.4" r="0.50" fill="#E9E4D8" fill-opacity="0.05"/><ellipse cx="380" cy="860" rx="360" ry="180.0" fill="url(#g496)"/><rect x="0" y="0" width="760" height="1000" fill="none" stroke="#101826" stroke-width="121.60000000000001" stroke-opacity="0.055"/><rect x="0" y="0" width="760" height="1000" fill="none" stroke="#101826" stroke-width="53.2" stroke-opacity="0.07"/><rect x="0" y="0" width="760" height="1000" fill="none" stroke="#101826" stroke-width="19.0" stroke-opacity="0.10"/></svg>