<svg xmlns="http://www.w3.org/2000/svg" viewBox="0 0 760 496"><defs><radialGradient id="g36"><stop offset="0" stop-color="#A9762B" stop-opacity="0.3"/><stop offset="1" stop-color="#A9762B" stop-opacity="0"/></radialGradient></defs><rect x="0" y="0" width="760" height="496" rx="0" fill="#26364F" fill-opacity="0.1"/><circle cx="380" cy="130" r="180" fill="url(#g36)"/><path d="M40 330 H720" fill="none" stroke="#26364F" stroke-width="4" stroke-linecap="round" stroke-linejoin="round"/><path d="M90 330 V470 M670 330 V470" fill="none" stroke="#26364F" stroke-width="3" stroke-linecap="round" stroke-linejoin="round"/><rect x="150" y="260" width="110" height="70" rx="0" fill="#E9E4D8" fill-opacity="0.85"/><rect x="150" y="260" width="110" height="70" rx="0" fill="none" stroke="#26364F" stroke-width="1.6"/><path d="M162 280 h60 M162 296 h76 M162 312 h52" fill="none" stroke="#26364F" stroke-width="1.2" stroke-linecap="round" stroke-linejoin="round" stroke-opacity="0.7"/><rect x="420" y="276" width="26" height="26" rx="5" fill="none" stroke="#26364F" stroke-width="2"/><rect x="458" y="288" width="26" height="26" rx="5" fill="none" stroke="#26364F" stroke-width="2"/><circle cx="500" cy="300" r="17" fill="none" stroke="#26364F" stroke-width="1.8"/><ellipse cx="500" cy="304" rx="11" ry="4" fill="#26364F" fill-opacity="0.25"/><path d="M560 330 q4 -40 30 -44" fill="none" stroke="#26364F" stroke-width="2" stroke-linecap="round" stroke-linejoin="round"/><rect x="310" y="380" width="140" height="22" rx="0" fill="none" stroke="#26364F" stroke-width="3"/><path d="M320 402 V480 M440 402 V480 M310 380 Q380 366 450 380" fill="none" stroke="#26364F" stroke-width="3" stroke-linecap="round" stroke-linejoin="round"/></svg>