<svg xmlns="http://www.w3.org/2000/svg" viewBox="0 0 760 496"><rect x="0" y="0" width="760" height="496" rx="0" fill="#26364F" fill-opacity="0.07"/><rect x="60" y="50" width="640" height="400" rx="0" fill="#26364F" fill-opacity="0.08"/><rect x="60" y="50" width="640" height="400" rx="0" fill="none" stroke="#26364F" stroke-width="1.8"/><rect x="140" y="110" width="220" height="290" rx="0" fill="#E9E4D8" fill-opacity="0.97"/><rect x="140" y="110" width="220" height="290" rx="0" fill="none" stroke="#26364F" stroke-width="2"/><path d="M160 150 h120" fill="none" stroke="#26364F" stroke-width="1.6" stroke-linecap="round" stroke-linejoin="round"/><path d="M160 180 h90" fill="none" stroke="#26364F" stroke-width="1" stroke-linecap="round" stroke-linejoin="round"/><path d="M160 216 h180" fill="none" stroke="#26364F" stroke-width="0.8" stroke-linecap="round" stroke-linejoin="round" stroke-opacity="0.35"/><path d="M160 242 h180" fill="none" stroke="#26364F" stroke-width="0.8" stroke-linecap="round" stroke-linejoin="round" stroke-opacity="0.35"/><path d="M160 268 h180" fill="none" stroke="#26364F" stroke-width="0.8" stroke-linecap="round" stroke-linejoin="round" stroke-opacity="0.35"/><path d="M160 294 h180" fill="none" stroke="#26364F" stroke-width="0.8" stroke-linecap="round" stroke-linejoin="round" stroke-opacity="0.35"/><path d="M160 320 h180" fill="none" stroke="#26364F" stroke-width="0.8" stroke-linecap="round" stroke-linejoin="round" stroke-opacity="0.35"/><path d="M160 346 h180" fill="none" stroke="#26364F" stroke-width="0.8" stroke-linecap="round" stroke-linejoin="round" stroke-opacity="0.35"/><path d="M470 160 q10 -22 34 -16 q16 4 12 22 l-8 28 q-22 6 -34 -8 Z" fill="none" stroke="#26364F" stroke-width="2" stroke-linecap="round" stroke-linejoin="round"/><path d="M480 166 l6 18 m6 -21 l6 21 m5 -23 l5 22" fill="none" stroke="#26364F" stroke-width="1.3" stroke-linecap="round" stroke-linejoin="round"/><rect x="500" y="260" width="90" height="56" rx="0" fill="#E9E4D8" fill-opacity="0.9"/><rect x="500" y="260" width="90" height="56" rx="0" fill="none" stroke="#26364F" stroke-width="1.6"/><path d="M500 260 l45 30 45 -30" fill="none" stroke="#26364F" stroke-width="1.2" stroke-linecap="round" stroke-linejoin="round"/><circle cx="490" cy="380" r="14" fill="none" stroke="#A9762B" stroke-width="2.6"/><path d="M502 386 l50 22 m-16 -8 l-6 12 m18 -4 l-6 12" fill="none" stroke="#A9762B" stroke-width="2.6" stroke-linecap="round" stroke-linejoin="round"/></svg>