<svg xmlns="http://www.w3.org/2000/svg" viewBox="0 0 760 496"><defs><linearGradient id="g376" x1="0" y1="0" x2="0" y2="1"><stop offset="0" stop-color="#26364F" stop-opacity="0.5"/><stop offset="1" stop-color="#26364F" stop-opacity="0.08"/></linearGradient><radialGradient id="g377"><stop offset="0" stop-color="#A9762B" stop-opacity="0.8"/><stop offset="1" stop-color="#A9762B" stop-opacity="0"/></radialGradient><radialGradient id="g378"><stop offset="0" stop-color="#26364F" stop-opacity="0.14"/><stop offset="0.65" stop-color="#26364F" stop-opacity="0.077"/><stop offset="1" stop-color="#26364F" stop-opacity="0"/></radialGradient><radialGradient id="g379"><stop offset="0" stop-color="#26364F" stop-opacity="0.11"/><stop offset="0.65" stop-color="#26364F" stop-opacity="0.061"/><stop offset="1" stop-color="#26364F" stop-opacity="0"/></radialGradient><radialGradient id="g380"><stop offset="0" stop-color="#26364F" stop-opacity="0.16"/><stop offset="0.65" stop-color="#26364F" stop-opacity="0.088"/><stop offset="1" stop-color="#26364F" stop-opacity="0"/></radialGradient><radialGradient id="g381"><stop offset="0" stop-color="#26364F" stop-opacity="0.06"/><stop offset="0.65" stop-color="#26364F" stop-opacity="0.033"/><stop offset="1" stop-color="#26364F" stop-opacity="0"/></radialGradient></defs><rect width="760" height="496" fill="#26364F" fill-opacity="0.060"/><ellipse cx="112.94327316525158" cy="132.24564114100767" rx="319.2" ry="223.4" fill="url(#g378)"/><ellipse cx="626.1529375089333" cy="132.55112726607126" rx="273.59999999999997" ry="246.2" fill="url(#g379)"/><ellipse cx="380.0" cy="505.92" rx="418.00000000000006" ry="188.1" fill="url(#g380)"/><ellipse cx="456.64216319588013" cy="331.39952206090675" rx="380.0" ry="304.0" fill="url(#g381)"/><path d="M784.0 152.6 Q784.0 152.6 782.9 189.8 Q781.8 227.0 722.7 249.0 Q663.7 271.1 596.2 268.9 Q528.7 266.6 483.9 246.0 Q439.2 225.4 382.6 206.9 Q326.1 188.4 366.6 158.8 Q407.0 129.1 410.7 97.0 Q414.4 64.8 476.3 69.1 Q538.3 73.4 590.7 65.5 Q643.2 57.6 727.7 62.8 Q812.2 68.0 798.1 110.3 Z" fill="#26364F" fill-opacity="0.035"/><rect width="760" height="496" fill="url(#g376)"/><path d="M-140 440 Q160 320 460 440 Z" fill="#26364F" fill-opacity="0.25"/><path d="M320 440 Q620 280 920 440 Z" fill="#26364F" fill-opacity="0.3"/><path d="M340 440 L368 96 L392 96 L420 440 Z" fill="#26364F" fill-opacity="0.85"/><circle cx="380" cy="96" r="60" fill="url(#g377)"/><circle cx="380" cy="88" r="9" fill="#A9762B"/><path d="M368 96 Q380 74 392 96" fill="none" stroke="#26364F" stroke-width="3" stroke-linecap="round" stroke-linejoin="round"/><path d="M352 300 h56 M346 360 h68 M358 240 h44" fill="none" stroke="#E9E4D8" stroke-width="1.4" stroke-linecap="round" stroke-linejoin="round" stroke-opacity="0.35"/><path d="M323.2 452 Q322.18 431.2 326.6 424.0 Q330 420.8 333.4 424.0 Q337.82 431.2 336.8 452 Z" fill="#26364F" fill-opacity="0.92"/><circle cx="330" cy="415.8" r="3.8" fill="#26364F" fill-opacity="0.92"/><path d="M340 432 l14 -6" fill="none" stroke="#26364F" stroke-width="3" stroke-linecap="round" stroke-linejoin="round"/><path d="M0 452 h760" fill="none" stroke="#26364F" stroke-width="2" stroke-linecap="round" stroke-linejoin="round"/><rect x="-4" y="410" width="768" height="26" rx="0" fill="#E9E4D8" fill-opacity="0.3"/><circle cx="98.5" cy="298.7" r="0.50" fill="#26364F" fill-opacity="0.13"/><circle cx="318.2" cy="37.9" r="0.89" fill="#26364F" fill-opacity="0.13"/><circle cx="581.5" cy="332.2" r="1.06" fill="#26364F" fill-opacity="0.13"/><circle cx="131.1" cy="429.6" r="1.01" fill="#26364F" fill-opacity="0.13"/><circle cx="326.9" cy="108.3" r="0.67" fill="#26364F" fill-opacity="0.13"/><circle cx="647.6" cy="40.7" r="0.56" fill="#26364F" fill-opacity="0.13"/><circle cx="18.9" cy="443.8" r="0.77" fill="#26364F" fill-opacity="0.13"/><circle cx="547.2" cy="284.6" r="0.52" fill="#26364F" fill-opacity="0.13"/><circle cx="115.2" cy="482.0" r="0.54" fill="#26364F" fill-opacity="0.13"/><circle cx="101.2" cy="284.9" r="1.10" fill="#26364F" fill-opacity="0.13"/><circle cx="548.2" cy="373.1" r="1.00" fill="#26364F" fill-opacity="0.13"/><circle cx="568.8" cy="32.2" r="0.67" fill="#26364F" fill-opacity="0.13"/><circle cx="367.2" cy="308.0" r="0.79" fill="#26364F" fill-opacity="0.13"/><circle cx="583.2" cy="303.1" r="0.77" fill="#26364F" fill-opacity="0.13"/><circle cx="338.1" cy="111.5" r="0.72" fill="#26364F" fill-opacity="0.13"/><circle cx="346.3" cy="441.4" r="0.76" fill="#26364F" fill-opacity="0.13"/><circle cx="591.6" cy="359.5" r="0.54" fill="#26364F" fill-opacity="0.13"/><circle cx="355.9" cy="22.6" r="0.81" fill="#26364F" fill-opacity="0.13"/><circle cx="450.1" cy="28.2" r="0.95" fill="#26364F" fill-opacity="0.13"/><circle cx="496.1" cy="322.9" r="0.71" fill="#26364F" fill-opacity="0.13"/><circle cx="678.2" cy="28.3" r="0.41" fill="#26364F" fill-opacity="0.13"/><circle cx="734.0" cy="99.5" r="1.12" fill="#26364F" fill-opacity="0.13"/><circle cx="131.4" cy="115.0" r="0.56" fill="#26364F" fill-opacity="0.13"/><circle cx="722.7" cy="350.5" r="0.98" fill="#26364F" fill-opacity="0.13"/><circle cx="262.0" cy="319.0" r="0.86" fill="#26364F" fill-opacity="0.13"/><circle cx="663.1" cy="77.4" r="1.15" fill="#26364F" fill-opacity="0.13"/><circle cx="100.8" cy="482.2" r="0.59" fill="#26364F" fill-opacity="0.13"/><circle cx="94.1" cy="437.0" r="0.89" fill="#26364F" fill-opacity="0.13"/><circle cx="456.7" cy="151.7" r="0.63" fill="#26364F" fill-opacity="0.13"/><circle cx="720.6" cy="81.7" r="1.18" fill="#26364F" fill-opacity="0.13"/><circle cx="66.9" cy="48.6" r="0.99" fill="#26364F" fill-opacity="0.13"/><circle cx="656.9" cy="35.1" r="0.70" fill="#26364F" fill-opacity="0.13"/><circle cx="372.6" cy="82.8" r="0.46" fill="#26364F" fill-opacity="0.13"/><circle cx="395.2" cy="333.3" r="0.76" fill="#26364F" fill-opacity="0.13"/><circle cx="382.4" cy="356.1" r="0.53" fill="#26364F" fill-opacity="0.13"/><circle cx="34.6" cy="100.7" r="0.69" fill="#26364F" fill-opacity="0.13"/><circle cx="43.2" cy="105.1" r="0.42" fill="#26364F" fill-opacity="0.13"/><circle cx="290.4" cy="247.8" r="1.13" fill="#26364F" fill-opacity="0.13"/><circle cx="555.0" cy="137.5" r="0.52" fill="#26364F" fill-opacity="0.13"/><circle cx="429.1" cy="21.4" r="0.70" fill="#26364F" fill-opacity="0.13"/><circle cx="283.4" cy="193.1" r="1.18" fill="#26364F" fill-opacity="0.13"/><circle cx="428.5" cy="405.1" r="0.56" fill="#26364F" fill-opacity="0.13"/><circle cx="346.4" cy="295.4" r="0.86" fill="#26364F" fill-opacity="0.13"/><circle cx="53.4" cy="400.5" r="1.04" fill="#26364F" fill-opacity="0.13"/><circle cx="625.8" cy="101.0" r="0.56" fill="#26364F" fill-opacity="0.13"/><circle cx="414.2" cy="115.8" r="1.14" fill="#26364F" fill-opacity="0.13"/><circle cx="369.4" cy="116.2" r="0.70" fill="#26364F" fill-opacity="0.13"/><circle cx="735.9" cy="260.3" r="1.11" fill="#26364F" fill-opacity="0.13"/><circle cx="688.4" cy="268.2" r="0.89" fill="#26364F" fill-opacity="0.13"/><circle cx="751.6" cy="96.5" r="0.52" fill="#26364F" fill-opacity="0.13"/><circle cx="673.1" cy="247.0" r="0.71" fill="#26364F" fill-opacity="0.13"/><circle cx="446.7" cy="18.1" r="0.88" fill="#26364F" fill-opacity="0.13"/><circle cx="527.5" cy="74.9" r="0.75" fill="#26364F" fill-opacity="0.13"/><circle cx="683.6" cy="34.0" r="0.54" fill="#26364F" fill-opacity="0.13"/><circle cx="365.4" cy="160.9" r="0.84" fill="#26364F" fill-opacity="0.13"/><circle cx="346.8" cy="225.4" r="0.61" fill="#26364F" fill-opacity="0.13"/><circle cx="300.4" cy="315.2" r="0.57" fill="#26364F" fill-opacity="0.13"/><circle cx="586.5" cy="267.9" r="0.48" fill="#26364F" fill-opacity="0.13"/><circle cx="114.8" cy="306.5" r="0.70" fill="#26364F" fill-opacity="0.13"/><circle cx="650.9" cy="261.9" r="1.13" fill="#26364F" fill-opacity="0.13"/><circle cx="94.7" cy="302.0" r="0.78" fill="#26364F" fill-opacity="0.13"/><circle cx="671.9" cy="156.3" r="0.75" fill="#26364F" fill-opacity="0.13"/><circle cx="365.4" cy="304.2" r="0.59" fill="#26364F" fill-opacity="0.13"/><circle cx="591.1" cy="259.0" r="1.05" fill="#26364F" fill-opacity="0.13"/><circle cx="240.7" cy="235.8" r="0.53" fill="#26364F" fill-opacity="0.13"/><circle cx="710.7" cy="293.5" r="1.03" fill="#26364F" fill-opacity="0.13"/><circle cx="332.1" cy="105.2" r="0.95" fill="#26364F" fill-opacity="0.13"/><circle cx="462.3" cy="363.3" r="0.54" fill="#26364F" fill-opacity="0.13"/><circle cx="113.0" cy="102.5" r="0.92" fill="#26364F" fill-opacity="0.13"/><circle cx="460.9" cy="35.9" r="1.09" fill="#26364F" fill-opacity="0.13"/><circle cx="302.4" cy="84.7" r="1.14" fill="#26364F" fill-opacity="0.13"/><circle cx="733.4" cy="31.9" r="1.06" fill="#26364F" fill-opacity="0.13"/><circle cx="514.3" cy="151.6" r="0.59" fill="#26364F" fill-opacity="0.13"/><circle cx="32.8" cy="469.2" r="0.63" fill="#26364F" fill-opacity="0.13"/><circle cx="296.0" cy="304.1" r="0.85" fill="#26364F" fill-opacity="0.13"/><circle cx="128.2" cy="227.9" r="0.40" fill="#26364F" fill-opacity="0.13"/><circle cx="594.8" cy="235.4" r="0.95" fill="#26364F" fill-opacity="0.13"/><circle cx="364.5" cy="310.0" r="1.08" fill="#26364F" fill-opacity="0.13"/><circle cx="47.7" cy="312.8" r="1.08" fill="#26364F" fill-opacity="0.13"/><circle cx="26.9" cy="44.3" r="0.43" fill="#26364F" fill-opacity="0.13"/><circle cx="720.2" cy="470.4" r="0.91" fill="#26364F" fill-opacity="0.13"/><circle cx="477.7" cy="171.4" r="0.82" fill="#26364F" fill-opacity="0.13"/><circle cx="419.6" cy="316.1" r="1.05" fill="#26364F" fill-opacity="0.13"/><circle cx="44.4" cy="94.2" r="0.71" fill="#26364F" fill-opacity="0.13"/><circle cx="135.7" cy="145.3" r="0.54" fill="#26364F" fill-opacity="0.13"/><circle cx="740.2" cy="142.9" r="1.01" fill="#26364F" fill-opacity="0.13"/><circle cx="162.8" cy="247.9" r="1.12" fill="#26364F" fill-opacity="0.13"/><circle cx="604.7" cy="268.4" r="0.98" fill="#26364F" fill-opacity="0.13"/><circle cx="679.0" cy="375.0" r="0.78" fill="#26364F" fill-opacity="0.13"/><circle cx="545.1" cy="136.7" r="0.79" fill="#26364F" fill-opacity="0.13"/><circle cx="96.2" cy="250.2" r="0.84" fill="#26364F" fill-opacity="0.13"/><circle cx="313.8" cy="248.5" r="0.44" fill="#26364F" fill-opacity="0.13"/><circle cx="693.0" cy="468.9" r="0.89" fill="#26364F" fill-opacity="0.13"/><circle cx="638.6" cy="438.6" r="0.75" fill="#26364F" fill-opacity="0.13"/><circle cx="752.5" cy="195.4" r="0.53" fill="#26364F" fill-opacity="0.13"/><circle cx="350.6" cy="435.2" r="0.81" fill="#26364F" fill-opacity="0.13"/><circle cx="299.7" cy="344.5" r="1.14" fill="#26364F" fill-opacity="0.13"/><circle cx="231.5" cy="495.5" r="0.72" fill="#26364F" fill-opacity="0.13"/><circle cx="272.4" cy="82.2" r="0.51" fill="#26364F" fill-opacity="0.13"/><circle cx="417.1" cy="111.4" r="0.85" fill="#26364F" fill-opacity="0.13"/><circle cx="548.0" cy="111.0" r="0.64" fill="#26364F" fill-opacity="0.13"/><circle cx="544.0" cy="277.2" r="1.05" fill="#26364F" fill-opacity="0.13"/><circle cx="367.7" cy="428.0" r="0.57" fill="#26364F" fill-opacity="0.13"/><circle cx="64.7" cy="59.4" r="0.97" fill="#26364F" fill-opacity="0.13"/><circle cx="470.8" cy="200.8" r="1.12" fill="#26364F" fill-opacity="0.13"/><circle cx="420.2" cy="1.2" r="1.01" fill="#26364F" fill-opacity="0.13"/><circle cx="437.0" cy="226.8" r="0.51" fill="#26364F" fill-opacity="0.13"/><circle cx="622.6" cy="448.1" r="0.92" fill="#26364F" fill-opacity="0.13"/><circle cx="194.1" cy="182.6" r="0.55" fill="#26364F" fill-opacity="0.13"/><circle cx="345.5" cy="389.2" r="0.52" fill="#26364F" fill-opacity="0.13"/><circle cx="462.8" cy="422.8" r="0.61" fill="#26364F" fill-opacity="0.13"/><circle cx="23.9" cy="296.4" r="0.82" fill="#26364F" fill-opacity="0.13"/><circle cx="260.7" cy="31.7" r="0.97" fill="#26364F" fill-opacity="0.13"/><circle cx="46.4" cy="400.0" r="0.51" fill="#26364F" fill-opacity="0.13"/><circle cx="594.7" cy="474.0" r="1.07" fill="#26364F" fill-opacity="0.13"/><circle cx="708.2" cy="94.9" r="0.56" fill="#26364F" fill-opacity="0.13"/><circle cx="385.1" cy="230.3" r="0.95" fill="#26364F" fill-opacity="0.13"/><circle cx="267.8" cy="254.0" r="0.49" fill="#26364F" fill-opacity="0.13"/><circle cx="120.1" cy="228.3" r="0.50" fill="#26364F" fill-opacity="0.13"/><circle cx="731.9" cy="293.1" r="1.17" fill="#26364F" fill-opacity="0.13"/><circle cx="566.4" cy="225.8" r="0.40" fill="#26364F" fill-opacity="0.13"/><circle cx="581.8" cy="352.9" r="0.47" fill="#26364F" fill-opacity="0.13"/><circle cx="652.6" cy="278.0" r="0.58" fill="#26364F" fill-opacity="0.13"/><circle cx="643.7" cy="246.7" r="0.73" fill="#26364F" fill-opacity="0.13"/><circle cx="356.8" cy="105.3" r="0.79" fill="#26364F" fill-opacity="0.13"/><circle cx="411.9" cy="473.0" r="0.83" fill="#26364F" fill-opacity="0.13"/><circle cx="293.1" cy="225.6" r="1.06" fill="#26364F" fill-opacity="0.13"/><circle cx="539.8" cy="32.7" r="0.71" fill="#26364F" fill-opacity="0.13"/><circle cx="730.5" cy="114.2" r="1.14" fill="#26364F" fill-opacity="0.13"/><circle cx="182.6" cy="256.3" r="0.97" fill="#26364F" fill-opacity="0.13"/><circle cx="199.9" cy="476.7" r="0.65" fill="#26364F" fill-opacity="0.13"/><circle cx="186.5" cy="246.5" r="0.74" fill="#26364F" fill-opacity="0.13"/><circle cx="426.2" cy="107.3" r="0.50" fill="#26364F" fill-opacity="0.13"/><circle cx="574.2" cy="327.8" r="0.55" fill="#26364F" fill-opacity="0.13"/><circle cx="509.5" cy="266.3" r="1.03" fill="#26364F" fill-opacity="0.13"/><circle cx="34.1" cy="61.1" r="0.61" fill="#26364F" fill-opacity="0.13"/><circle cx="242.9" cy="273.5" r="0.65" fill="#26364F" fill-opacity="0.13"/><circle cx="105.5" cy="301.8" r="0.58" fill="#26364F" fill-opacity="0.13"/><circle cx="200.8" cy="407.2" r="0.96" fill="#26364F" fill-opacity="0.13"/><circle cx="401.6" cy="176.5" r="1.18" fill="#26364F" fill-opacity="0.13"/><circle cx="254.4" cy="20.8" r="1.05" fill="#26364F" fill-opacity="0.13"/><circle cx="557.4" cy="478.6" r="0.50" fill="#26364F" fill-opacity="0.13"/><circle cx="695.8" cy="119.0" r="0.49" fill="#26364F" fill-opacity="0.13"/><circle cx="87.5" cy="425.4" r="0.98" fill="#26364F" fill-opacity="0.13"/><circle cx="390.1" cy="133.4" r="0.48" fill="#26364F" fill-opacity="0.13"/><circle cx="197.5" cy="135.0" r="0.89" fill="#26364F" fill-opacity="0.13"/><circle cx="53.2" cy="80.5" r="1.09" fill="#26364F" fill-opacity="0.13"/><circle cx="262.7" cy="247.7" r="0.69" fill="#26364F" fill-opacity="0.13"/><circle cx="383.1" cy="284.3" r="0.88" fill="#26364F" fill-opacity="0.13"/><circle cx="117.4" cy="300.4" r="0.98" fill="#26364F" fill-opacity="0.13"/><circle cx="479.5" cy="175.9" r="1.10" fill="#26364F" fill-opacity="0.13"/><circle cx="601.2" cy="291.2" r="0.72" fill="#26364F" fill-opacity="0.13"/><circle cx="123.3" cy="356.6" r="0.46" fill="#26364F" fill-opacity="0.13"/><circle cx="521.1" cy="33.5" r="0.70" fill="#26364F" fill-opacity="0.13"/><circle cx="687.7" cy="195.5" r="1.12" fill="#26364F" fill-opacity="0.13"/><circle cx="52.5" cy="288.4" r="1.09" fill="#26364F" fill-opacity="0.13"/><circle cx="494.1" cy="137.0" r="0.82" fill="#26364F" fill-opacity="0.13"/><circle cx="581.3" cy="452.7" r="0.71" fill="#26364F" fill-opacity="0.13"/><circle cx="434.9" cy="350.6" r="0.86" fill="#26364F" fill-opacity="0.13"/><circle cx="616.6" cy="313.4" r="1.15" fill="#26364F" fill-opacity="0.13"/><circle cx="225.8" cy="138.9" r="0.61" fill="#26364F" fill-opacity="0.13"/><circle cx="47.9" cy="4.5" r="0.69" fill="#26364F" fill-opacity="0.13"/><circle cx="151.8" cy="110.5" r="0.50" fill="#26364F" fill-opacity="0.13"/><circle cx="369.8" cy="491.0" r="1.18" fill="#26364F" fill-opacity="0.13"/><circle cx="738.3" cy="82.6" r="1.11" fill="#26364F" fill-opacity="0.13"/><circle cx="243.0" cy="385.0" r="1.17" fill="#26364F" fill-opacity="0.13"/><circle cx="82.3" cy="177.5" r="0.85" fill="#26364F" fill-opacity="0.13"/><circle cx="446.3" cy="262.7" r="0.82" fill="#26364F" fill-opacity="0.13"/><circle cx="550.7" cy="234.1" r="0.44" fill="#26364F" fill-opacity="0.13"/><circle cx="478.1" cy="127.9" r="0.76" fill="#26364F" fill-opacity="0.13"/><circle cx="11.8" cy="270.3" r="0.97" fill="#26364F" fill-opacity="0.13"/><circle cx="227.5" cy="237.2" r="1.06" fill="#26364F" fill-opacity="0.13"/><circle cx="586.9" cy="383.3" r="0.59" fill="#26364F" fill-opacity="0.13"/><circle cx="246.7" cy="290.1" r="0.54" fill="#26364F" fill-opacity="0.13"/><circle cx="461.1" cy="261.4" r="0.87" fill="#26364F" fill-opacity="0.13"/><circle cx="750.0" cy="465.5" r="0.54" fill="#26364F" fill-opacity="0.13"/><circle cx="707.5" cy="12.1" r="1.00" fill="#26364F" fill-opacity="0.13"/><circle cx="640.6" cy="232.8" r="0.90" fill="#26364F" fill-opacity="0.13"/><circle cx="192.5" cy="388.5" r="0.41" fill="#26364F" fill-opacity="0.13"/><circle cx="471.6" cy="79.4" r="1.11" fill="#26364F" fill-opacity="0.13"/><circle cx="731.1" cy="196.5" r="0.65" fill="#26364F" fill-opacity="0.13"/><circle cx="607.9" cy="408.8" r="0.84" fill="#26364F" fill-opacity="0.13"/><circle cx="318.7" cy="403.0" r="0.89" fill="#26364F" fill-opacity="0.13"/><circle cx="546.2" cy="130.8" r="1.02" fill="#26364F" fill-opacity="0.13"/><circle cx="655.9" cy="275.5" r="1.00" fill="#26364F" fill-opacity="0.13"/><circle cx="289.4" cy="158.5" r="1.16" fill="#26364F" fill-opacity="0.13"/><circle cx="186.7" cy="71.5" r="0.94" fill="#26364F" fill-opacity="0.13"/><circle cx="411.7" cy="108.9" r="1.19" fill="#26364F" fill-opacity="0.13"/><circle cx="540.9" cy="128.7" r="0.76" fill="#26364F" fill-opacity="0.13"/><circle cx="97.0" cy="465.9" r="1.08" fill="#26364F" fill-opacity="0.13"/><circle cx="662.0" cy="199.0" r="0.83" fill="#26364F" fill-opacity="0.13"/><circle cx="491.2" cy="9.5" r="0.46" fill="#26364F" fill-opacity="0.13"/><circle cx="268.3" cy="373.4" r="0.43" fill="#26364F" fill-opacity="0.13"/><circle cx="759.8" cy="14.3" r="1.08" fill="#26364F" fill-opacity="0.13"/><circle cx="226.9" cy="264.2" r="1.06" fill="#26364F" fill-opacity="0.13"/><circle cx="17.2" cy="455.0" r="0.71" fill="#26364F" fill-opacity="0.13"/><circle cx="338.0" cy="73.7" r="0.74" fill="#26364F" fill-opacity="0.13"/><circle cx="110.5" cy="455.8" r="0.97" fill="#26364F" fill-opacity="0.13"/><circle cx="230.8" cy="19.1" r="0.96" fill="#26364F" fill-opacity="0.13"/><circle cx="630.1" cy="353.4" r="0.66" fill="#26364F" fill-opacity="0.13"/><circle cx="462.7" cy="86.8" r="0.56" fill="#26364F" fill-opacity="0.13"/><circle cx="611.0" cy="329.2" r="1.11" fill="#26364F" fill-opacity="0.13"/><circle cx="574.0" cy="93.2" r="0.89" fill="#26364F" fill-opacity="0.13"/><circle cx="501.0" cy="429.0" r="0.71" fill="#26364F" fill-opacity="0.13"/><circle cx="299.5" cy="391.2" r="1.15" fill="#26364F" fill-opacity="0.13"/><circle cx="709.3" cy="220.8" r="1.06" fill="#26364F" fill-opacity="0.13"/><circle cx="535.8" cy="235.2" r="0.75" fill="#26364F" fill-opacity="0.13"/><circle cx="389.4" cy="234.3" r="0.44" fill="#26364F" fill-opacity="0.13"/><circle cx="158.2" cy="256.4" r="0.64" fill="#26364F" fill-opacity="0.13"/><circle cx="616.5" cy="130.0" r="0.45" fill="#26364F" fill-opacity="0.13"/><circle cx="236.4" cy="278.9" r="1.10" fill="#26364F" fill-opacity="0.13"/><circle cx="647.3" cy="360.5" r="0.50" fill="#26364F" fill-opacity="0.13"/><circle cx="137.6" cy="33.3" r="0.74" fill="#26364F" fill-opacity="0.13"/><circle cx="701.8" cy="236.2" r="0.97" fill="#26364F" fill-opacity="0.13"/><circle cx="10.1" cy="297.6" r="1.17" fill="#26364F" fill-opacity="0.13"/><circle cx="739.1" cy="96.9" r="0.62" fill="#26364F" fill-opacity="0.13"/><circle cx="275.7" cy="377.5" r="0.41" fill="#26364F" fill-opacity="0.13"/><circle cx="151.0" cy="209.0" r="1.14" fill="#26364F" fill-opacity="0.13"/><circle cx="724.9" cy="286.6" r="0.72" fill="#26364F" fill-opacity="0.13"/><circle cx="387.4" cy="390.7" r="1.01" fill="#26364F" fill-opacity="0.13"/><circle cx="221.7" cy="247.3" r="0.61" fill="#26364F" fill-opacity="0.13"/><circle cx="377.9" cy="260.1" r="1.02" fill="#26364F" fill-opacity="0.13"/><circle cx="358.9" cy="322.4" r="0.77" fill="#26364F" fill-opacity="0.13"/><circle cx="331.5" cy="244.2" r="1.01" fill="#26364F" fill-opacity="0.13"/><circle cx="626.9" cy="106.2" r="0.67" fill="#26364F" fill-opacity="0.13"/><circle cx="376.7" cy="4.0" r="0.51" fill="#26364F" fill-opacity="0.13"/><circle cx="311.2" cy="98.9" r="0.41" fill="#26364F" fill-opacity="0.13"/><circle cx="685.9" cy="241.8" r="0.47" fill="#26364F" fill-opacity="0.13"/><circle cx="682.7" cy="178.5" r="0.43" fill="#26364F" fill-opacity="0.13"/><circle cx="176.6" cy="490.5" r="0.85" fill="#26364F" fill-opacity="0.13"/><circle cx="740.4" cy="135.2" r="0.48" fill="#26364F" fill-opacity="0.13"/><circle cx="285.6" cy="258.5" r="0.79" fill="#26364F" fill-opacity="0.13"/><circle cx="24.4" cy="16.9" r="1.07" fill="#26364F" fill-opacity="0.13"/><circle cx="41.0" cy="221.3" r="0.67" fill="#26364F" fill-opacity="0.13"/><circle cx="487.6" cy="406.9" r="1.00" fill="#26364F" fill-opacity="0.13"/><circle cx="78.5" cy="170.1" r="0.48" fill="#26364F" fill-opacity="0.13"/><circle cx="657.7" cy="362.2" r="0.82" fill="#26364F" fill-opacity="0.13"/><circle cx="101.8" cy="179.4" r="1.06" fill="#26364F" fill-opacity="0.13"/><circle cx="79.9" cy="177.1" r="0.77" fill="#26364F" fill-opacity="0.13"/><circle cx="490.0" cy="205.4" r="0.85" fill="#26364F" fill-opacity="0.13"/><circle cx="462.5" cy="354.6" r="0.90" fill="#26364F" fill-opacity="0.13"/><circle cx="207.5" cy="26.2" r="0.91" fill="#26364F" fill-opacity="0.13"/><circle cx="83.4" cy="221.9" r="0.75" fill="#26364F" fill-opacity="0.13"/><circle cx="456.0" cy="359.2" r="0.44" fill="#26364F" fill-opacity="0.13"/><circle cx="190.4" cy="335.6" r="0.51" fill="#26364F" fill-opacity="0.13"/><circle cx="633.2" cy="141.6" r="0.92" fill="#26364F" fill-opacity="0.13"/><circle cx="340.5" cy="63.5" r="0.95" fill="#26364F" fill-opacity="0.13"/><circle cx="577.6" cy="125.7" r="0.44" fill="#26364F" fill-opacity="0.13"/><circle cx="544.7" cy="176.6" r="0.88" fill="#26364F" fill-opacity="0.13"/><circle cx="454.0" cy="154.9" r="1.00" fill="#26364F" fill-opacity="0.13"/><circle cx="491.1" cy="31.3" r="0.92" fill="#26364F" fill-opacity="0.13"/><circle cx="567.4" cy="474.6" r="0.75" fill="#26364F" fill-opacity="0.13"/><circle cx="218.3" cy="90.0" r="1.00" fill="#26364F" fill-opacity="0.13"/><circle cx="734.0" cy="318.1" r="1.12" fill="#26364F" fill-opacity="0.13"/><circle cx="108.1" cy="307.2" r="0.66" fill="#26364F" fill-opacity="0.13"/><circle cx="57.8" cy="17.9" r="0.82" fill="#26364F" fill-opacity="0.13"/><circle cx="625.1" cy="91.7" r="1.11" fill="#26364F" fill-opacity="0.13"/><circle cx="734.8" cy="235.5" r="0.53" fill="#26364F" fill-opacity="0.13"/><circle cx="204.3" cy="308.0" r="1.07" fill="#26364F" fill-opacity="0.13"/><circle cx="258.4" cy="166.4" r="0.62" fill="#26364F" fill-opacity="0.13"/><circle cx="587.0" cy="317.5" r="0.60" fill="#26364F" fill-opacity="0.13"/><circle cx="205.9" cy="342.5" r="1.00" fill="#26364F" fill-opacity="0.13"/><circle cx="316.7" cy="144.3" r="0.43" fill="#26364F" fill-opacity="0.13"/><circle cx="182.9" cy="120.9" r="0.57" fill="#26364F" fill-opacity="0.13"/><circle cx="29.0" cy="332.9" r="0.94" fill="#26364F" fill-opacity="0.13"/><circle cx="580.0" cy="274.4" r="0.57" fill="#26364F" fill-opacity="0.13"/><circle cx="298.2" cy="295.0" r="1.02" fill="#26364F" fill-opacity="0.13"/><circle cx="54.4" cy="187.8" r="0.73" fill="#26364F" fill-opacity="0.13"/><circle cx="723.4" cy="325.6" r="0.47" fill="#26364F" fill-opacity="0.13"/><circle cx="386.8" cy="45.3" r="0.42" fill="#26364F" fill-opacity="0.13"/><circle cx="499.9" cy="186.7" r="0.69" fill="#26364F" fill-opacity="0.13"/><circle cx="219.0" cy="62.3" r="1.14" fill="#26364F" fill-opacity="0.13"/><circle cx="11.9" cy="415.0" r="0.65" fill="#26364F" fill-opacity="0.13"/><circle cx="106.5" cy="379.7" r="0.49" fill="#26364F" fill-opacity="0.13"/><circle cx="113.9" cy="166.1" r="0.70" fill="#26364F" fill-opacity="0.13"/><circle cx="44.8" cy="364.8" r="1.01" fill="#26364F" fill-opacity="0.13"/><circle cx="619.1" cy="427.2" r="0.66" fill="#26364F" fill-opacity="0.13"/><circle cx="693.3" cy="189.8" r="1.17" fill="#26364F" fill-opacity="0.13"/><circle cx="651.3" cy="283.5" r="0.80" fill="#26364F" fill-opacity="0.13"/><circle cx="99.1" cy="432.6" r="0.52" fill="#26364F" fill-opacity="0.13"/><circle cx="175.2" cy="310.1" r="0.66" fill="#26364F" fill-opacity="0.13"/><circle cx="42.1" cy="105.3" r="0.69" fill="#26364F" fill-opacity="0.13"/><circle cx="231.6" cy="450.2" r="0.48" fill="#26364F" fill-opacity="0.13"/><circle cx="658.3" cy="431.9" r="0.56" fill="#26364F" fill-opacity="0.13"/><circle cx="678.1" cy="441.3" r="0.81" fill="#26364F" fill-opacity="0.13"/><circle cx="253.5" cy="186.8" r="0.47" fill="#26364F" fill-opacity="0.13"/><circle cx="40.0" cy="190.1" r="0.98" fill="#26364F" fill-opacity="0.13"/><circle cx="34.5" cy="131.5" r="0.71" fill="#26364F" fill-opacity="0.13"/><circle cx="238.3" cy="363.4" r="0.76" fill="#26364F" fill-opacity="0.13"/><circle cx="159.5" cy="449.3" r="1.03" fill="#26364F" fill-opacity="0.13"/><circle cx="319.4" cy="492.6" r="0.53" fill="#26364F" fill-opacity="0.13"/><circle cx="559.5" cy="132.9" r="1.19" fill="#26364F" fill-opacity="0.13"/><circle cx="53.1" cy="366.8" r="1.06" fill="#26364F" fill-opacity="0.13"/><circle cx="17.3" cy="312.0" r="0.87" fill="#26364F" fill-opacity="0.13"/><circle cx="207.2" cy="302.9" r="0.71" fill="#26364F" fill-opacity="0.13"/><circle cx="590.0" cy="62.8" r="1.11" fill="#26364F" fill-opacity="0.13"/><circle cx="6.3" cy="236.1" r="0.49" fill="#26364F" fill-opacity="0.13"/><circle cx="187.5" cy="3.5" r="0.82" fill="#26364F" fill-opacity="0.13"/><circle cx="532.6" cy="335.3" r="0.97" fill="#26364F" fill-opacity="0.13"/><circle cx="369.3" cy="106.8" r="0.97" fill="#26364F" fill-opacity="0.13"/><circle cx="556.7" cy="220.9" r="0.89" fill="#26364F" fill-opacity="0.13"/><circle cx="465.8" cy="192.4" r="0.97" fill="#26364F" fill-opacity="0.13"/><circle cx="592.9" cy="198.3" r="0.98" fill="#26364F" fill-opacity="0.13"/><circle cx="431.1" cy="209.6" r="0.93" fill="#26364F" fill-opacity="0.13"/><circle cx="154.4" cy="328.2" r="0.59" fill="#26364F" fill-opacity="0.13"/><circle cx="326.2" cy="214.1" r="1.00" fill="#26364F" fill-opacity="0.13"/><circle cx="64.2" cy="315.6" r="0.42" fill="#26364F" fill-opacity="0.13"/><circle cx="26.2" cy="378.8" r="1.04" fill="#26364F" fill-opacity="0.13"/><circle cx="652.6" cy="133.8" r="1.14" fill="#26364F" fill-opacity="0.13"/><circle cx="216.1" cy="366.4" r="0.72" fill="#26364F" fill-opacity="0.13"/><circle cx="609.3" cy="285.2" r="0.48" fill="#26364F" fill-opacity="0.13"/><circle cx="148.0" cy="213.9" r="0.84" fill="#26364F" fill-opacity="0.13"/><circle cx="27.5" cy="472.6" r="0.68" fill="#26364F" fill-opacity="0.13"/><circle cx="233.7" cy="411.6" r="0.79" fill="#26364F" fill-opacity="0.13"/><circle cx="133.8" cy="409.4" r="0.43" fill="#26364F" fill-opacity="0.13"/><circle cx="428.7" cy="197.2" r="0.55" fill="#26364F" fill-opacity="0.13"/><circle cx="243.0" cy="301.7" r="0.42" fill="#26364F" fill-opacity="0.13"/><circle cx="68.4" cy="376.8" r="1.08" fill="#26364F" fill-opacity="0.13"/><circle cx="628.0" cy="74.9" r="0.86" fill="#26364F" fill-opacity="0.13"/><circle cx="402.3" cy="431.4" r="0.71" fill="#26364F" fill-opacity="0.13"/><circle cx="151.7" cy="291.7" r="0.49" fill="#26364F" fill-opacity="0.13"/><circle cx="455.5" cy="440.3" r="0.60" fill="#26364F" fill-opacity="0.13"/><circle cx="350.1" cy="115.7" r="0.75" fill="#26364F" fill-opacity="0.13"/><circle cx="298.9" cy="343.8" r="0.40" fill="#26364F" fill-opacity="0.13"/><circle cx="463.0" cy="155.1" r="0.57" fill="#26364F" fill-opacity="0.13"/><circle cx="505.6" cy="126.9" r="0.76" fill="#26364F" fill-opacity="0.13"/><circle cx="107.2" cy="180.0" r="0.75" fill="#26364F" fill-opacity="0.13"/><circle cx="679.1" cy="94.2" r="1.07" fill="#26364F" fill-opacity="0.13"/><circle cx="69.9" cy="489.0" r="0.56" fill="#26364F" fill-opacity="0.13"/><circle cx="279.1" cy="250.1" r="0.93" fill="#26364F" fill-opacity="0.13"/><circle cx="504.5" cy="275.5" r="0.43" fill="#26364F" fill-opacity="0.13"/><circle cx="698.9" cy="34.3" r="0.71" fill="#26364F" fill-opacity="0.13"/><circle cx="109.6" cy="262.8" r="0.91" fill="#26364F" fill-opacity="0.13"/><circle cx="197.0" cy="3.8" r="1.20" fill="#26364F" fill-opacity="0.13"/><circle cx="381.5" cy="278.2" r="0.42" fill="#26364F" fill-opacity="0.13"/><circle cx="145.9" cy="278.1" r="0.42" fill="#26364F" fill-opacity="0.13"/><circle cx="518.0" cy="229.1" r="0.65" fill="#26364F" fill-opacity="0.13"/><circle cx="308.0" cy="478.9" r="1.04" fill="#26364F" fill-opacity="0.13"/><circle cx="156.7" cy="374.1" r="0.83" fill="#26364F" fill-opacity="0.13"/><circle cx="724.3" cy="486.3" r="0.90" fill="#26364F" fill-opacity="0.13"/><circle cx="135.7" cy="320.6" r="0.80" fill="#26364F" fill-opacity="0.13"/><circle cx="120.5" cy="140.8" r="1.09" fill="#26364F" fill-opacity="0.13"/><circle cx="89.0" cy="39.5" r="1.01" fill="#26364F" fill-opacity="0.13"/><circle cx="285.8" cy="13.8" r="0.61" fill="#26364F" fill-opacity="0.13"/><circle cx="202.7" cy="161.2" r="0.43" fill="#26364F" fill-opacity="0.13"/><circle cx="713.2" cy="394.4" r="0.95" fill="#26364F" fill-opacity="0.13"/><circle cx="39.5" cy="472.6" r="0.72" fill="#26364F" fill-opacity="0.13"/><circle cx="505.5" cy="446.4" r="0.87" fill="#26364F" fill-opacity="0.13"/><circle cx="160.9" cy="173.5" r="1.19" fill="#26364F" fill-opacity="0.13"/><circle cx="397.7" cy="487.4" r="0.78" fill="#26364F" fill-opacity="0.13"/><circle cx="650.3" cy="4.2" r="1.11" fill="#26364F" fill-opacity="0.13"/><circle cx="303.0" cy="23.4" r="0.70" fill="#26364F" fill-opacity="0.13"/><circle cx="193.5" cy="302.5" r="0.78" fill="#26364F" fill-opacity="0.13"/><circle cx="324.5" cy="189.1" r="0.88" fill="#26364F" fill-opacity="0.13"/><circle cx="477.8" cy="219.2" r="1.13" fill="#26364F" fill-opacity="0.13"/><circle cx="703.9" cy="158.3" r="0.42" fill="#26364F" fill-opacity="0.13"/><circle cx="433.7" cy="69.7" r="0.93" fill="#26364F" fill-opacity="0.13"/><circle cx="473.3" cy="12.7" r="0.75" fill="#26364F" fill-opacity="0.13"/><circle cx="61.4" cy="408.3" r="0.96" fill="#26364F" fill-opacity="0.13"/><circle cx="404.0" cy="179.6" r="0.59" fill="#26364F" fill-opacity="0.13"/><circle cx="394.5" cy="270.7" r="0.44" fill="#26364F" fill-opacity="0.13"/><circle cx="378.0" cy="126.3" r="0.82" fill="#26364F" fill-opacity="0.13"/><circle cx="128.2" cy="176.3" r="0.58" fill="#26364F" fill-opacity="0.13"/><circle cx="754.8" cy="16.3" r="1.09" fill="#26364F" fill-opacity="0.13"/><circle cx="423.5" cy="349.4" r="0.89" fill="#26364F" fill-opacity="0.13"/><circle cx="188.2" cy="85.6" r="0.61" fill="#26364F" fill-opacity="0.13"/><circle cx="203.8" cy="299.2" r="1.13" fill="#26364F" fill-opacity="0.13"/><circle cx="104.0" cy="318.9" r="0.45" fill="#26364F" fill-opacity="0.13"/><circle cx="521.2" cy="109.7" r="0.78" fill="#26364F" fill-opacity="0.13"/><circle cx="358.9" cy="417.6" r="0.92" fill="#26364F" fill-opacity="0.13"/><circle cx="3.1" cy="122.1" r="0.68" fill="#26364F" fill-opacity="0.13"/><circle cx="271.1" cy="372.3" r="0.56" fill="#26364F" fill-opacity="0.13"/><circle cx="659.4" cy="91.1" r="0.47" fill="#26364F" fill-opacity="0.13"/><circle cx="114.3" cy="84.1" r="0.89" fill="#26364F" fill-opacity="0.13"/><circle cx="176.4" cy="473.9" r="0.90" fill="#26364F" fill-opacity="0.13"/><circle cx="229.3" cy="336.8" r="0.41" fill="#26364F" fill-opacity="0.13"/><circle cx="293.1" cy="299.0" r="1.17" fill="#26364F" fill-opacity="0.13"/><circle cx="658.1" cy="131.9" r="1.04" fill="#26364F" fill-opacity="0.13"/><circle cx="431.5" cy="289.4" r="0.92" fill="#26364F" fill-opacity="0.13"/><circle cx="755.3" cy="269.4" r="1.19" fill="#26364F" fill-opacity="0.13"/><circle cx="158.3" cy="50.5" r="1.15" fill="#26364F" fill-opacity="0.13"/><circle cx="36.2" cy="395.3" r="0.59" fill="#26364F" fill-opacity="0.13"/><circle cx="348.7" cy="31.1" r="0.91" fill="#26364F" fill-opacity="0.13"/><circle cx="255.3" cy="14.5" r="1.02" fill="#26364F" fill-opacity="0.13"/><circle cx="272.7" cy="344.9" r="1.17" fill="#26364F" fill-opacity="0.13"/><circle cx="606.5" cy="186.0" r="0.79" fill="#26364F" fill-opacity="0.13"/><circle cx="476.4" cy="235.0" r="1.08" fill="#26364F" fill-opacity="0.13"/><circle cx="260.3" cy="78.2" r="1.16" fill="#26364F" fill-opacity="0.13"/><circle cx="495.7" cy="24.7" r="0.61" fill="#26364F" fill-opacity="0.13"/><circle cx="3.7" cy="126.2" r="0.77" fill="#26364F" fill-opacity="0.13"/><circle cx="574.1" cy="120.4" r="0.56" fill="#26364F" fill-opacity="0.13"/><circle cx="504.5" cy="373.2" r="1.08" fill="#26364F" fill-opacity="0.13"/><circle cx="102.1" cy="226.3" r="0.97" fill="#26364F" fill-opacity="0.13"/><circle cx="584.6" cy="31.8" r="0.43" fill="#26364F" fill-opacity="0.13"/><circle cx="101.5" cy="35.1" r="0.61" fill="#26364F" fill-opacity="0.13"/><circle cx="309.7" cy="355.2" r="0.72" fill="#26364F" fill-opacity="0.13"/><circle cx="383.1" cy="191.1" r="0.62" fill="#26364F" fill-opacity="0.13"/><circle cx="57.7" cy="374.7" r="1.16" fill="#26364F" fill-opacity="0.13"/><circle cx="154.6" cy="448.8" r="0.76" fill="#26364F" fill-opacity="0.13"/><circle cx="562.1" cy="95.2" r="0.52" fill="#26364F" fill-opacity="0.13"/><circle cx="1.1" cy="293.0" r="0.99" fill="#26364F" fill-opacity="0.13"/><circle cx="77.4" cy="278.0" r="0.81" fill="#26364F" fill-opacity="0.13"/><circle cx="554.3" cy="245.9" r="0.58" fill="#26364F" fill-opacity="0.13"/><circle cx="387.8" cy="58.0" r="0.42" fill="#26364F" fill-opacity="0.13"/><circle cx="356.3" cy="290.4" r="0.54" fill="#26364F" fill-opacity="0.13"/><circle cx="381.6" cy="308.1" r="0.73" fill="#26364F" fill-opacity="0.13"/><circle cx="273.6" cy="400.4" r="0.59" fill="#26364F" fill-opacity="0.13"/><circle cx="487.1" cy="38.5" r="0.82" fill="#26364F" fill-opacity="0.13"/><circle cx="28.4" cy="346.1" r="0.43" fill="#26364F" fill-opacity="0.13"/><circle cx="737.3" cy="145.2" r="1.18" fill="#26364F" fill-opacity="0.13"/><circle cx="33.2" cy="5.6" r="0.70" fill="#26364F" fill-opacity="0.13"/><circle cx="41.1" cy="373.8" r="1.06" fill="#26364F" fill-opacity="0.13"/><circle cx="716.7" cy="44.1" r="0.61" fill="#26364F" fill-opacity="0.13"/><circle cx="127.0" cy="4.1" r="0.83" fill="#26364F" fill-opacity="0.13"/><circle cx="237.3" cy="148.5" r="0.57" fill="#26364F" fill-opacity="0.13"/><circle cx="521.0" cy="399.6" r="0.58" fill="#26364F" fill-opacity="0.13"/><circle cx="274.7" cy="170.0" r="0.43" fill="#26364F" fill-opacity="0.13"/><circle cx="71.9" cy="488.8" r="0.45" fill="#26364F" fill-opacity="0.13"/><circle cx="486.5" cy="169.2" r="0.91" fill="#26364F" fill-opacity="0.13"/><circle cx="180.9" cy="317.4" r="1.07" fill="#26364F" fill-opacity="0.13"/><circle cx="121.4" cy="428.4" r="0.41" fill="#26364F" fill-opacity="0.13"/><circle cx="368.2" cy="437.9" r="0.87" fill="#26364F" fill-opacity="0.13"/><circle cx="226.5" cy="345.9" r="0.47" fill="#26364F" fill-opacity="0.13"/><circle cx="277.1" cy="260.9" r="1.08" fill="#26364F" fill-opacity="0.13"/><circle cx="37.9" cy="453.3" r="0.40" fill="#26364F" fill-opacity="0.13"/><circle cx="724.2" cy="476.9" r="0.49" fill="#26364F" fill-opacity="0.13"/><circle cx="415.8" cy="92.7" r="1.15" fill="#26364F" fill-opacity="0.13"/><circle cx="643.7" cy="173.4" r="1.15" fill="#26364F" fill-opacity="0.13"/><circle cx="190.4" cy="314.2" r="0.84" fill="#26364F" fill-opacity="0.13"/><circle cx="45.3" cy="171.7" r="0.52" fill="#26364F" fill-opacity="0.13"/><circle cx="607.9" cy="423.0" r="0.43" fill="#26364F" fill-opacity="0.13"/><circle cx="393.2" cy="468.9" r="0.56" fill="#26364F" fill-opacity="0.13"/><circle cx="120.1" cy="447.1" r="0.85" fill="#26364F" fill-opacity="0.13"/><circle cx="150.2" cy="240.1" r="0.95" fill="#26364F" fill-opacity="0.13"/><circle cx="267.3" cy="63.4" r="0.65" fill="#26364F" fill-opacity="0.13"/><circle cx="205.8" cy="254.5" r="0.66" fill="#26364F" fill-opacity="0.13"/><circle cx="580.3" cy="171.6" r="0.64" fill="#26364F" fill-opacity="0.13"/><circle cx="749.4" cy="194.6" r="1.06" fill="#26364F" fill-opacity="0.13"/><circle cx="396.1" cy="316.5" r="0.87" fill="#26364F" fill-opacity="0.13"/><circle cx="376.8" cy="459.3" r="1.20" fill="#26364F" fill-opacity="0.13"/><circle cx="16.9" cy="390.6" r="0.68" fill="#26364F" fill-opacity="0.13"/><circle cx="286.0" cy="198.2" r="0.46" fill="#26364F" fill-opacity="0.13"/><circle cx="2.4" cy="261.0" r="0.95" fill="#26364F" fill-opacity="0.13"/><circle cx="237.3" cy="43.2" r="0.42" fill="#26364F" fill-opacity="0.13"/><circle cx="587.4" cy="391.0" r="0.45" fill="#26364F" fill-opacity="0.13"/><circle cx="207.0" cy="476.9" r="0.65" fill="#26364F" fill-opacity="0.13"/><circle cx="219.1" cy="1.6" r="0.94" fill="#26364F" fill-opacity="0.13"/><circle cx="411.9" cy="132.7" r="0.70" fill="#26364F" fill-opacity="0.13"/><circle cx="477.3" cy="308.3" r="0.83" fill="#26364F" fill-opacity="0.13"/><circle cx="127.0" cy="248.9" r="0.70" fill="#26364F" fill-opacity="0.13"/><circle cx="117.0" cy="104.0" r="0.85" fill="#26364F" fill-opacity="0.13"/><circle cx="548.6" cy="485.5" r="0.87" fill="#26364F" fill-opacity="0.13"/><circle cx="167.9" cy="23.1" r="0.70" fill="#26364F" fill-opacity="0.13"/><circle cx="596.3" cy="338.8" r="0.90" fill="#26364F" fill-opacity="0.13"/><circle cx="586.8" cy="245.0" r="0.97" fill="#26364F" fill-opacity="0.13"/><circle cx="71.3" cy="126.6" r="0.94" fill="#26364F" fill-opacity="0.13"/><circle cx="402.2" cy="291.2" r="0.98" fill="#26364F" fill-opacity="0.13"/><circle cx="759.3" cy="124.4" r="0.53" fill="#26364F" fill-opacity="0.13"/><circle cx="630.2" cy="109.2" r="0.94" fill="#26364F" fill-opacity="0.13"/><circle cx="372.2" cy="244.5" r="0.51" fill="#26364F" fill-opacity="0.13"/><circle cx="375.4" cy="57.6" r="0.67" fill="#26364F" fill-opacity="0.13"/><circle cx="562.4" cy="432.7" r="0.68" fill="#26364F" fill-opacity="0.13"/><circle cx="370.7" cy="4.7" r="0.42" fill="#26364F" fill-opacity="0.13"/><circle cx="530.8" cy="199.2" r="0.86" fill="#26364F" fill-opacity="0.13"/><circle cx="434.5" cy="434.6" r="0.86" fill="#26364F" fill-opacity="0.13"/><circle cx="569.4" cy="194.0" r="0.75" fill="#26364F" fill-opacity="0.13"/><circle cx="550.5" cy="48.2" r="0.45" fill="#26364F" fill-opacity="0.13"/><circle cx="642.0" cy="137.0" r="0.90" fill="#26364F" fill-opacity="0.13"/><circle cx="607.7" cy="435.9" r="0.90" fill="#26364F" fill-opacity="0.13"/><circle cx="551.4" cy="125.2" r="1.12" fill="#26364F" fill-opacity="0.13"/><circle cx="575.0" cy="367.6" r="0.57" fill="#26364F" fill-opacity="0.13"/><circle cx="688.2" cy="53.4" r="0.80" fill="#26364F" fill-opacity="0.13"/><circle cx="619.8" cy="16.1" r="0.92" fill="#26364F" fill-opacity="0.13"/><circle cx="750.5" cy="230.8" r="0.95" fill="#26364F" fill-opacity="0.13"/><circle cx="72.6" cy="41.3" r="1.05" fill="#26364F" fill-opacity="0.13"/><circle cx="457.6" cy="431.9" r="0.68" fill="#26364F" fill-opacity="0.13"/><circle cx="475.9" cy="10.0" r="1.09" fill="#26364F" fill-opacity="0.13"/><circle cx="648.0" cy="126.3" r="0.99" fill="#26364F" fill-opacity="0.13"/><circle cx="82.5" cy="407.6" r="0.69" fill="#26364F" fill-opacity="0.13"/><circle cx="465.2" cy="41.0" r="1.03" fill="#26364F" fill-opacity="0.13"/><circle cx="286.0" cy="37.4" r="1.19" fill="#26364F" fill-opacity="0.13"/><circle cx="307.8" cy="355.9" r="0.80" fill="#26364F" fill-opacity="0.13"/><circle cx="116.3" cy="488.3" r="0.85" fill="#26364F" fill-opacity="0.13"/><circle cx="717.8" cy="344.6" r="0.79" fill="#26364F" fill-opacity="0.13"/><circle cx="281.7" cy="41.3" r="0.44" fill="#26364F" fill-opacity="0.13"/><circle cx="553.2" cy="350.4" r="1.20" fill="#26364F" fill-opacity="0.13"/><circle cx="735.6" cy="41.7" r="0.43" fill="#26364F" fill-opacity="0.13"/><circle cx="352.7" cy="20.0" r="0.42" fill="#26364F" fill-opacity="0.13"/><circle cx="518.6" cy="36.9" r="0.93" fill="#26364F" fill-opacity="0.13"/><circle cx="422.9" cy="66.4" r="0.40" fill="#26364F" fill-opacity="0.13"/><circle cx="646.4" cy="35.2" r="0.60" fill="#26364F" fill-opacity="0.13"/><circle cx="319.8" cy="109.8" r="0.52" fill="#26364F" fill-opacity="0.13"/><circle cx="459.6" cy="338.1" r="0.86" fill="#26364F" fill-opacity="0.13"/><circle cx="88.4" cy="94.1" r="0.92" fill="#26364F" fill-opacity="0.13"/><circle cx="63.1" cy="33.0" r="0.42" fill="#26364F" fill-opacity="0.13"/><circle cx="474.1" cy="340.6" r="0.54" fill="#26364F" fill-opacity="0.13"/><circle cx="248.1" cy="285.1" r="0.84" fill="#26364F" fill-opacity="0.13"/><circle cx="96.7" cy="315.2" r="0.96" fill="#26364F" fill-opacity="0.13"/><circle cx="331.6" cy="299.9" r="1.20" fill="#26364F" fill-opacity="0.13"/><circle cx="638.2" cy="356.2" r="0.57" fill="#26364F" fill-opacity="0.13"/><circle cx="224.2" cy="246.9" r="1.07" fill="#26364F" fill-opacity="0.13"/><circle cx="198.0" cy="295.9" r="1.17" fill="#26364F" fill-opacity="0.13"/><circle cx="565.5" cy="411.3" r="0.98" fill="#26364F" fill-opacity="0.13"/><circle cx="166.2" cy="155.8" r="1.11" fill="#26364F" fill-opacity="0.13"/><circle cx="444.8" cy="243.5" r="1.11" fill="#26364F" fill-opacity="0.13"/><circle cx="486.3" cy="459.2" r="1.05" fill="#26364F" fill-opacity="0.13"/><circle cx="117.0" cy="439.5" r="0.68" fill="#26364F" fill-opacity="0.13"/><circle cx="462.9" cy="97.4" r="0.66" fill="#26364F" fill-opacity="0.13"/><circle cx="422.6" cy="132.2" r="0.49" fill="#26364F" fill-opacity="0.13"/><circle cx="745.4" cy="433.0" r="1.07" fill="#26364F" fill-opacity="0.13"/><circle cx="750.4" cy="139.8" r="0.59" fill="#26364F" fill-opacity="0.13"/><circle cx="328.1" cy="407.4" r="1.11" fill="#26364F" fill-opacity="0.13"/><circle cx="707.6" cy="44.3" r="0.87" fill="#26364F" fill-opacity="0.13"/><circle cx="347.2" cy="88.9" r="0.85" fill="#26364F" fill-opacity="0.13"/><circle cx="354.5" cy="199.5" r="0.93" fill="#26364F" fill-opacity="0.13"/><circle cx="235.5" cy="104.6" r="0.77" fill="#26364F" fill-opacity="0.13"/><circle cx="366.1" cy="2.6" r="1.17" fill="#26364F" fill-opacity="0.13"/><circle cx="203.7" cy="272.8" r="0.59" fill="#26364F" fill-opacity="0.13"/><circle cx="209.9" cy="414.2" r="1.01" fill="#26364F" fill-opacity="0.13"/><circle cx="632.7" cy="198.3" r="0.46" fill="#26364F" fill-opacity="0.13"/><circle cx="673.0" cy="175.6" r="0.69" fill="#26364F" fill-opacity="0.13"/><circle cx="411.2" cy="315.2" r="1.01" fill="#26364F" fill-opacity="0.13"/><circle cx="368.7" cy="54.7" r="0.92" fill="#26364F" fill-opacity="0.13"/><circle cx="736.0" cy="281.6" r="0.46" fill="#26364F" fill-opacity="0.13"/><circle cx="307.1" cy="225.1" r="0.70" fill="#26364F" fill-opacity="0.13"/><circle cx="175.1" cy="443.5" r="1.14" fill="#26364F" fill-opacity="0.13"/><circle cx="475.1" cy="385.0" r="0.81" fill="#26364F" fill-opacity="0.13"/><circle cx="681.5" cy="221.0" r="0.95" fill="#26364F" fill-opacity="0.13"/><circle cx="84.8" cy="199.7" r="0.94" fill="#26364F" fill-opacity="0.13"/><circle cx="529.7" cy="98.3" r="0.81" fill="#26364F" fill-opacity="0.13"/><circle cx="666.4" cy="166.2" r="1.12" fill="#26364F" fill-opacity="0.13"/><circle cx="596.9" cy="206.7" r="0.85" fill="#26364F" fill-opacity="0.13"/><circle cx="270.7" cy="463.9" r="0.62" fill="#26364F" fill-opacity="0.13"/><circle cx="513.7" cy="378.4" r="1.09" fill="#26364F" fill-opacity="0.13"/><circle cx="233.1" cy="352.4" r="0.60" fill="#26364F" fill-opacity="0.13"/><circle cx="218.0" cy="414.8" r="1.08" fill="#26364F" fill-opacity="0.13"/><circle cx="88.2" cy="33.0" r="0.74" fill="#26364F" fill-opacity="0.13"/><circle cx="687.5" cy="298.2" r="0.55" fill="#26364F" fill-opacity="0.13"/><circle cx="4.1" cy="399.0" r="1.06" fill="#26364F" fill-opacity="0.13"/><circle cx="241.5" cy="471.3" r="1.11" fill="#26364F" fill-opacity="0.13"/><circle cx="84.4" cy="332.9" r="0.42" fill="#26364F" fill-opacity="0.13"/><circle cx="701.2" cy="271.9" r="0.43" fill="#26364F" fill-opacity="0.13"/><circle cx="622.8" cy="485.3" r="1.05" fill="#26364F" fill-opacity="0.13"/><circle cx="223.0" cy="396.6" r="0.73" fill="#26364F" fill-opacity="0.13"/><circle cx="730.4" cy="329.6" r="1.15" fill="#26364F" fill-opacity="0.13"/><circle cx="420.7" cy="329.4" r="0.55" fill="#26364F" fill-opacity="0.13"/><circle cx="409.8" cy="309.7" r="0.56" fill="#26364F" fill-opacity="0.13"/><circle cx="682.3" cy="205.7" r="0.63" fill="#26364F" fill-opacity="0.13"/><circle cx="438.5" cy="312.8" r="0.55" fill="#26364F" fill-opacity="0.13"/><circle cx="602.9" cy="187.9" r="0.55" fill="#26364F" fill-opacity="0.13"/><circle cx="308.0" cy="180.6" r="0.58" fill="#26364F" fill-opacity="0.13"/><circle cx="547.9" cy="231.1" r="1.12" fill="#26364F" fill-opacity="0.13"/><circle cx="237.1" cy="164.5" r="0.52" fill="#26364F" fill-opacity="0.13"/><circle cx="595.6" cy="7.6" r="0.96" fill="#26364F" fill-opacity="0.13"/><circle cx="724.2" cy="402.7" r="1.15" fill="#26364F" fill-opacity="0.13"/><circle cx="60.9" cy="230.0" r="0.45" fill="#26364F" fill-opacity="0.13"/><circle cx="234.3" cy="452.6" r="0.63" fill="#26364F" fill-opacity="0.13"/><circle cx="291.8" cy="276.7" r="0.47" fill="#26364F" fill-opacity="0.13"/><circle cx="240.4" cy="360.6" r="0.51" fill="#26364F" fill-opacity="0.13"/><circle cx="254.4" cy="58.3" r="1.17" fill="#26364F" fill-opacity="0.13"/><circle cx="487.0" cy="336.6" r="0.68" fill="#26364F" fill-opacity="0.13"/><circle cx="4.3" cy="51.0" r="0.76" fill="#26364F" fill-opacity="0.13"/><circle cx="304.6" cy="65.6" r="1.14" fill="#26364F" fill-opacity="0.13"/><circle cx="237.1" cy="418.5" r="1.02" fill="#26364F" fill-opacity="0.13"/><circle cx="96.6" cy="247.0" r="1.01" fill="#26364F" fill-opacity="0.13"/><circle cx="180.9" cy="258.4" r="0.90" fill="#26364F" fill-opacity="0.13"/><circle cx="577.1" cy="201.3" r="0.63" fill="#26364F" fill-opacity="0.13"/><circle cx="185.6" cy="188.4" r="0.80" fill="#26364F" fill-opacity="0.13"/><circle cx="138.5" cy="398.8" r="0.75" fill="#26364F" fill-opacity="0.13"/><circle cx="346.3" cy="326.3" r="1.14" fill="#26364F" fill-opacity="0.13"/><circle cx="485.9" cy="30.4" r="0.67" fill="#26364F" fill-opacity="0.13"/><circle cx="236.2" cy="114.9" r="0.85" fill="#26364F" fill-opacity="0.13"/><circle cx="283.8" cy="198.7" r="0.61" fill="#26364F" fill-opacity="0.13"/><circle cx="194.2" cy="218.4" r="0.93" fill="#26364F" fill-opacity="0.13"/><circle cx="9.1" cy="442.7" r="1.15" fill="#26364F" fill-opacity="0.13"/><circle cx="620.9" cy="486.1" r="0.83" fill="#26364F" fill-opacity="0.13"/><circle cx="416.9" cy="69.7" r="0.56" fill="#26364F" fill-opacity="0.13"/><circle cx="753.4" cy="244.6" r="0.65" fill="#26364F" fill-opacity="0.13"/><circle cx="175.9" cy="44.1" r="0.55" fill="#26364F" fill-opacity="0.13"/><circle cx="272.3" cy="379.0" r="1.09" fill="#26364F" fill-opacity="0.13"/><circle cx="184.2" cy="227.9" r="0.75" fill="#26364F" fill-opacity="0.13"/><circle cx="556.1" cy="89.9" r="0.73" fill="#26364F" fill-opacity="0.13"/><circle cx="517.8" cy="16.6" r="0.84" fill="#26364F" fill-opacity="0.13"/><circle cx="371.9" cy="61.1" r="0.60" fill="#26364F" fill-opacity="0.13"/><circle cx="39.3" cy="126.1" r="0.73" fill="#26364F" fill-opacity="0.13"/><circle cx="48.4" cy="303.1" r="0.58" fill="#26364F" fill-opacity="0.13"/><circle cx="64.8" cy="321.3" r="0.48" fill="#26364F" fill-opacity="0.13"/><circle cx="330.8" cy="332.5" r="0.62" fill="#26364F" fill-opacity="0.13"/><circle cx="273.7" cy="298.6" r="0.94" fill="#26364F" fill-opacity="0.13"/><circle cx="692.0" cy="175.2" r="0.59" fill="#26364F" fill-opacity="0.13"/><circle cx="512.6" cy="8.1" r="0.94" fill="#26364F" fill-opacity="0.13"/><circle cx="5.8" cy="285.7" r="1.13" fill="#26364F" fill-opacity="0.13"/><circle cx="400.5" cy="2.5" r="0.73" fill="#26364F" fill-opacity="0.13"/><circle cx="727.2" cy="139.6" r="1.14" fill="#26364F" fill-opacity="0.13"/><circle cx="230.3" cy="401.0" r="0.64" fill="#26364F" fill-opacity="0.13"/><circle cx="117.7" cy="25.2" r="1.02" fill="#26364F" fill-opacity="0.13"/><circle cx="642.5" cy="334.8" r="0.75" fill="#26364F" fill-opacity="0.13"/><circle cx="699.9" cy="416.0" r="0.94" fill="#26364F" fill-opacity="0.13"/><circle cx="757.8" cy="430.1" r="0.58" fill="#26364F" fill-opacity="0.13"/><circle cx="49.6" cy="128.0" r="0.70" fill="#26364F" fill-opacity="0.13"/><circle cx="351.7" cy="68.2" r="1.17" fill="#26364F" fill-opacity="0.13"/><circle cx="82.6" cy="348.3" r="1.01" fill="#26364F" fill-opacity="0.13"/><circle cx="711.1" cy="286.7" r="0.68" fill="#26364F" fill-opacity="0.13"/><circle cx="343.5" cy="299.9" r="0.75" fill="#26364F" fill-opacity="0.13"/><circle cx="697.9" cy="245.3" r="0.79" fill="#26364F" fill-opacity="0.13"/><circle cx="270.9" cy="19.4" r="0.88" fill="#26364F" fill-opacity="0.13"/><circle cx="49.0" cy="49.6" r="0.56" fill="#26364F" fill-opacity="0.13"/><circle cx="181.0" cy="461.8" r="0.47" fill="#26364F" fill-opacity="0.13"/><circle cx="428.3" cy="361.6" r="2.01" fill="#26364F" fill-opacity="0.22"/><circle cx="61.2" cy="36.9" r="1.25" fill="#26364F" fill-opacity="0.22"/><circle cx="346.3" cy="388.0" r="2.45" fill="#26364F" fill-opacity="0.22"/><circle cx="436.1" cy="385.0" r="1.41" fill="#26364F" fill-opacity="0.22"/><circle cx="131.4" cy="248.8" r="2.03" fill="#26364F" fill-opacity="0.22"/><circle cx="649.2" cy="71.1" r="2.79" fill="#26364F" fill-opacity="0.22"/><circle cx="743.6" cy="337.9" r="2.63" fill="#26364F" fill-opacity="0.22"/><circle cx="26.8" cy="98.7" r="1.49" fill="#26364F" fill-opacity="0.22"/><circle cx="600.3" cy="359.5" r="1.55" fill="#26364F" fill-opacity="0.22"/><rect x="0" y="0" width="760" height="496" fill="none" stroke="#26364F" stroke-width="79.36" stroke-opacity="0.055"/><rect x="0" y="0" width="760" height="496" fill="none" stroke="#26364F" stroke-width="34.720000000000006" stroke-opacity="0.07"/><rect x="0" y="0" width="760" height="496" fill="none" stroke="#26364F" stroke-width="12.4" stroke-opacity="0.10"/></svg>