<svg xmlns="http://www.w3.org/2000/svg" viewBox="0 0 350 270"><defs><radialGradient id="g255"><stop offset="0" stop-color="#26364F" stop-opacity="0.14"/><stop offset="0.65" stop-color="#26364F" stop-opacity="0.077"/><stop offset="1" stop-color="#26364F" stop-opacity="0"/></radialGradient><radialGradient id="g256"><stop offset="0" stop-color="#26364F" stop-opacity="0.11"/><stop offset="0.65" stop-color="#26364F" stop-opacity="0.061"/><stop offset="1" stop-color="#26364F" stop-opacity="0"/></radialGradient><radialGradient id="g257"><stop offset="0" stop-color="#26364F" stop-opacity="0.16"/><stop offset="0.65" stop-color="#26364F" stop-opacity="0.088"/><stop offset="1" stop-color="#26364F" stop-opacity="0"/></radialGradient><radialGradient id="g258"><stop offset="0" stop-color="#26364F" stop-opacity="0.06"/><stop offset="0.65" stop-color="#26364F" stop-opacity="0.033"/><stop offset="1" stop-color="#26364F" stop-opacity="0"/></radialGradient></defs><rect width="350" height="270" fill="#26364F" fill-opacity="0.060"/><ellipse cx="94.46230246261803" cy="56.587513810992824" rx="147.0" ry="102.9" fill="url(#g255)"/><ellipse cx="317.0729452301894" cy="90.27420840767445" rx="126.0" ry="113.4" fill="url(#g256)"/><ellipse cx="175.0" cy="275.4" rx="192.50000000000003" ry="86.6" fill="url(#g257)"/><ellipse cx="182.62179389035737" cy="151.50188051319856" rx="175.0" ry="140.0" fill="url(#g258)"/><path d="M223.3 66.3 Q223.3 66.3 235.3 89.3 Q247.3 112.3 206.6 112.7 Q165.8 113.1 143.2 112.4 Q120.6 111.7 92.8 112.5 Q65.0 113.4 50.3 98.5 Q35.5 83.6 20.0 63.4 Q4.5 43.3 32.8 29.8 Q61.0 16.3 87.5 4.4 Q114.0 -7.5 139.3 6.7 Q164.7 21.0 201.8 22.2 Q239.0 23.5 231.1 44.9 Z" fill="#26364F" fill-opacity="0.035"/><rect x="0" y="0" width="350" height="270" rx="0" fill="#26364F" fill-opacity="0.045"/><path d="M60 250 V80 Q60 44 106 40 L244 40 Q290 44 290 80 V250" fill="none" stroke="#26364F" stroke-width="2.4" stroke-linecap="round" stroke-linejoin="round"/><path d="M60 250 V80 Q60 44 106 40 L244 40 Q290 44 290 80 V250 Z" fill="#26364F" fill-opacity="0.07"/><rect x="160" y="236" width="30" height="14" rx="0" fill="none" stroke="#26364F" stroke-width="1.8"/><rect x="105" y="96" width="140" height="108" rx="0" fill="#E9E4D8" fill-opacity="0.9"/><rect x="105" y="96" width="140" height="108" rx="0" fill="none" stroke="#26364F" stroke-width="1.6"/><path d="M105 132 q40 -8 70 4 t70 -6" fill="none" stroke="#26364F" stroke-width="1" stroke-linecap="round" stroke-linejoin="round"/><path d="M124 96 v108 M188 96 v108" fill="none" stroke="#26364F" stroke-width="0.7" stroke-linecap="round" stroke-linejoin="round" stroke-opacity="0.5"/><path d="M105 170 h140" fill="none" stroke="#26364F" stroke-width="0.7" stroke-linecap="round" stroke-linejoin="round" stroke-opacity="0.5"/><circle cx="146" cy="120" r="6" fill="#26364F" fill-opacity="0.85"/><circle cx="206" cy="148" r="6" fill="#26364F" fill-opacity="0.85"/><circle cx="170" cy="186" r="6" fill="#26364F" fill-opacity="0.85"/><ellipse cx="226" cy="191" rx="7" ry="4" fill="#A9762B" fill-opacity="0.9"/><path d="M226 187 v-3" fill="none" stroke="#A9762B" stroke-width="1.2" stroke-linecap="round" stroke-linejoin="round"/><path d="M60 40 L80 40" fill="none" stroke="#26364F" stroke-width="0.9" stroke-linecap="round" stroke-linejoin="round" stroke-opacity="0.2"/><path d="M68 40 L88 48" fill="none" stroke="#26364F" stroke-width="0.9" stroke-linecap="round" stroke-linejoin="round" stroke-opacity="0.2"/><path d="M76 40 L96 56" fill="none" stroke="#26364F" stroke-width="0.9" stroke-linecap="round" stroke-linejoin="round" stroke-opacity="0.2"/><path d="M84 40 L104 64" fill="none" stroke="#26364F" stroke-width="0.9" stroke-linecap="round" stroke-linejoin="round" stroke-opacity="0.2"/><path d="M92 40 L112 72" fill="none" stroke="#26364F" stroke-width="0.9" stroke-linecap="round" stroke-linejoin="round" stroke-opacity="0.2"/><path d="M100 40 L120 80" fill="none" stroke="#26364F" stroke-width="0.9" stroke-linecap="round" stroke-linejoin="round" stroke-opacity="0.2"/><path d="M106 42 L128 80" fill="none" stroke="#26364F" stroke-width="0.9" stroke-linecap="round" stroke-linejoin="round" stroke-opacity="0.2"/><path d="M106 50 L136 80" fill="none" stroke="#26364F" stroke-width="0.9" stroke-linecap="round" stroke-linejoin="round" stroke-opacity="0.2"/><path d="M106 58 L144 80" fill="none" stroke="#26364F" stroke-width="0.9" stroke-linecap="round" stroke-linejoin="round" stroke-opacity="0.2"/><path d="M106 66 L152 80" fill="none" stroke="#26364F" stroke-width="0.9" stroke-linecap="round" stroke-linejoin="round" stroke-opacity="0.2"/><path d="M106 74 L160 80" fill="none" stroke="#26364F" stroke-width="0.9" stroke-linecap="round" stroke-linejoin="round" stroke-opacity="0.2"/><path d="M244 40 L448 40" fill="none" stroke="#26364F" stroke-width="0.9" stroke-linecap="round" stroke-linejoin="round" stroke-opacity="0.2"/><path d="M252 40 L456 48" fill="none" stroke="#26364F" stroke-width="0.9" stroke-linecap="round" stroke-linejoin="round" stroke-opacity="0.2"/><path d="M260 40 L464 56" fill="none" stroke="#26364F" stroke-width="0.9" stroke-linecap="round" stroke-linejoin="round" stroke-opacity="0.2"/><path d="M268 40 L472 64" fill="none" stroke="#26364F" stroke-width="0.9" stroke-linecap="round" stroke-linejoin="round" stroke-opacity="0.2"/><path d="M276 40 L480 72" fill="none" stroke="#26364F" stroke-width="0.9" stroke-linecap="round" stroke-linejoin="round" stroke-opacity="0.2"/><path d="M284 40 L488 80" fill="none" stroke="#26364F" stroke-width="0.9" stroke-linecap="round" stroke-linejoin="round" stroke-opacity="0.2"/><path d="M290 42 L496 80" fill="none" stroke="#26364F" stroke-width="0.9" stroke-linecap="round" stroke-linejoin="round" stroke-opacity="0.2"/><path d="M290 50 L504 80" fill="none" stroke="#26364F" stroke-width="0.9" stroke-linecap="round" stroke-linejoin="round" stroke-opacity="0.2"/><path d="M290 58 L512 80" fill="none" stroke="#26364F" stroke-width="0.9" stroke-linecap="round" stroke-linejoin="round" stroke-opacity="0.2"/><path d="M290 66 L520 80" fill="none" stroke="#26364F" stroke-width="0.9" stroke-linecap="round" stroke-linejoin="round" stroke-opacity="0.2"/><path d="M290 74 L528 80" fill="none" stroke="#26364F" stroke-width="0.9" stroke-linecap="round" stroke-linejoin="round" stroke-opacity="0.2"/><circle cx="210.8" cy="115.2" r="0.88" fill="#26364F" fill-opacity="0.13"/><circle cx="151.5" cy="82.6" r="0.67" fill="#26364F" fill-opacity="0.13"/><circle cx="70.0" cy="23.7" r="1.13" fill="#26364F" fill-opacity="0.13"/><circle cx="179.2" cy="99.4" r="1.14" fill="#26364F" fill-opacity="0.13"/><circle cx="250.9" cy="139.2" r="0.70" fill="#26364F" fill-opacity="0.13"/><circle cx="214.0" cy="132.5" r="1.20" fill="#26364F" fill-opacity="0.13"/><circle cx="107.5" cy="94.3" r="1.19" fill="#26364F" fill-opacity="0.13"/><circle cx="58.1" cy="16.0" r="0.44" fill="#26364F" fill-opacity="0.13"/><circle cx="106.6" cy="17.2" r="0.82" fill="#26364F" fill-opacity="0.13"/><circle cx="138.0" cy="46.1" r="0.50" fill="#26364F" fill-opacity="0.13"/><circle cx="314.1" cy="168.6" r="0.99" fill="#26364F" fill-opacity="0.13"/><circle cx="183.4" cy="264.5" r="0.88" fill="#26364F" fill-opacity="0.13"/><circle cx="264.8" cy="26.9" r="0.73" fill="#26364F" fill-opacity="0.13"/><circle cx="221.8" cy="117.6" r="0.72" fill="#26364F" fill-opacity="0.13"/><circle cx="114.8" cy="143.6" r="0.60" fill="#26364F" fill-opacity="0.13"/><circle cx="239.8" cy="12.3" r="0.83" fill="#26364F" fill-opacity="0.13"/><circle cx="335.6" cy="105.7" r="0.43" fill="#26364F" fill-opacity="0.13"/><circle cx="283.1" cy="60.5" r="0.81" fill="#26364F" fill-opacity="0.13"/><circle cx="207.3" cy="239.3" r="0.70" fill="#26364F" fill-opacity="0.13"/><circle cx="92.7" cy="216.1" r="0.74" fill="#26364F" fill-opacity="0.13"/><circle cx="172.2" cy="126.0" r="0.62" fill="#26364F" fill-opacity="0.13"/><circle cx="246.9" cy="197.8" r="1.00" fill="#26364F" fill-opacity="0.13"/><circle cx="111.8" cy="231.0" r="1.19" fill="#26364F" fill-opacity="0.13"/><circle cx="145.7" cy="171.3" r="1.02" fill="#26364F" fill-opacity="0.13"/><circle cx="327.1" cy="33.0" r="0.66" fill="#26364F" fill-opacity="0.13"/><circle cx="29.7" cy="259.4" r="0.51" fill="#26364F" fill-opacity="0.13"/><circle cx="172.5" cy="10.9" r="0.45" fill="#26364F" fill-opacity="0.13"/><circle cx="125.4" cy="10.5" r="0.55" fill="#26364F" fill-opacity="0.13"/><circle cx="268.0" cy="133.2" r="0.87" fill="#26364F" fill-opacity="0.13"/><circle cx="13.7" cy="74.9" r="0.71" fill="#26364F" fill-opacity="0.13"/><circle cx="37.2" cy="100.9" r="1.16" fill="#26364F" fill-opacity="0.13"/><circle cx="74.3" cy="239.5" r="1.08" fill="#26364F" fill-opacity="0.13"/><circle cx="19.0" cy="193.1" r="0.58" fill="#26364F" fill-opacity="0.13"/><circle cx="347.1" cy="174.9" r="0.80" fill="#26364F" fill-opacity="0.13"/><circle cx="83.4" cy="156.8" r="0.65" fill="#26364F" fill-opacity="0.13"/><circle cx="313.2" cy="147.1" r="0.68" fill="#26364F" fill-opacity="0.13"/><circle cx="310.1" cy="182.7" r="1.16" fill="#26364F" fill-opacity="0.13"/><circle cx="70.2" cy="214.2" r="0.45" fill="#26364F" fill-opacity="0.13"/><circle cx="320.6" cy="5.2" r="1.05" fill="#26364F" fill-opacity="0.13"/><circle cx="6.1" cy="254.4" r="0.82" fill="#26364F" fill-opacity="0.13"/><circle cx="59.0" cy="141.9" r="0.52" fill="#26364F" fill-opacity="0.13"/><circle cx="83.9" cy="104.6" r="1.09" fill="#26364F" fill-opacity="0.13"/><circle cx="288.1" cy="39.3" r="0.92" fill="#26364F" fill-opacity="0.13"/><circle cx="52.4" cy="3.2" r="0.59" fill="#26364F" fill-opacity="0.13"/><circle cx="146.8" cy="115.1" r="0.86" fill="#26364F" fill-opacity="0.13"/><circle cx="41.2" cy="27.8" r="0.90" fill="#26364F" fill-opacity="0.13"/><circle cx="35.7" cy="219.3" r="0.59" fill="#26364F" fill-opacity="0.13"/><circle cx="258.0" cy="225.9" r="1.06" fill="#26364F" fill-opacity="0.13"/><circle cx="269.0" cy="41.9" r="1.02" fill="#26364F" fill-opacity="0.13"/><circle cx="263.7" cy="79.5" r="0.53" fill="#26364F" fill-opacity="0.13"/><circle cx="236.1" cy="151.6" r="1.18" fill="#26364F" fill-opacity="0.13"/><circle cx="124.7" cy="101.0" r="1.00" fill="#26364F" fill-opacity="0.13"/><circle cx="268.8" cy="221.0" r="0.66" fill="#26364F" fill-opacity="0.13"/><circle cx="262.2" cy="177.8" r="0.62" fill="#26364F" fill-opacity="0.13"/><circle cx="215.5" cy="182.1" r="1.10" fill="#26364F" fill-opacity="0.13"/><circle cx="139.2" cy="36.8" r="0.63" fill="#26364F" fill-opacity="0.13"/><circle cx="82.1" cy="58.7" r="1.01" fill="#26364F" fill-opacity="0.13"/><circle cx="330.7" cy="122.7" r="0.67" fill="#26364F" fill-opacity="0.13"/><circle cx="184.1" cy="259.4" r="0.84" fill="#26364F" fill-opacity="0.13"/><circle cx="145.3" cy="37.4" r="1.13" fill="#26364F" fill-opacity="0.13"/><circle cx="123.8" cy="190.4" r="1.08" fill="#26364F" fill-opacity="0.13"/><circle cx="5.5" cy="164.2" r="0.57" fill="#26364F" fill-opacity="0.13"/><circle cx="220.2" cy="16.7" r="0.70" fill="#26364F" fill-opacity="0.13"/><circle cx="167.2" cy="5.8" r="0.58" fill="#26364F" fill-opacity="0.13"/><circle cx="53.3" cy="33.9" r="1.14" fill="#26364F" fill-opacity="0.13"/><circle cx="170.8" cy="86.2" r="0.85" fill="#26364F" fill-opacity="0.13"/><circle cx="140.0" cy="20.3" r="0.79" fill="#26364F" fill-opacity="0.13"/><circle cx="84.2" cy="78.7" r="1.00" fill="#26364F" fill-opacity="0.13"/><circle cx="9.7" cy="110.6" r="0.90" fill="#26364F" fill-opacity="0.13"/><circle cx="181.7" cy="27.7" r="1.19" fill="#26364F" fill-opacity="0.13"/><circle cx="191.7" cy="253.1" r="0.81" fill="#26364F" fill-opacity="0.13"/><circle cx="324.3" cy="73.1" r="0.68" fill="#26364F" fill-opacity="0.13"/><circle cx="181.0" cy="208.8" r="0.60" fill="#26364F" fill-opacity="0.13"/><circle cx="329.8" cy="100.0" r="0.85" fill="#26364F" fill-opacity="0.13"/><circle cx="208.5" cy="224.8" r="0.77" fill="#26364F" fill-opacity="0.13"/><circle cx="127.8" cy="157.3" r="1.15" fill="#26364F" fill-opacity="0.13"/><circle cx="9.7" cy="214.8" r="1.00" fill="#26364F" fill-opacity="0.13"/><circle cx="149.3" cy="101.3" r="0.66" fill="#26364F" fill-opacity="0.13"/><circle cx="161.5" cy="18.9" r="0.61" fill="#26364F" fill-opacity="0.13"/><circle cx="157.2" cy="102.9" r="0.61" fill="#26364F" fill-opacity="0.13"/><circle cx="168.7" cy="45.6" r="0.96" fill="#26364F" fill-opacity="0.13"/><circle cx="132.9" cy="39.8" r="0.44" fill="#26364F" fill-opacity="0.13"/><circle cx="290.5" cy="218.8" r="0.79" fill="#26364F" fill-opacity="0.13"/><circle cx="320.8" cy="231.1" r="0.76" fill="#26364F" fill-opacity="0.13"/><circle cx="319.8" cy="0.1" r="0.96" fill="#26364F" fill-opacity="0.13"/><circle cx="100.2" cy="224.4" r="0.96" fill="#26364F" fill-opacity="0.13"/><circle cx="314.6" cy="268.5" r="1.19" fill="#26364F" fill-opacity="0.13"/><circle cx="20.0" cy="206.6" r="0.55" fill="#26364F" fill-opacity="0.13"/><circle cx="106.1" cy="132.2" r="0.63" fill="#26364F" fill-opacity="0.13"/><circle cx="262.3" cy="143.8" r="0.80" fill="#26364F" fill-opacity="0.13"/><circle cx="219.5" cy="60.3" r="0.70" fill="#26364F" fill-opacity="0.13"/><circle cx="159.6" cy="180.4" r="0.66" fill="#26364F" fill-opacity="0.13"/><circle cx="15.8" cy="41.5" r="1.07" fill="#26364F" fill-opacity="0.13"/><circle cx="84.6" cy="61.8" r="0.92" fill="#26364F" fill-opacity="0.13"/><circle cx="192.1" cy="149.1" r="0.52" fill="#26364F" fill-opacity="0.13"/><circle cx="278.4" cy="139.3" r="1.05" fill="#26364F" fill-opacity="0.13"/><circle cx="58.1" cy="55.5" r="0.70" fill="#26364F" fill-opacity="0.13"/><circle cx="235.0" cy="27.3" r="0.91" fill="#26364F" fill-opacity="0.13"/><circle cx="324.7" cy="106.5" r="0.63" fill="#26364F" fill-opacity="0.13"/><circle cx="164.2" cy="194.0" r="0.47" fill="#26364F" fill-opacity="0.13"/><circle cx="52.6" cy="95.0" r="0.66" fill="#26364F" fill-opacity="0.13"/><circle cx="178.9" cy="120.9" r="1.14" fill="#26364F" fill-opacity="0.13"/><circle cx="116.1" cy="244.7" r="0.80" fill="#26364F" fill-opacity="0.13"/><circle cx="316.3" cy="207.7" r="0.89" fill="#26364F" fill-opacity="0.13"/><circle cx="189.3" cy="184.8" r="0.55" fill="#26364F" fill-opacity="0.13"/><circle cx="124.5" cy="253.5" r="0.55" fill="#26364F" fill-opacity="0.13"/><circle cx="228.7" cy="104.7" r="0.95" fill="#26364F" fill-opacity="0.13"/><circle cx="245.7" cy="229.6" r="0.87" fill="#26364F" fill-opacity="0.13"/><circle cx="60.5" cy="115.3" r="0.64" fill="#26364F" fill-opacity="0.13"/><circle cx="253.1" cy="268.6" r="1.03" fill="#26364F" fill-opacity="0.13"/><circle cx="246.8" cy="137.2" r="0.43" fill="#26364F" fill-opacity="0.13"/><circle cx="182.8" cy="138.5" r="0.91" fill="#26364F" fill-opacity="0.13"/><circle cx="174.5" cy="179.6" r="0.54" fill="#26364F" fill-opacity="0.13"/><circle cx="131.8" cy="147.9" r="0.76" fill="#26364F" fill-opacity="0.13"/><circle cx="288.5" cy="41.1" r="0.46" fill="#26364F" fill-opacity="0.13"/><circle cx="199.4" cy="166.5" r="0.99" fill="#26364F" fill-opacity="0.13"/><circle cx="148.5" cy="29.6" r="0.65" fill="#26364F" fill-opacity="0.13"/><circle cx="77.2" cy="178.5" r="1.03" fill="#26364F" fill-opacity="0.13"/><circle cx="282.6" cy="68.8" r="1.10" fill="#26364F" fill-opacity="0.13"/><circle cx="172.9" cy="150.2" r="1.18" fill="#26364F" fill-opacity="0.13"/><circle cx="306.4" cy="78.7" r="0.44" fill="#26364F" fill-opacity="0.13"/><circle cx="282.8" cy="211.2" r="0.69" fill="#26364F" fill-opacity="0.13"/><circle cx="73.8" cy="66.1" r="1.01" fill="#26364F" fill-opacity="0.13"/><circle cx="250.1" cy="37.6" r="0.74" fill="#26364F" fill-opacity="0.13"/><circle cx="133.9" cy="55.5" r="0.54" fill="#26364F" fill-opacity="0.13"/><circle cx="8.3" cy="253.0" r="0.58" fill="#26364F" fill-opacity="0.13"/><circle cx="284.0" cy="86.1" r="1.11" fill="#26364F" fill-opacity="0.13"/><circle cx="168.5" cy="88.9" r="0.60" fill="#26364F" fill-opacity="0.13"/><circle cx="26.6" cy="104.6" r="0.62" fill="#26364F" fill-opacity="0.13"/><circle cx="312.3" cy="91.4" r="0.74" fill="#26364F" fill-opacity="0.13"/><circle cx="5.2" cy="30.5" r="0.66" fill="#26364F" fill-opacity="0.13"/><circle cx="21.5" cy="159.3" r="0.69" fill="#26364F" fill-opacity="0.13"/><circle cx="193.8" cy="173.2" r="1.17" fill="#26364F" fill-opacity="0.13"/><circle cx="106.5" cy="40.2" r="1.02" fill="#26364F" fill-opacity="0.13"/><circle cx="291.2" cy="229.9" r="1.11" fill="#26364F" fill-opacity="0.13"/><circle cx="217.9" cy="266.8" r="1.15" fill="#26364F" fill-opacity="0.13"/><circle cx="305.2" cy="241.2" r="0.59" fill="#26364F" fill-opacity="0.13"/><circle cx="339.0" cy="123.3" r="0.46" fill="#26364F" fill-opacity="0.13"/><circle cx="239.0" cy="166.9" r="0.93" fill="#26364F" fill-opacity="0.13"/><circle cx="137.6" cy="173.6" r="1.09" fill="#26364F" fill-opacity="0.13"/><circle cx="104.9" cy="198.9" r="0.84" fill="#26364F" fill-opacity="0.13"/><circle cx="112.4" cy="261.0" r="0.44" fill="#26364F" fill-opacity="0.13"/><circle cx="262.8" cy="147.1" r="0.44" fill="#26364F" fill-opacity="0.13"/><circle cx="259.3" cy="141.9" r="0.46" fill="#26364F" fill-opacity="0.13"/><circle cx="118.7" cy="109.4" r="0.69" fill="#26364F" fill-opacity="0.13"/><circle cx="280.6" cy="147.7" r="0.73" fill="#26364F" fill-opacity="0.13"/><circle cx="293.7" cy="194.3" r="1.03" fill="#26364F" fill-opacity="0.13"/><circle cx="51.5" cy="252.8" r="0.78" fill="#26364F" fill-opacity="0.13"/><circle cx="102.5" cy="72.4" r="0.45" fill="#26364F" fill-opacity="0.13"/><circle cx="120.3" cy="175.7" r="0.79" fill="#26364F" fill-opacity="0.13"/><circle cx="342.7" cy="59.6" r="0.71" fill="#26364F" fill-opacity="0.13"/><circle cx="326.4" cy="209.4" r="0.81" fill="#26364F" fill-opacity="0.13"/><circle cx="20.3" cy="259.9" r="1.10" fill="#26364F" fill-opacity="0.22"/><circle cx="46.1" cy="33.9" r="2.38" fill="#26364F" fill-opacity="0.22"/><circle cx="325.6" cy="119.4" r="1.53" fill="#26364F" fill-opacity="0.22"/><circle cx="20.7" cy="129.9" r="1.11" fill="#26364F" fill-opacity="0.22"/><circle cx="111.8" cy="79.3" r="1.52" fill="#26364F" fill-opacity="0.22"/><circle cx="231.5" cy="178.4" r="1.98" fill="#26364F" fill-opacity="0.22"/><circle cx="316.2" cy="204.3" r="1.66" fill="#26364F" fill-opacity="0.22"/><circle cx="29.9" cy="140.4" r="2.17" fill="#26364F" fill-opacity="0.22"/><circle cx="154.6" cy="105.7" r="2.19" fill="#26364F" fill-opacity="0.22"/><rect x="0" y="0" width="350" height="270" fill="none" stroke="#26364F" stroke-width="43.2" stroke-opacity="0.055"/><rect x="0" y="0" width="350" height="270" fill="none" stroke="#26364F" stroke-width="18.900000000000002" stroke-opacity="0.07"/><rect x="0" y="0" width="350" height="270" fill="none" stroke="#26364F" stroke-width="6.75" stroke-opacity="0.10"/></svg>