<svg xmlns="http://www.w3.org/2000/svg" viewBox="0 0 350 270"><rect x="0" y="0" width="350" height="270" rx="0" fill="#26364F" fill-opacity="0.045"/><rect x="236" y="52" width="76" height="74" rx="0" fill="none" stroke="#26364F" stroke-width="1.8"/><rect x="236" y="52" width="76" height="18" rx="0" fill="#A9762B" fill-opacity="0.5"/><rect x="236" y="70" width="76" height="18" rx="0" fill="#A9762B" fill-opacity="0.28"/><rect x="236" y="88" width="76" height="20" rx="0" fill="#26364F" fill-opacity="0.18"/><rect x="236" y="108" width="76" height="18" rx="0" fill="#26364F" fill-opacity="0.4"/><circle cx="80" cy="78" r="22" fill="none" stroke="#26364F" stroke-width="1.8"/><path d="M80 78 v-13 M80 78 h9" fill="none" stroke="#26364F" stroke-width="1.6" stroke-linecap="round" stroke-linejoin="round"/><circle cx="80" cy="78" r="2" fill="#26364F"/><path d="M30 176 H320 V250 H30 Z" fill="#26364F" fill-opacity="0.12"/><path d="M30 176 H320" fill="none" stroke="#26364F" stroke-width="2.2" stroke-linecap="round" stroke-linejoin="round"/><path d="M133.68 176 Q131.232 126.08 141.84 108.80000000000001 Q150 101.12 158.16 108.80000000000001 Q168.768 126.08 166.32 176 Z" fill="#26364F" fill-opacity="0.85"/><circle cx="150" cy="89.12" r="9.120000000000001" fill="#26364F" fill-opacity="0.85"/><rect x="212" y="168" width="64" height="9" rx="0" fill="#E9E4D8" fill-opacity="0.95"/><rect x="212" y="168" width="64" height="9" rx="0" fill="none" stroke="#26364F" stroke-width="0.9"/><rect x="214" y="159" width="64" height="9" rx="0" fill="#E9E4D8" fill-opacity="0.95"/><rect x="214" y="159" width="64" height="9" rx="0" fill="none" stroke="#26364F" stroke-width="0.9"/><rect x="216" y="150" width="64" height="9" rx="0" fill="#E9E4D8" fill-opacity="0.95"/><rect x="216" y="150" width="64" height="9" rx="0" fill="none" stroke="#26364F" stroke-width="0.9"/><rect x="212" y="141" width="64" height="9" rx="0" fill="#E9E4D8" fill-opacity="0.95"/><rect x="212" y="141" width="64" height="9" rx="0" fill="none" stroke="#26364F" stroke-width="0.9"/><rect x="214" y="132" width="64" height="9" rx="0" fill="#E9E4D8" fill-opacity="0.95"/><rect x="214" y="132" width="64" height="9" rx="0" fill="none" stroke="#26364F" stroke-width="0.9"/><rect x="216" y="123" width="64" height="9" rx="0" fill="#E9E4D8" fill-opacity="0.95"/><rect x="216" y="123" width="64" height="9" rx="0" fill="none" stroke="#26364F" stroke-width="0.9"/><rect x="212" y="114" width="64" height="9" rx="0" fill="#E9E4D8" fill-opacity="0.95"/><rect x="212" y="114" width="64" height="9" rx="0" fill="none" stroke="#26364F" stroke-width="0.9"/><rect x="214" y="105" width="64" height="9" rx="0" fill="#E9E4D8" fill-opacity="0.95"/><rect x="214" y="105" width="64" height="9" rx="0" fill="none" stroke="#26364F" stroke-width="0.9"/><rect x="216" y="96" width="64" height="9" rx="0" fill="#E9E4D8" fill-opacity="0.95"/><rect x="216" y="96" width="64" height="9" rx="0" fill="none" stroke="#26364F" stroke-width="0.9"/><rect x="212" y="87" width="64" height="9" rx="0" fill="#E9E4D8" fill-opacity="0.95"/><rect x="212" y="87" width="64" height="9" rx="0" fill="none" stroke="#26364F" stroke-width="0.9"/><rect x="214" y="78" width="64" height="9" rx="0" fill="#E9E4D8" fill-opacity="0.95"/><rect x="214" y="78" width="64" height="9" rx="0" fill="none" stroke="#26364F" stroke-width="0.9"/><rect x="216" y="69" width="64" height="9" rx="0" fill="#E9E4D8" fill-opacity="0.95"/><rect x="216" y="69" width="64" height="9" rx="0" fill="none" stroke="#26364F" stroke-width="0.9"/><rect x="212" y="60" width="64" height="9" rx="0" fill="#E9E4D8" fill-opacity="0.95"/><rect x="212" y="60" width="64" height="9" rx="0" fill="none" stroke="#26364F" stroke-width="0.9"/><rect x="214" y="51" width="64" height="9" rx="0" fill="#E9E4D8" fill-opacity="0.95"/><rect x="214" y="51" width="64" height="9" rx="0" fill="none" stroke="#26364F" stroke-width="0.9"/></svg>