<svg xmlns="http://www.w3.org/2000/svg" viewBox="0 0 350 270"><rect x="0" y="0" width="350" height="270" rx="0" fill="#26364F" fill-opacity="0.045"/><rect x="28" y="48" width="44" height="58" rx="0" fill="none" stroke="#26364F" stroke-width="1.6"/><path d="M40 100 Q50 78 60 100 Z" fill="#26364F" fill-opacity="0.5"/><circle cx="50" cy="72" r="7" fill="#26364F" fill-opacity="0.5"/><rect x="92" y="48" width="44" height="58" rx="0" fill="none" stroke="#26364F" stroke-width="1.6"/><path d="M104 100 Q114 78 124 100 Z" fill="#26364F" fill-opacity="0.5"/><circle cx="114" cy="72" r="7" fill="#26364F" fill-opacity="0.5"/><rect x="156" y="48" width="44" height="58" rx="0" fill="none" stroke="#26364F" stroke-width="1.6"/><path d="M168 100 Q178 78 188 100 Z" fill="#26364F" fill-opacity="0.5"/><circle cx="178" cy="72" r="7" fill="#26364F" fill-opacity="0.5"/><rect x="220" y="48" width="44" height="58" rx="0" fill="none" stroke="#26364F" stroke-width="1.6"/><path d="M232 100 Q242 78 252 100 Z" fill="#26364F" fill-opacity="0.5"/><circle cx="242" cy="72" r="7" fill="#26364F" fill-opacity="0.5"/><rect x="284" y="48" width="44" height="58" rx="0" fill="none" stroke="#26364F" stroke-width="1.6"/><path d="M296 100 Q306 78 316 100 Z" fill="#26364F" fill-opacity="0.5"/><circle cx="306" cy="72" r="7" fill="#26364F" fill-opacity="0.5"/><rect x="296" y="128" width="40" height="122" rx="0" fill="none" stroke="#26364F" stroke-width="1.8"/><rect x="300" y="132" width="32" height="114" rx="0" fill="#3C6B60" fill-opacity="0.3"/><path d="M300 210 q16 -10 32 0" fill="none" stroke="#3C6B60" stroke-width="1.2" stroke-linecap="round" stroke-linejoin="round"/><path d="M150 250 L146 160 Q150 138 172 136 Q194 138 198 160 L194 250 Z" fill="#26364F" fill-opacity="0.9"/><path d="M146 168 l-10 34 M198 168 l10 34" fill="none" stroke="#26364F" stroke-width="5" stroke-linecap="round" stroke-linejoin="round"/><circle cx="172" cy="124" r="12" fill="#26364F" fill-opacity="0.9"/><path d="M164 160 l8 12 8 -12 v16 h-16 Z" fill="#A9762B" fill-opacity="0.85"/><path d="M60 250 h240" fill="none" stroke="#26364F" stroke-width="1.4" stroke-linecap="round" stroke-linejoin="round"/></svg>