<svg xmlns="http://www.w3.org/2000/svg" viewBox="0 0 350 270"><rect x="0" y="0" width="350" height="270" rx="0" fill="#26364F" fill-opacity="0.045"/><path d="M36 250 V101.0 A31.0 31.0 0 0 1 98 101.0 V250" fill="none" stroke="#26364F" stroke-width="1.8" stroke-linecap="round" stroke-linejoin="round"/><path d="M55.78 244 Q54.097 209.68 61.39 197.8 Q67 192.51999999999998 72.61 197.8 Q79.903 209.68 78.22 244 Z" fill="#26364F" fill-opacity="0.35"/><circle cx="67" cy="184.27" r="6.2700000000000005" fill="#26364F" fill-opacity="0.35"/><path d="M210 250 Q198 196 210 178 Q222 164 234 178 Q246 196 234 250 Z" fill="#26364F" fill-opacity="0.9"/><circle cx="222" cy="166" r="11" fill="#26364F" fill-opacity="0.9"/><ellipse cx="222" cy="236" rx="58" ry="14" fill="none" stroke="#26364F" stroke-width="2"/><ellipse cx="222" cy="236" rx="46" ry="9" fill="#26364F" fill-opacity="0.12"/><path d="M196 234 q10 -12 20 0 M226 236 l16 -10 m-6 10 l10 -6" fill="none" stroke="#A9762B" stroke-width="1.3" stroke-linecap="round" stroke-linejoin="round"/><rect x="-4" y="140" width="358" height="18" rx="0" fill="#E9E4D8" fill-opacity="0.3"/></svg>