<svg xmlns="http://www.w3.org/2000/svg" viewBox="0 0 350 270"><defs><radialGradient id="g305"><stop offset="0" stop-color="#26364F" stop-opacity="0.14"/><stop offset="0.65" stop-color="#26364F" stop-opacity="0.077"/><stop offset="1" stop-color="#26364F" stop-opacity="0"/></radialGradient><radialGradient id="g306"><stop offset="0" stop-color="#26364F" stop-opacity="0.11"/><stop offset="0.65" stop-color="#26364F" stop-opacity="0.061"/><stop offset="1" stop-color="#26364F" stop-opacity="0"/></radialGradient><radialGradient id="g307"><stop offset="0" stop-color="#26364F" stop-opacity="0.16"/><stop offset="0.65" stop-color="#26364F" stop-opacity="0.088"/><stop offset="1" stop-color="#26364F" stop-opacity="0"/></radialGradient><radialGradient id="g308"><stop offset="0" stop-color="#26364F" stop-opacity="0.06"/><stop offset="0.65" stop-color="#26364F" stop-opacity="0.033"/><stop offset="1" stop-color="#26364F" stop-opacity="0"/></radialGradient></defs><rect width="350" height="270" fill="#26364F" fill-opacity="0.060"/><ellipse cx="86.04948829003843" cy="65.68183802994609" rx="147.0" ry="102.9" fill="url(#g305)"/><ellipse cx="267.06212308003524" cy="53.818964773262266" rx="126.0" ry="113.4" fill="url(#g306)"/><ellipse cx="175.0" cy="275.4" rx="192.50000000000003" ry="86.6" fill="url(#g307)"/><ellipse cx="181.43199056645244" cy="186.68474660714125" rx="175.0" ry="140.0" fill="url(#g308)"/><path d="M342.4 52.8 Q342.4 52.8 326.9 72.0 Q311.5 91.3 287.7 105.5 Q263.9 119.8 229.6 127.2 Q195.3 134.6 166.7 120.8 Q138.1 107.1 138.2 86.8 Q138.4 66.5 125.4 50.4 Q112.4 34.3 119.7 12.4 Q127.0 -9.5 162.0 -15.5 Q197.0 -21.5 233.3 -21.7 Q269.6 -21.9 271.6 3.7 Q273.5 29.3 308.0 41.0 Z" fill="#26364F" fill-opacity="0.035"/><rect x="0" y="0" width="350" height="270" rx="0" fill="#26364F" fill-opacity="0.045"/><rect x="40" y="50" width="270" height="170" rx="0" fill="#26364F" fill-opacity="0.08"/><rect x="40" y="50" width="270" height="170" rx="0" fill="none" stroke="#26364F" stroke-width="1.8"/><path d="M84 96 q6 -14 22 -10 q10 2 8 14 l-6 18 q-14 4 -22 -6 Z" fill="none" stroke="#26364F" stroke-width="1.6" stroke-linecap="round" stroke-linejoin="round"/><path d="M90 100 l4 12 m4 -14 l4 14 m4 -16 l3 15" fill="none" stroke="#26364F" stroke-width="1.1" stroke-linecap="round" stroke-linejoin="round"/><rect x="196" y="84" width="40" height="26" rx="0" fill="none" stroke="#26364F" stroke-width="1.6"/><path d="M196 97 h40" fill="none" stroke="#26364F" stroke-width="1" stroke-linecap="round" stroke-linejoin="round"/><circle cx="150" cy="168" r="17" fill="none" stroke="#26364F" stroke-width="1.8"/><path d="M167 168 q10 -3 8 6" fill="none" stroke="#26364F" stroke-width="1.4" stroke-linecap="round" stroke-linejoin="round"/><ellipse cx="150" cy="168" rx="10" ry="6" fill="#26364F" fill-opacity="0.3"/><circle cx="256" cy="158" r="9" fill="none" stroke="#26364F" stroke-width="1.4"/><path d="M106 104 L196 96 M216 110 L256 152 M150 150 L118 112 M162 156 L200 108" fill="none" stroke="#A9762B" stroke-width="0.9" stroke-linecap="round" stroke-linejoin="round" stroke-dasharray="5 4"/><circle cx="106" cy="104" r="2" fill="#A9762B"/><circle cx="216" cy="110" r="2" fill="#A9762B"/><circle cx="150" cy="150" r="2" fill="#A9762B"/><circle cx="307.6" cy="37.2" r="1.10" fill="#26364F" fill-opacity="0.13"/><circle cx="120.1" cy="176.0" r="0.62" fill="#26364F" fill-opacity="0.13"/><circle cx="33.1" cy="104.6" r="1.12" fill="#26364F" fill-opacity="0.13"/><circle cx="336.6" cy="191.0" r="0.86" fill="#26364F" fill-opacity="0.13"/><circle cx="11.1" cy="149.0" r="0.68" fill="#26364F" fill-opacity="0.13"/><circle cx="343.5" cy="39.5" r="0.57" fill="#26364F" fill-opacity="0.13"/><circle cx="4.0" cy="8.9" r="0.73" fill="#26364F" fill-opacity="0.13"/><circle cx="91.2" cy="132.9" r="0.97" fill="#26364F" fill-opacity="0.13"/><circle cx="106.3" cy="102.2" r="1.01" fill="#26364F" fill-opacity="0.13"/><circle cx="50.5" cy="24.0" r="1.04" fill="#26364F" fill-opacity="0.13"/><circle cx="114.0" cy="108.2" r="0.48" fill="#26364F" fill-opacity="0.13"/><circle cx="275.7" cy="264.9" r="0.43" fill="#26364F" fill-opacity="0.13"/><circle cx="161.6" cy="51.7" r="1.08" fill="#26364F" fill-opacity="0.13"/><circle cx="193.2" cy="109.5" r="0.99" fill="#26364F" fill-opacity="0.13"/><circle cx="25.2" cy="197.2" r="0.58" fill="#26364F" fill-opacity="0.13"/><circle cx="2.1" cy="121.6" r="1.04" fill="#26364F" fill-opacity="0.13"/><circle cx="3.8" cy="200.9" r="0.80" fill="#26364F" fill-opacity="0.13"/><circle cx="144.1" cy="4.7" r="0.93" fill="#26364F" fill-opacity="0.13"/><circle cx="194.5" cy="149.6" r="0.88" fill="#26364F" fill-opacity="0.13"/><circle cx="11.7" cy="119.2" r="1.02" fill="#26364F" fill-opacity="0.13"/><circle cx="45.6" cy="88.7" r="0.49" fill="#26364F" fill-opacity="0.13"/><circle cx="66.2" cy="192.0" r="0.69" fill="#26364F" fill-opacity="0.13"/><circle cx="206.8" cy="103.2" r="0.89" fill="#26364F" fill-opacity="0.13"/><circle cx="210.9" cy="205.6" r="0.90" fill="#26364F" fill-opacity="0.13"/><circle cx="62.2" cy="229.6" r="0.50" fill="#26364F" fill-opacity="0.13"/><circle cx="99.6" cy="149.8" r="0.69" fill="#26364F" fill-opacity="0.13"/><circle cx="202.2" cy="139.6" r="0.89" fill="#26364F" fill-opacity="0.13"/><circle cx="289.7" cy="56.3" r="0.75" fill="#26364F" fill-opacity="0.13"/><circle cx="316.2" cy="68.8" r="0.92" fill="#26364F" fill-opacity="0.13"/><circle cx="208.1" cy="87.9" r="0.87" fill="#26364F" fill-opacity="0.13"/><circle cx="292.6" cy="232.3" r="0.86" fill="#26364F" fill-opacity="0.13"/><circle cx="277.2" cy="208.4" r="1.13" fill="#26364F" fill-opacity="0.13"/><circle cx="258.8" cy="219.9" r="0.60" fill="#26364F" fill-opacity="0.13"/><circle cx="280.2" cy="112.0" r="0.71" fill="#26364F" fill-opacity="0.13"/><circle cx="81.1" cy="66.0" r="0.67" fill="#26364F" fill-opacity="0.13"/><circle cx="129.2" cy="45.5" r="0.69" fill="#26364F" fill-opacity="0.13"/><circle cx="193.9" cy="102.3" r="1.02" fill="#26364F" fill-opacity="0.13"/><circle cx="122.4" cy="152.1" r="1.17" fill="#26364F" fill-opacity="0.13"/><circle cx="29.7" cy="7.5" r="1.18" fill="#26364F" fill-opacity="0.13"/><circle cx="193.3" cy="38.3" r="0.86" fill="#26364F" fill-opacity="0.13"/><circle cx="185.4" cy="50.2" r="0.89" fill="#26364F" fill-opacity="0.13"/><circle cx="16.5" cy="101.7" r="0.51" fill="#26364F" fill-opacity="0.13"/><circle cx="226.8" cy="1.1" r="0.42" fill="#26364F" fill-opacity="0.13"/><circle cx="290.7" cy="269.5" r="0.62" fill="#26364F" fill-opacity="0.13"/><circle cx="295.1" cy="5.6" r="0.42" fill="#26364F" fill-opacity="0.13"/><circle cx="88.7" cy="95.2" r="1.08" fill="#26364F" fill-opacity="0.13"/><circle cx="181.5" cy="204.7" r="0.59" fill="#26364F" fill-opacity="0.13"/><circle cx="348.7" cy="247.5" r="0.63" fill="#26364F" fill-opacity="0.13"/><circle cx="257.9" cy="136.1" r="0.78" fill="#26364F" fill-opacity="0.13"/><circle cx="253.2" cy="102.3" r="1.02" fill="#26364F" fill-opacity="0.13"/><circle cx="137.7" cy="19.8" r="0.68" fill="#26364F" fill-opacity="0.13"/><circle cx="303.1" cy="80.9" r="1.12" fill="#26364F" fill-opacity="0.13"/><circle cx="268.4" cy="263.2" r="1.10" fill="#26364F" fill-opacity="0.13"/><circle cx="128.3" cy="205.2" r="1.04" fill="#26364F" fill-opacity="0.13"/><circle cx="320.8" cy="98.0" r="1.04" fill="#26364F" fill-opacity="0.13"/><circle cx="226.6" cy="81.7" r="0.63" fill="#26364F" fill-opacity="0.13"/><circle cx="314.7" cy="92.6" r="0.82" fill="#26364F" fill-opacity="0.13"/><circle cx="214.6" cy="147.6" r="1.13" fill="#26364F" fill-opacity="0.13"/><circle cx="60.0" cy="78.1" r="0.45" fill="#26364F" fill-opacity="0.13"/><circle cx="66.5" cy="101.7" r="0.82" fill="#26364F" fill-opacity="0.13"/><circle cx="272.8" cy="175.0" r="0.88" fill="#26364F" fill-opacity="0.13"/><circle cx="258.2" cy="111.2" r="0.79" fill="#26364F" fill-opacity="0.13"/><circle cx="4.1" cy="234.1" r="0.65" fill="#26364F" fill-opacity="0.13"/><circle cx="238.1" cy="93.0" r="0.41" fill="#26364F" fill-opacity="0.13"/><circle cx="36.0" cy="24.6" r="0.58" fill="#26364F" fill-opacity="0.13"/><circle cx="308.9" cy="198.7" r="0.51" fill="#26364F" fill-opacity="0.13"/><circle cx="112.2" cy="6.9" r="0.83" fill="#26364F" fill-opacity="0.13"/><circle cx="215.6" cy="198.0" r="1.10" fill="#26364F" fill-opacity="0.13"/><circle cx="129.4" cy="193.0" r="0.75" fill="#26364F" fill-opacity="0.13"/><circle cx="150.1" cy="216.6" r="1.07" fill="#26364F" fill-opacity="0.13"/><circle cx="183.9" cy="166.8" r="0.70" fill="#26364F" fill-opacity="0.13"/><circle cx="282.6" cy="240.1" r="0.81" fill="#26364F" fill-opacity="0.13"/><circle cx="105.6" cy="81.3" r="0.69" fill="#26364F" fill-opacity="0.13"/><circle cx="49.7" cy="92.3" r="0.46" fill="#26364F" fill-opacity="0.13"/><circle cx="280.5" cy="238.6" r="0.77" fill="#26364F" fill-opacity="0.13"/><circle cx="67.2" cy="251.5" r="1.08" fill="#26364F" fill-opacity="0.13"/><circle cx="77.8" cy="95.1" r="0.51" fill="#26364F" fill-opacity="0.13"/><circle cx="314.0" cy="41.7" r="1.05" fill="#26364F" fill-opacity="0.13"/><circle cx="128.6" cy="45.6" r="0.93" fill="#26364F" fill-opacity="0.13"/><circle cx="343.5" cy="19.4" r="1.20" fill="#26364F" fill-opacity="0.13"/><circle cx="151.2" cy="264.3" r="1.00" fill="#26364F" fill-opacity="0.13"/><circle cx="111.0" cy="190.7" r="1.04" fill="#26364F" fill-opacity="0.13"/><circle cx="314.1" cy="75.5" r="0.69" fill="#26364F" fill-opacity="0.13"/><circle cx="140.6" cy="142.4" r="0.62" fill="#26364F" fill-opacity="0.13"/><circle cx="11.6" cy="121.0" r="0.93" fill="#26364F" fill-opacity="0.13"/><circle cx="190.3" cy="154.9" r="0.83" fill="#26364F" fill-opacity="0.13"/><circle cx="122.5" cy="238.0" r="0.73" fill="#26364F" fill-opacity="0.13"/><circle cx="153.1" cy="237.4" r="0.94" fill="#26364F" fill-opacity="0.13"/><circle cx="121.4" cy="173.4" r="0.92" fill="#26364F" fill-opacity="0.13"/><circle cx="250.9" cy="22.8" r="0.42" fill="#26364F" fill-opacity="0.13"/><circle cx="24.5" cy="73.7" r="0.83" fill="#26364F" fill-opacity="0.13"/><circle cx="289.8" cy="11.0" r="0.49" fill="#26364F" fill-opacity="0.13"/><circle cx="110.8" cy="266.0" r="0.66" fill="#26364F" fill-opacity="0.13"/><circle cx="60.8" cy="151.6" r="0.51" fill="#26364F" fill-opacity="0.13"/><circle cx="275.6" cy="193.0" r="0.48" fill="#26364F" fill-opacity="0.13"/><circle cx="333.1" cy="182.8" r="0.42" fill="#26364F" fill-opacity="0.13"/><circle cx="17.0" cy="160.4" r="0.55" fill="#26364F" fill-opacity="0.13"/><circle cx="180.6" cy="78.9" r="0.52" fill="#26364F" fill-opacity="0.13"/><circle cx="282.4" cy="66.3" r="0.46" fill="#26364F" fill-opacity="0.13"/><circle cx="148.1" cy="35.5" r="0.84" fill="#26364F" fill-opacity="0.13"/><circle cx="233.4" cy="87.8" r="0.84" fill="#26364F" fill-opacity="0.13"/><circle cx="231.4" cy="14.0" r="0.82" fill="#26364F" fill-opacity="0.13"/><circle cx="71.0" cy="146.2" r="0.72" fill="#26364F" fill-opacity="0.13"/><circle cx="322.5" cy="70.8" r="0.81" fill="#26364F" fill-opacity="0.13"/><circle cx="270.4" cy="38.3" r="1.02" fill="#26364F" fill-opacity="0.13"/><circle cx="72.1" cy="228.0" r="0.53" fill="#26364F" fill-opacity="0.13"/><circle cx="10.2" cy="246.5" r="0.97" fill="#26364F" fill-opacity="0.13"/><circle cx="212.8" cy="40.7" r="0.52" fill="#26364F" fill-opacity="0.13"/><circle cx="166.4" cy="241.3" r="1.01" fill="#26364F" fill-opacity="0.13"/><circle cx="271.5" cy="43.6" r="0.79" fill="#26364F" fill-opacity="0.13"/><circle cx="226.9" cy="210.5" r="0.87" fill="#26364F" fill-opacity="0.13"/><circle cx="141.1" cy="102.0" r="0.73" fill="#26364F" fill-opacity="0.13"/><circle cx="215.9" cy="252.6" r="0.88" fill="#26364F" fill-opacity="0.13"/><circle cx="32.7" cy="31.4" r="0.54" fill="#26364F" fill-opacity="0.13"/><circle cx="135.6" cy="53.5" r="0.69" fill="#26364F" fill-opacity="0.13"/><circle cx="33.7" cy="199.2" r="1.14" fill="#26364F" fill-opacity="0.13"/><circle cx="198.4" cy="261.7" r="0.98" fill="#26364F" fill-opacity="0.13"/><circle cx="262.7" cy="76.7" r="0.93" fill="#26364F" fill-opacity="0.13"/><circle cx="85.4" cy="195.0" r="1.03" fill="#26364F" fill-opacity="0.13"/><circle cx="320.4" cy="117.8" r="1.04" fill="#26364F" fill-opacity="0.13"/><circle cx="188.2" cy="107.0" r="0.69" fill="#26364F" fill-opacity="0.13"/><circle cx="82.3" cy="223.8" r="0.53" fill="#26364F" fill-opacity="0.13"/><circle cx="226.8" cy="162.0" r="0.60" fill="#26364F" fill-opacity="0.13"/><circle cx="252.4" cy="80.3" r="0.52" fill="#26364F" fill-opacity="0.13"/><circle cx="210.3" cy="10.4" r="0.77" fill="#26364F" fill-opacity="0.13"/><circle cx="281.8" cy="31.3" r="1.06" fill="#26364F" fill-opacity="0.13"/><circle cx="68.9" cy="31.1" r="0.79" fill="#26364F" fill-opacity="0.13"/><circle cx="234.2" cy="27.6" r="0.48" fill="#26364F" fill-opacity="0.13"/><circle cx="15.6" cy="190.0" r="0.41" fill="#26364F" fill-opacity="0.13"/><circle cx="95.8" cy="73.8" r="0.52" fill="#26364F" fill-opacity="0.13"/><circle cx="345.1" cy="81.4" r="1.05" fill="#26364F" fill-opacity="0.13"/><circle cx="6.8" cy="184.6" r="0.96" fill="#26364F" fill-opacity="0.13"/><circle cx="266.4" cy="135.8" r="1.06" fill="#26364F" fill-opacity="0.13"/><circle cx="132.3" cy="218.4" r="1.08" fill="#26364F" fill-opacity="0.13"/><circle cx="151.0" cy="103.0" r="0.48" fill="#26364F" fill-opacity="0.13"/><circle cx="28.0" cy="82.7" r="1.02" fill="#26364F" fill-opacity="0.13"/><circle cx="318.2" cy="71.1" r="0.55" fill="#26364F" fill-opacity="0.13"/><circle cx="188.6" cy="82.3" r="0.89" fill="#26364F" fill-opacity="0.13"/><circle cx="325.1" cy="128.1" r="0.67" fill="#26364F" fill-opacity="0.13"/><circle cx="37.7" cy="41.4" r="1.19" fill="#26364F" fill-opacity="0.13"/><circle cx="338.3" cy="208.5" r="0.94" fill="#26364F" fill-opacity="0.13"/><circle cx="186.8" cy="130.7" r="0.52" fill="#26364F" fill-opacity="0.13"/><circle cx="321.7" cy="23.1" r="1.19" fill="#26364F" fill-opacity="0.13"/><circle cx="203.6" cy="12.9" r="0.82" fill="#26364F" fill-opacity="0.13"/><circle cx="283.6" cy="211.8" r="0.48" fill="#26364F" fill-opacity="0.13"/><circle cx="100.9" cy="122.9" r="0.64" fill="#26364F" fill-opacity="0.13"/><circle cx="126.0" cy="194.2" r="0.55" fill="#26364F" fill-opacity="0.13"/><circle cx="247.2" cy="122.2" r="0.90" fill="#26364F" fill-opacity="0.13"/><circle cx="306.1" cy="190.3" r="0.62" fill="#26364F" fill-opacity="0.13"/><circle cx="121.2" cy="33.8" r="0.86" fill="#26364F" fill-opacity="0.13"/><circle cx="207.6" cy="69.9" r="0.43" fill="#26364F" fill-opacity="0.13"/><circle cx="295.3" cy="213.1" r="1.03" fill="#26364F" fill-opacity="0.13"/><circle cx="185.3" cy="174.5" r="1.95" fill="#26364F" fill-opacity="0.22"/><circle cx="221.0" cy="106.9" r="2.35" fill="#26364F" fill-opacity="0.22"/><circle cx="335.6" cy="100.4" r="1.52" fill="#26364F" fill-opacity="0.22"/><circle cx="172.2" cy="236.6" r="2.06" fill="#26364F" fill-opacity="0.22"/><circle cx="206.8" cy="244.8" r="1.03" fill="#26364F" fill-opacity="0.22"/><circle cx="50.1" cy="5.4" r="2.79" fill="#26364F" fill-opacity="0.22"/><circle cx="291.4" cy="135.9" r="2.75" fill="#26364F" fill-opacity="0.22"/><circle cx="180.6" cy="175.7" r="2.18" fill="#26364F" fill-opacity="0.22"/><circle cx="130.9" cy="200.9" r="2.34" fill="#26364F" fill-opacity="0.22"/><rect x="0" y="0" width="350" height="270" fill="none" stroke="#26364F" stroke-width="43.2" stroke-opacity="0.055"/><rect x="0" y="0" width="350" height="270" fill="none" stroke="#26364F" stroke-width="18.900000000000002" stroke-opacity="0.07"/><rect x="0" y="0" width="350" height="270" fill="none" stroke="#26364F" stroke-width="6.75" stroke-opacity="0.10"/></svg>