<svg xmlns="http://www.w3.org/2000/svg" viewBox="0 0 350 270"><defs><radialGradient id="g322"><stop offset="0" stop-color="#26364F" stop-opacity="0.14"/><stop offset="0.65" stop-color="#26364F" stop-opacity="0.077"/><stop offset="1" stop-color="#26364F" stop-opacity="0"/></radialGradient><radialGradient id="g323"><stop offset="0" stop-color="#26364F" stop-opacity="0.11"/><stop offset="0.65" stop-color="#26364F" stop-opacity="0.061"/><stop offset="1" stop-color="#26364F" stop-opacity="0"/></radialGradient><radialGradient id="g324"><stop offset="0" stop-color="#26364F" stop-opacity="0.16"/><stop offset="0.65" stop-color="#26364F" stop-opacity="0.088"/><stop offset="1" stop-color="#26364F" stop-opacity="0"/></radialGradient><radialGradient id="g325"><stop offset="0" stop-color="#26364F" stop-opacity="0.06"/><stop offset="0.65" stop-color="#26364F" stop-opacity="0.033"/><stop offset="1" stop-color="#26364F" stop-opacity="0"/></radialGradient></defs><rect width="350" height="270" fill="#26364F" fill-opacity="0.060"/><ellipse cx="83.44736084563192" cy="64.36850069323519" rx="147.0" ry="102.9" fill="url(#g322)"/><ellipse cx="305.11741670029005" cy="80.42444259371986" rx="126.0" ry="113.4" fill="url(#g323)"/><ellipse cx="175.0" cy="275.4" rx="192.50000000000003" ry="86.6" fill="url(#g324)"/><ellipse cx="199.72111330906048" cy="146.6513936365409" rx="175.0" ry="140.0" fill="url(#g325)"/><path d="M202.9 88.7 Q202.9 88.7 188.2 105.6 Q173.4 122.6 148.4 129.5 Q123.3 136.4 97.6 146.8 Q72.0 157.3 55.9 140.1 Q39.9 122.9 14.7 114.7 Q-10.4 106.5 4.9 91.5 Q20.3 76.4 23.9 61.1 Q27.6 45.7 48.0 25.0 Q68.3 4.4 95.5 23.1 Q122.6 41.9 136.5 52.9 Q150.5 63.9 176.7 76.3 Z" fill="#26364F" fill-opacity="0.035"/><rect x="0" y="0" width="350" height="270" rx="0" fill="#26364F" fill-opacity="0.045"/><rect x="30" y="130" width="290" height="100" rx="0" fill="#26364F" fill-opacity="0.08"/><rect x="30" y="130" width="290" height="100" rx="0" fill="none" stroke="#26364F" stroke-width="1.8"/><path d="M96 130 Q80 96 100 84 Q112 78 120 92 L128 122" fill="none" stroke="#26364F" stroke-width="2" stroke-linecap="round" stroke-linejoin="round"/><ellipse cx="132" cy="152" rx="26" ry="14" fill="#A9762B" fill-opacity="0.6"/><ellipse cx="132" cy="152" rx="26" ry="14" fill="none" stroke="#26364F" stroke-width="1.6"/><path d="M114 150 q18 -8 36 0" fill="none" stroke="#26364F" stroke-width="1" stroke-linecap="round" stroke-linejoin="round"/><path d="M250 130 Q268 100 252 88 Q240 80 232 96 L228 120" fill="none" stroke="#26364F" stroke-width="2" stroke-linecap="round" stroke-linejoin="round"/><rect x="216" y="140" width="60" height="40" rx="0" fill="#E9E4D8" fill-opacity="0.95"/><rect x="216" y="140" width="60" height="40" rx="0" fill="none" stroke="#26364F" stroke-width="1.4"/><path d="M246 140 v40" fill="none" stroke="#26364F" stroke-width="1" stroke-linecap="round" stroke-linejoin="round"/><path d="M222 148 h18 M252 148 h18" fill="none" stroke="#26364F" stroke-width="0.8" stroke-linecap="round" stroke-linejoin="round"/><path d="M222 156 h18 M252 156 h18" fill="none" stroke="#26364F" stroke-width="0.8" stroke-linecap="round" stroke-linejoin="round"/><path d="M222 164 h18 M252 164 h18" fill="none" stroke="#26364F" stroke-width="0.8" stroke-linecap="round" stroke-linejoin="round"/><path d="M222 172 h18 M252 172 h18" fill="none" stroke="#26364F" stroke-width="0.8" stroke-linecap="round" stroke-linejoin="round"/><path d="M175 226 v-32 M151 194 h48" fill="none" stroke="#26364F" stroke-width="1.8" stroke-linecap="round" stroke-linejoin="round"/><path d="M151 194 l-7 14 h14 Z" fill="#26364F" fill-opacity="0.7"/><path d="M199 194 l-7 20 h14 Z" fill="#26364F" fill-opacity="0.7"/><circle cx="101.9" cy="125.4" r="0.63" fill="#26364F" fill-opacity="0.13"/><circle cx="49.5" cy="194.4" r="0.91" fill="#26364F" fill-opacity="0.13"/><circle cx="149.6" cy="125.2" r="0.42" fill="#26364F" fill-opacity="0.13"/><circle cx="52.9" cy="242.4" r="0.95" fill="#26364F" fill-opacity="0.13"/><circle cx="143.9" cy="82.3" r="0.48" fill="#26364F" fill-opacity="0.13"/><circle cx="310.7" cy="265.0" r="0.59" fill="#26364F" fill-opacity="0.13"/><circle cx="279.5" cy="150.1" r="0.66" fill="#26364F" fill-opacity="0.13"/><circle cx="288.6" cy="267.4" r="0.97" fill="#26364F" fill-opacity="0.13"/><circle cx="250.4" cy="154.0" r="0.82" fill="#26364F" fill-opacity="0.13"/><circle cx="184.8" cy="2.6" r="0.45" fill="#26364F" fill-opacity="0.13"/><circle cx="288.3" cy="186.3" r="0.90" fill="#26364F" fill-opacity="0.13"/><circle cx="292.5" cy="214.9" r="0.56" fill="#26364F" fill-opacity="0.13"/><circle cx="197.1" cy="80.9" r="1.01" fill="#26364F" fill-opacity="0.13"/><circle cx="205.2" cy="77.7" r="0.64" fill="#26364F" fill-opacity="0.13"/><circle cx="32.4" cy="95.1" r="0.44" fill="#26364F" fill-opacity="0.13"/><circle cx="122.0" cy="178.6" r="1.12" fill="#26364F" fill-opacity="0.13"/><circle cx="195.8" cy="23.6" r="0.60" fill="#26364F" fill-opacity="0.13"/><circle cx="168.4" cy="242.7" r="0.62" fill="#26364F" fill-opacity="0.13"/><circle cx="130.2" cy="43.3" r="0.45" fill="#26364F" fill-opacity="0.13"/><circle cx="310.7" cy="213.2" r="1.13" fill="#26364F" fill-opacity="0.13"/><circle cx="8.0" cy="103.7" r="0.78" fill="#26364F" fill-opacity="0.13"/><circle cx="17.7" cy="103.3" r="0.51" fill="#26364F" fill-opacity="0.13"/><circle cx="252.7" cy="222.3" r="1.03" fill="#26364F" fill-opacity="0.13"/><circle cx="93.4" cy="100.9" r="1.09" fill="#26364F" fill-opacity="0.13"/><circle cx="238.4" cy="239.8" r="0.44" fill="#26364F" fill-opacity="0.13"/><circle cx="181.7" cy="31.8" r="0.92" fill="#26364F" fill-opacity="0.13"/><circle cx="119.8" cy="174.9" r="0.56" fill="#26364F" fill-opacity="0.13"/><circle cx="342.9" cy="108.7" r="0.54" fill="#26364F" fill-opacity="0.13"/><circle cx="78.6" cy="166.9" r="0.48" fill="#26364F" fill-opacity="0.13"/><circle cx="282.9" cy="11.5" r="1.17" fill="#26364F" fill-opacity="0.13"/><circle cx="140.2" cy="63.6" r="0.88" fill="#26364F" fill-opacity="0.13"/><circle cx="198.9" cy="68.7" r="0.65" fill="#26364F" fill-opacity="0.13"/><circle cx="330.4" cy="248.4" r="0.52" fill="#26364F" fill-opacity="0.13"/><circle cx="82.1" cy="137.3" r="0.88" fill="#26364F" fill-opacity="0.13"/><circle cx="25.2" cy="132.5" r="0.66" fill="#26364F" fill-opacity="0.13"/><circle cx="125.3" cy="85.0" r="0.63" fill="#26364F" fill-opacity="0.13"/><circle cx="56.1" cy="262.3" r="0.70" fill="#26364F" fill-opacity="0.13"/><circle cx="153.9" cy="28.2" r="0.84" fill="#26364F" fill-opacity="0.13"/><circle cx="130.7" cy="40.2" r="0.99" fill="#26364F" fill-opacity="0.13"/><circle cx="325.1" cy="128.6" r="0.56" fill="#26364F" fill-opacity="0.13"/><circle cx="131.6" cy="199.5" r="0.45" fill="#26364F" fill-opacity="0.13"/><circle cx="167.0" cy="103.7" r="0.48" fill="#26364F" fill-opacity="0.13"/><circle cx="156.4" cy="23.1" r="0.76" fill="#26364F" fill-opacity="0.13"/><circle cx="40.3" cy="169.7" r="0.67" fill="#26364F" fill-opacity="0.13"/><circle cx="128.5" cy="44.6" r="0.67" fill="#26364F" fill-opacity="0.13"/><circle cx="318.8" cy="105.1" r="0.85" fill="#26364F" fill-opacity="0.13"/><circle cx="226.0" cy="224.1" r="0.78" fill="#26364F" fill-opacity="0.13"/><circle cx="133.5" cy="265.0" r="0.42" fill="#26364F" fill-opacity="0.13"/><circle cx="2.4" cy="67.0" r="1.06" fill="#26364F" fill-opacity="0.13"/><circle cx="177.2" cy="70.8" r="1.10" fill="#26364F" fill-opacity="0.13"/><circle cx="190.9" cy="116.4" r="0.80" fill="#26364F" fill-opacity="0.13"/><circle cx="230.4" cy="125.6" r="0.55" fill="#26364F" fill-opacity="0.13"/><circle cx="188.0" cy="199.1" r="0.62" fill="#26364F" fill-opacity="0.13"/><circle cx="49.7" cy="66.8" r="1.20" fill="#26364F" fill-opacity="0.13"/><circle cx="189.8" cy="270.0" r="1.04" fill="#26364F" fill-opacity="0.13"/><circle cx="129.8" cy="136.9" r="0.74" fill="#26364F" fill-opacity="0.13"/><circle cx="38.6" cy="99.4" r="0.95" fill="#26364F" fill-opacity="0.13"/><circle cx="15.0" cy="215.2" r="0.49" fill="#26364F" fill-opacity="0.13"/><circle cx="13.4" cy="179.9" r="0.70" fill="#26364F" fill-opacity="0.13"/><circle cx="19.9" cy="227.7" r="0.51" fill="#26364F" fill-opacity="0.13"/><circle cx="256.9" cy="255.2" r="1.08" fill="#26364F" fill-opacity="0.13"/><circle cx="125.7" cy="98.0" r="0.67" fill="#26364F" fill-opacity="0.13"/><circle cx="253.5" cy="268.2" r="0.86" fill="#26364F" fill-opacity="0.13"/><circle cx="166.7" cy="227.2" r="0.98" fill="#26364F" fill-opacity="0.13"/><circle cx="250.3" cy="42.7" r="1.05" fill="#26364F" fill-opacity="0.13"/><circle cx="71.0" cy="115.3" r="0.66" fill="#26364F" fill-opacity="0.13"/><circle cx="289.5" cy="225.1" r="1.02" fill="#26364F" fill-opacity="0.13"/><circle cx="270.1" cy="133.4" r="1.10" fill="#26364F" fill-opacity="0.13"/><circle cx="239.0" cy="153.0" r="1.08" fill="#26364F" fill-opacity="0.13"/><circle cx="303.6" cy="194.1" r="0.46" fill="#26364F" fill-opacity="0.13"/><circle cx="315.6" cy="15.7" r="0.60" fill="#26364F" fill-opacity="0.13"/><circle cx="16.6" cy="67.6" r="1.14" fill="#26364F" fill-opacity="0.13"/><circle cx="101.7" cy="19.5" r="0.85" fill="#26364F" fill-opacity="0.13"/><circle cx="166.7" cy="128.7" r="1.08" fill="#26364F" fill-opacity="0.13"/><circle cx="205.5" cy="101.4" r="0.87" fill="#26364F" fill-opacity="0.13"/><circle cx="128.1" cy="237.7" r="0.70" fill="#26364F" fill-opacity="0.13"/><circle cx="33.3" cy="80.5" r="1.13" fill="#26364F" fill-opacity="0.13"/><circle cx="32.0" cy="90.7" r="1.17" fill="#26364F" fill-opacity="0.13"/><circle cx="319.5" cy="155.1" r="0.63" fill="#26364F" fill-opacity="0.13"/><circle cx="210.5" cy="113.7" r="1.08" fill="#26364F" fill-opacity="0.13"/><circle cx="283.8" cy="238.6" r="0.61" fill="#26364F" fill-opacity="0.13"/><circle cx="143.7" cy="133.2" r="0.53" fill="#26364F" fill-opacity="0.13"/><circle cx="47.5" cy="249.2" r="0.43" fill="#26364F" fill-opacity="0.13"/><circle cx="38.7" cy="232.6" r="0.81" fill="#26364F" fill-opacity="0.13"/><circle cx="174.3" cy="180.4" r="0.49" fill="#26364F" fill-opacity="0.13"/><circle cx="327.3" cy="18.6" r="0.48" fill="#26364F" fill-opacity="0.13"/><circle cx="156.8" cy="182.1" r="1.16" fill="#26364F" fill-opacity="0.13"/><circle cx="140.6" cy="263.8" r="0.45" fill="#26364F" fill-opacity="0.13"/><circle cx="318.4" cy="164.4" r="0.80" fill="#26364F" fill-opacity="0.13"/><circle cx="152.8" cy="203.3" r="0.40" fill="#26364F" fill-opacity="0.13"/><circle cx="295.2" cy="34.3" r="0.88" fill="#26364F" fill-opacity="0.13"/><circle cx="208.8" cy="64.8" r="0.52" fill="#26364F" fill-opacity="0.13"/><circle cx="163.3" cy="256.6" r="0.73" fill="#26364F" fill-opacity="0.13"/><circle cx="22.8" cy="46.7" r="0.53" fill="#26364F" fill-opacity="0.13"/><circle cx="138.7" cy="130.6" r="1.05" fill="#26364F" fill-opacity="0.13"/><circle cx="346.3" cy="53.6" r="0.77" fill="#26364F" fill-opacity="0.13"/><circle cx="90.9" cy="33.7" r="0.53" fill="#26364F" fill-opacity="0.13"/><circle cx="156.5" cy="128.6" r="0.91" fill="#26364F" fill-opacity="0.13"/><circle cx="236.3" cy="111.5" r="0.74" fill="#26364F" fill-opacity="0.13"/><circle cx="324.0" cy="172.1" r="0.60" fill="#26364F" fill-opacity="0.13"/><circle cx="342.0" cy="225.0" r="1.17" fill="#26364F" fill-opacity="0.13"/><circle cx="230.5" cy="224.9" r="0.71" fill="#26364F" fill-opacity="0.13"/><circle cx="222.4" cy="40.1" r="0.98" fill="#26364F" fill-opacity="0.13"/><circle cx="191.1" cy="183.5" r="1.10" fill="#26364F" fill-opacity="0.13"/><circle cx="341.2" cy="139.5" r="0.48" fill="#26364F" fill-opacity="0.13"/><circle cx="256.5" cy="102.1" r="0.63" fill="#26364F" fill-opacity="0.13"/><circle cx="159.3" cy="95.3" r="0.96" fill="#26364F" fill-opacity="0.13"/><circle cx="83.2" cy="189.6" r="0.63" fill="#26364F" fill-opacity="0.13"/><circle cx="152.8" cy="200.1" r="0.57" fill="#26364F" fill-opacity="0.13"/><circle cx="144.2" cy="208.8" r="1.06" fill="#26364F" fill-opacity="0.13"/><circle cx="330.8" cy="70.5" r="0.72" fill="#26364F" fill-opacity="0.13"/><circle cx="155.3" cy="192.0" r="0.97" fill="#26364F" fill-opacity="0.13"/><circle cx="159.3" cy="126.0" r="0.61" fill="#26364F" fill-opacity="0.13"/><circle cx="241.5" cy="157.7" r="0.80" fill="#26364F" fill-opacity="0.13"/><circle cx="27.4" cy="47.6" r="0.72" fill="#26364F" fill-opacity="0.13"/><circle cx="108.9" cy="113.2" r="0.62" fill="#26364F" fill-opacity="0.13"/><circle cx="270.3" cy="44.2" r="0.42" fill="#26364F" fill-opacity="0.13"/><circle cx="190.1" cy="143.1" r="0.71" fill="#26364F" fill-opacity="0.13"/><circle cx="88.4" cy="182.9" r="0.69" fill="#26364F" fill-opacity="0.13"/><circle cx="336.7" cy="107.9" r="1.01" fill="#26364F" fill-opacity="0.13"/><circle cx="58.7" cy="76.1" r="0.84" fill="#26364F" fill-opacity="0.13"/><circle cx="100.4" cy="196.0" r="0.42" fill="#26364F" fill-opacity="0.13"/><circle cx="297.2" cy="199.5" r="0.73" fill="#26364F" fill-opacity="0.13"/><circle cx="211.4" cy="172.6" r="1.02" fill="#26364F" fill-opacity="0.13"/><circle cx="183.4" cy="161.1" r="0.87" fill="#26364F" fill-opacity="0.13"/><circle cx="131.2" cy="71.1" r="0.95" fill="#26364F" fill-opacity="0.13"/><circle cx="124.1" cy="227.6" r="0.81" fill="#26364F" fill-opacity="0.13"/><circle cx="56.5" cy="62.7" r="1.06" fill="#26364F" fill-opacity="0.13"/><circle cx="18.0" cy="132.7" r="0.89" fill="#26364F" fill-opacity="0.13"/><circle cx="228.2" cy="207.6" r="0.63" fill="#26364F" fill-opacity="0.13"/><circle cx="52.3" cy="118.0" r="0.83" fill="#26364F" fill-opacity="0.13"/><circle cx="80.9" cy="225.4" r="0.88" fill="#26364F" fill-opacity="0.13"/><circle cx="127.2" cy="73.9" r="0.65" fill="#26364F" fill-opacity="0.13"/><circle cx="0.1" cy="87.4" r="0.58" fill="#26364F" fill-opacity="0.13"/><circle cx="285.0" cy="82.6" r="0.83" fill="#26364F" fill-opacity="0.13"/><circle cx="261.7" cy="259.7" r="1.10" fill="#26364F" fill-opacity="0.13"/><circle cx="126.8" cy="69.4" r="0.48" fill="#26364F" fill-opacity="0.13"/><circle cx="304.2" cy="197.0" r="0.76" fill="#26364F" fill-opacity="0.13"/><circle cx="291.4" cy="34.4" r="0.79" fill="#26364F" fill-opacity="0.13"/><circle cx="218.8" cy="52.9" r="1.16" fill="#26364F" fill-opacity="0.13"/><circle cx="217.1" cy="152.5" r="1.00" fill="#26364F" fill-opacity="0.13"/><circle cx="119.7" cy="76.9" r="0.74" fill="#26364F" fill-opacity="0.13"/><circle cx="4.4" cy="191.5" r="0.65" fill="#26364F" fill-opacity="0.13"/><circle cx="82.2" cy="115.1" r="0.46" fill="#26364F" fill-opacity="0.13"/><circle cx="200.6" cy="230.0" r="1.12" fill="#26364F" fill-opacity="0.13"/><circle cx="150.4" cy="248.3" r="0.67" fill="#26364F" fill-opacity="0.13"/><circle cx="46.9" cy="242.0" r="0.46" fill="#26364F" fill-opacity="0.13"/><circle cx="172.7" cy="165.9" r="0.75" fill="#26364F" fill-opacity="0.13"/><circle cx="92.2" cy="105.9" r="0.41" fill="#26364F" fill-opacity="0.13"/><circle cx="134.1" cy="213.9" r="1.09" fill="#26364F" fill-opacity="0.13"/><circle cx="194.5" cy="214.5" r="0.74" fill="#26364F" fill-opacity="0.13"/><circle cx="65.9" cy="42.5" r="0.68" fill="#26364F" fill-opacity="0.13"/><circle cx="194.3" cy="122.2" r="2.00" fill="#26364F" fill-opacity="0.22"/><circle cx="118.8" cy="246.4" r="1.12" fill="#26364F" fill-opacity="0.22"/><circle cx="120.0" cy="5.3" r="2.55" fill="#26364F" fill-opacity="0.22"/><circle cx="346.7" cy="90.7" r="1.14" fill="#26364F" fill-opacity="0.22"/><circle cx="252.7" cy="262.4" r="2.20" fill="#26364F" fill-opacity="0.22"/><circle cx="108.7" cy="39.5" r="2.62" fill="#26364F" fill-opacity="0.22"/><circle cx="304.6" cy="36.3" r="1.55" fill="#26364F" fill-opacity="0.22"/><circle cx="341.7" cy="197.8" r="1.77" fill="#26364F" fill-opacity="0.22"/><circle cx="218.8" cy="23.6" r="1.77" fill="#26364F" fill-opacity="0.22"/><rect x="0" y="0" width="350" height="270" fill="none" stroke="#26364F" stroke-width="43.2" stroke-opacity="0.055"/><rect x="0" y="0" width="350" height="270" fill="none" stroke="#26364F" stroke-width="18.900000000000002" stroke-opacity="0.07"/><rect x="0" y="0" width="350" height="270" fill="none" stroke="#26364F" stroke-width="6.75" stroke-opacity="0.10"/></svg>