<svg xmlns="http://www.w3.org/2000/svg" viewBox="0 0 420 560"><rect x="0" y="0" width="420" height="560" rx="0" fill="#26364F" fill-opacity="0.05"/><rect x="14" y="14" width="392" height="532" rx="0" fill="none" stroke="#26364F" stroke-width="1.2" fill-opacity="0.35"/><path d="M-90 470 Q90 350 270 470 Z" fill="#26364F" fill-opacity="0.1"/><path d="M140 470 Q330 310 520 470 Z" fill="#26364F" fill-opacity="0.12"/><path d="M210 530 L196 400 Q170 380 176 330 Q180 300 210 292 Q244 300 246 336 Q250 386 228 402 L224 530 Z" fill="#26364F" fill-opacity="0.88"/><circle cx="212" cy="262" r="30" fill="#26364F" fill-opacity="0.88"/><path d="M196 238 Q216 226 234 244 Q240 258 236 272" fill="none" stroke="#26364F" stroke-width="2" stroke-linecap="round" stroke-linejoin="round"/><path d="M242 270 L282 258" fill="none" stroke="#26364F" stroke-width="1.2" stroke-linecap="round" stroke-linejoin="round" stroke-opacity="0.6" stroke-dasharray="3 5"/><path d="M186 340 L240 328" fill="none" stroke="#E9E4D8" stroke-width="2" stroke-linecap="round" stroke-linejoin="round" stroke-opacity="0.6"/><path d="M180 380 L244 368" fill="none" stroke="#E9E4D8" stroke-width="1.4" stroke-linecap="round" stroke-linejoin="round" stroke-opacity="0.4"/><rect x="150" y="420" width="96" height="62" rx="0" fill="#26364F" fill-opacity="0.2"/><rect x="150" y="420" width="96" height="62" rx="0" fill="none" stroke="#26364F" stroke-width="2.2"/><path d="M150 448 h96" fill="none" stroke="#26364F" stroke-width="1.4" stroke-linecap="round" stroke-linejoin="round"/><circle cx="198" cy="448" r="4" fill="none" stroke="#26364F" stroke-width="1.4"/><path d="M162 428 l14 10 M214 462 l16 -10" fill="none" stroke="#A9762B" stroke-width="1.8" stroke-linecap="round" stroke-linejoin="round"/><path d="M186 470 l10 8" fill="none" stroke="#A9762B" stroke-width="1.8" stroke-linecap="round" stroke-linejoin="round"/><path d="M60 530 h300" fill="none" stroke="#26364F" stroke-width="1.6" stroke-linecap="round" stroke-linejoin="round"/></svg>