<svg xmlns="http://www.w3.org/2000/svg" viewBox="0 0 640 300"><defs><radialGradient id="g396"><stop offset="0" stop-color="#26364F" stop-opacity="0.14"/><stop offset="0.65" stop-color="#26364F" stop-opacity="0.077"/><stop offset="1" stop-color="#26364F" stop-opacity="0"/></radialGradient><radialGradient id="g397"><stop offset="0" stop-color="#26364F" stop-opacity="0.11"/><stop offset="0.65" stop-color="#26364F" stop-opacity="0.061"/><stop offset="1" stop-color="#26364F" stop-opacity="0"/></radialGradient><radialGradient id="g398"><stop offset="0" stop-color="#26364F" stop-opacity="0.16"/><stop offset="0.65" stop-color="#26364F" stop-opacity="0.088"/><stop offset="1" stop-color="#26364F" stop-opacity="0"/></radialGradient><radialGradient id="g399"><stop offset="0" stop-color="#26364F" stop-opacity="0.06"/><stop offset="0.65" stop-color="#26364F" stop-opacity="0.033"/><stop offset="1" stop-color="#26364F" stop-opacity="0"/></radialGradient></defs><rect width="640" height="300" fill="#26364F" fill-opacity="0.060"/><ellipse cx="122.40752258822323" cy="32.758762723409745" rx="268.8" ry="188.2" fill="url(#g396)"/><ellipse cx="461.5919267911464" cy="62.75394435480849" rx="230.39999999999998" ry="207.4" fill="url(#g397)"/><ellipse cx="320.0" cy="306.0" rx="352.0" ry="158.4" fill="url(#g398)"/><ellipse cx="441.88060469552875" cy="176.08088221944854" rx="320.0" ry="256.0" fill="url(#g399)"/><path d="M410.5 65.0 Q410.5 65.0 435.2 88.7 Q460.0 112.5 405.3 124.7 Q350.6 137.0 291.2 141.5 Q231.8 146.0 167.1 140.2 Q102.4 134.4 80.6 110.9 Q58.7 87.4 91.4 68.6 Q124.1 49.7 129.9 29.8 Q135.8 9.9 182.0 -7.8 Q228.2 -25.6 291.7 -18.2 Q355.2 -10.8 411.4 2.4 Q467.6 15.6 439.0 40.3 Z" fill="#26364F" fill-opacity="0.035"/><rect x="0" y="0" width="640" height="300" rx="0" fill="#26364F" fill-opacity="0.05"/><rect x="60" y="60" width="520" height="180" rx="0" fill="#26364F" fill-opacity="0.16"/><rect x="60" y="60" width="520" height="180" rx="0" fill="none" stroke="#26364F" stroke-width="2.6"/><path d="M60 120 H580 M60 180 H580" fill="none" stroke="#26364F" stroke-width="1.2" stroke-linecap="round" stroke-linejoin="round" stroke-opacity="0.5"/><path d="M110 60 V120 M65 120 V180 M110 180 V240" fill="none" stroke="#26364F" stroke-width="1.2" stroke-linecap="round" stroke-linejoin="round" stroke-opacity="0.5"/><path d="M200 60 V120 M155 120 V180 M200 180 V240" fill="none" stroke="#26364F" stroke-width="1.2" stroke-linecap="round" stroke-linejoin="round" stroke-opacity="0.5"/><path d="M290 60 V120 M245 120 V180 M290 180 V240" fill="none" stroke="#26364F" stroke-width="1.2" stroke-linecap="round" stroke-linejoin="round" stroke-opacity="0.5"/><path d="M380 60 V120 M335 120 V180 M380 180 V240" fill="none" stroke="#26364F" stroke-width="1.2" stroke-linecap="round" stroke-linejoin="round" stroke-opacity="0.5"/><path d="M470 60 V120 M425 120 V180 M470 180 V240" fill="none" stroke="#26364F" stroke-width="1.2" stroke-linecap="round" stroke-linejoin="round" stroke-opacity="0.5"/><path d="M560 60 V120 M515 120 V180 M560 180 V240" fill="none" stroke="#26364F" stroke-width="1.2" stroke-linecap="round" stroke-linejoin="round" stroke-opacity="0.5"/><path d="M150 100 l20 18 m0 -18 l-20 18" fill="none" stroke="#26364F" stroke-width="1.6" stroke-linecap="round" stroke-linejoin="round"/><path d="M320 150 q10 12 0 24" fill="none" stroke="#26364F" stroke-width="1.6" stroke-linecap="round" stroke-linejoin="round"/><circle cx="452" cy="96" r="8" fill="none" stroke="#26364F" stroke-width="1.4"/><path d="M200 240 L260 120 M232 240 L288 128" fill="none" stroke="#26364F" stroke-width="2.4" stroke-linecap="round" stroke-linejoin="round"/><path d="M212 216 l34 6 M222 192 l34 6 M234 166 l32 6" fill="none" stroke="#26364F" stroke-width="2" stroke-linecap="round" stroke-linejoin="round"/><path d="M246 142 l18 4" fill="none" stroke="#26364F" stroke-width="2" stroke-linecap="round" stroke-linejoin="round" stroke-dasharray="4 4"/><path d="M580 200 q26 -6 34 -22" fill="none" stroke="#A9762B" stroke-width="2" stroke-linecap="round" stroke-linejoin="round" stroke-dasharray="5 5"/><path d="M0 240 h640" fill="none" stroke="#26364F" stroke-width="2" stroke-linecap="round" stroke-linejoin="round"/><circle cx="273.0" cy="197.9" r="0.74" fill="#26364F" fill-opacity="0.13"/><circle cx="554.3" cy="100.8" r="0.81" fill="#26364F" fill-opacity="0.13"/><circle cx="623.3" cy="197.6" r="0.69" fill="#26364F" fill-opacity="0.13"/><circle cx="178.4" cy="296.7" r="0.88" fill="#26364F" fill-opacity="0.13"/><circle cx="388.5" cy="71.9" r="0.47" fill="#26364F" fill-opacity="0.13"/><circle cx="149.6" cy="64.9" r="0.51" fill="#26364F" fill-opacity="0.13"/><circle cx="539.6" cy="217.5" r="1.07" fill="#26364F" fill-opacity="0.13"/><circle cx="153.0" cy="88.5" r="0.48" fill="#26364F" fill-opacity="0.13"/><circle cx="423.0" cy="102.7" r="0.56" fill="#26364F" fill-opacity="0.13"/><circle cx="633.9" cy="59.7" r="0.69" fill="#26364F" fill-opacity="0.13"/><circle cx="559.1" cy="181.5" r="0.47" fill="#26364F" fill-opacity="0.13"/><circle cx="410.1" cy="173.1" r="1.15" fill="#26364F" fill-opacity="0.13"/><circle cx="132.1" cy="151.0" r="0.95" fill="#26364F" fill-opacity="0.13"/><circle cx="300.1" cy="88.2" r="0.55" fill="#26364F" fill-opacity="0.13"/><circle cx="449.6" cy="49.3" r="0.79" fill="#26364F" fill-opacity="0.13"/><circle cx="421.3" cy="268.5" r="0.85" fill="#26364F" fill-opacity="0.13"/><circle cx="273.1" cy="221.8" r="0.41" fill="#26364F" fill-opacity="0.13"/><circle cx="329.0" cy="14.9" r="0.64" fill="#26364F" fill-opacity="0.13"/><circle cx="551.3" cy="295.3" r="0.78" fill="#26364F" fill-opacity="0.13"/><circle cx="625.7" cy="221.3" r="1.07" fill="#26364F" fill-opacity="0.13"/><circle cx="580.4" cy="235.0" r="0.71" fill="#26364F" fill-opacity="0.13"/><circle cx="464.3" cy="158.8" r="0.81" fill="#26364F" fill-opacity="0.13"/><circle cx="27.7" cy="3.6" r="0.67" fill="#26364F" fill-opacity="0.13"/><circle cx="259.8" cy="37.2" r="1.18" fill="#26364F" fill-opacity="0.13"/><circle cx="13.6" cy="8.5" r="0.95" fill="#26364F" fill-opacity="0.13"/><circle cx="443.2" cy="202.3" r="0.66" fill="#26364F" fill-opacity="0.13"/><circle cx="261.1" cy="28.7" r="0.80" fill="#26364F" fill-opacity="0.13"/><circle cx="496.3" cy="116.7" r="0.92" fill="#26364F" fill-opacity="0.13"/><circle cx="290.6" cy="93.5" r="0.47" fill="#26364F" fill-opacity="0.13"/><circle cx="447.6" cy="142.8" r="0.59" fill="#26364F" fill-opacity="0.13"/><circle cx="23.5" cy="101.8" r="0.79" fill="#26364F" fill-opacity="0.13"/><circle cx="378.9" cy="162.6" r="0.88" fill="#26364F" fill-opacity="0.13"/><circle cx="557.6" cy="17.9" r="1.00" fill="#26364F" fill-opacity="0.13"/><circle cx="212.8" cy="289.5" r="0.44" fill="#26364F" fill-opacity="0.13"/><circle cx="462.6" cy="89.0" r="1.01" fill="#26364F" fill-opacity="0.13"/><circle cx="394.9" cy="87.3" r="0.51" fill="#26364F" fill-opacity="0.13"/><circle cx="630.0" cy="155.2" r="0.66" fill="#26364F" fill-opacity="0.13"/><circle cx="468.9" cy="128.7" r="0.93" fill="#26364F" fill-opacity="0.13"/><circle cx="411.6" cy="4.1" r="0.41" fill="#26364F" fill-opacity="0.13"/><circle cx="433.0" cy="6.0" r="1.06" fill="#26364F" fill-opacity="0.13"/><circle cx="210.2" cy="30.2" r="0.92" fill="#26364F" fill-opacity="0.13"/><circle cx="392.2" cy="16.9" r="1.14" fill="#26364F" fill-opacity="0.13"/><circle cx="479.7" cy="42.8" r="0.77" fill="#26364F" fill-opacity="0.13"/><circle cx="47.9" cy="229.5" r="0.75" fill="#26364F" fill-opacity="0.13"/><circle cx="239.4" cy="167.2" r="0.84" fill="#26364F" fill-opacity="0.13"/><circle cx="535.3" cy="237.3" r="0.82" fill="#26364F" fill-opacity="0.13"/><circle cx="395.6" cy="125.2" r="0.75" fill="#26364F" fill-opacity="0.13"/><circle cx="13.2" cy="59.7" r="1.02" fill="#26364F" fill-opacity="0.13"/><circle cx="63.9" cy="286.2" r="0.51" fill="#26364F" fill-opacity="0.13"/><circle cx="519.2" cy="1.5" r="0.87" fill="#26364F" fill-opacity="0.13"/><circle cx="404.4" cy="293.1" r="0.42" fill="#26364F" fill-opacity="0.13"/><circle cx="62.6" cy="158.0" r="0.64" fill="#26364F" fill-opacity="0.13"/><circle cx="370.5" cy="2.1" r="0.89" fill="#26364F" fill-opacity="0.13"/><circle cx="325.8" cy="107.3" r="0.54" fill="#26364F" fill-opacity="0.13"/><circle cx="638.2" cy="76.6" r="0.74" fill="#26364F" fill-opacity="0.13"/><circle cx="373.8" cy="207.6" r="1.13" fill="#26364F" fill-opacity="0.13"/><circle cx="391.6" cy="4.3" r="1.19" fill="#26364F" fill-opacity="0.13"/><circle cx="162.1" cy="216.9" r="0.94" fill="#26364F" fill-opacity="0.13"/><circle cx="126.8" cy="8.8" r="0.90" fill="#26364F" fill-opacity="0.13"/><circle cx="224.9" cy="207.2" r="1.02" fill="#26364F" fill-opacity="0.13"/><circle cx="218.1" cy="228.3" r="0.64" fill="#26364F" fill-opacity="0.13"/><circle cx="321.3" cy="274.0" r="0.72" fill="#26364F" fill-opacity="0.13"/><circle cx="577.0" cy="249.1" r="0.62" fill="#26364F" fill-opacity="0.13"/><circle cx="245.6" cy="271.1" r="0.97" fill="#26364F" fill-opacity="0.13"/><circle cx="545.8" cy="69.4" r="0.62" fill="#26364F" fill-opacity="0.13"/><circle cx="29.8" cy="293.6" r="0.56" fill="#26364F" fill-opacity="0.13"/><circle cx="310.7" cy="56.0" r="0.59" fill="#26364F" fill-opacity="0.13"/><circle cx="367.6" cy="5.1" r="0.87" fill="#26364F" fill-opacity="0.13"/><circle cx="266.3" cy="26.0" r="0.42" fill="#26364F" fill-opacity="0.13"/><circle cx="593.2" cy="241.5" r="1.06" fill="#26364F" fill-opacity="0.13"/><circle cx="209.6" cy="227.0" r="0.77" fill="#26364F" fill-opacity="0.13"/><circle cx="143.6" cy="260.7" r="0.51" fill="#26364F" fill-opacity="0.13"/><circle cx="13.0" cy="92.1" r="0.96" fill="#26364F" fill-opacity="0.13"/><circle cx="12.8" cy="143.8" r="1.12" fill="#26364F" fill-opacity="0.13"/><circle cx="93.2" cy="22.9" r="0.71" fill="#26364F" fill-opacity="0.13"/><circle cx="149.4" cy="78.0" r="1.11" fill="#26364F" fill-opacity="0.13"/><circle cx="604.8" cy="141.1" r="0.63" fill="#26364F" fill-opacity="0.13"/><circle cx="240.9" cy="47.2" r="0.43" fill="#26364F" fill-opacity="0.13"/><circle cx="287.9" cy="251.8" r="0.60" fill="#26364F" fill-opacity="0.13"/><circle cx="317.5" cy="174.5" r="0.42" fill="#26364F" fill-opacity="0.13"/><circle cx="561.7" cy="129.0" r="0.48" fill="#26364F" fill-opacity="0.13"/><circle cx="577.6" cy="90.4" r="1.14" fill="#26364F" fill-opacity="0.13"/><circle cx="245.3" cy="265.9" r="0.81" fill="#26364F" fill-opacity="0.13"/><circle cx="167.8" cy="120.1" r="0.42" fill="#26364F" fill-opacity="0.13"/><circle cx="556.9" cy="120.3" r="0.43" fill="#26364F" fill-opacity="0.13"/><circle cx="33.8" cy="227.7" r="0.74" fill="#26364F" fill-opacity="0.13"/><circle cx="117.9" cy="246.6" r="0.91" fill="#26364F" fill-opacity="0.13"/><circle cx="463.6" cy="104.4" r="0.42" fill="#26364F" fill-opacity="0.13"/><circle cx="433.9" cy="175.5" r="0.50" fill="#26364F" fill-opacity="0.13"/><circle cx="156.9" cy="291.2" r="1.17" fill="#26364F" fill-opacity="0.13"/><circle cx="510.8" cy="103.5" r="0.78" fill="#26364F" fill-opacity="0.13"/><circle cx="38.6" cy="142.2" r="1.01" fill="#26364F" fill-opacity="0.13"/><circle cx="622.5" cy="151.4" r="1.06" fill="#26364F" fill-opacity="0.13"/><circle cx="577.2" cy="169.8" r="1.14" fill="#26364F" fill-opacity="0.13"/><circle cx="396.7" cy="96.9" r="0.82" fill="#26364F" fill-opacity="0.13"/><circle cx="253.5" cy="12.0" r="1.15" fill="#26364F" fill-opacity="0.13"/><circle cx="338.5" cy="125.8" r="0.79" fill="#26364F" fill-opacity="0.13"/><circle cx="36.6" cy="213.3" r="0.55" fill="#26364F" fill-opacity="0.13"/><circle cx="97.8" cy="153.3" r="0.55" fill="#26364F" fill-opacity="0.13"/><circle cx="23.7" cy="68.7" r="0.76" fill="#26364F" fill-opacity="0.13"/><circle cx="311.0" cy="188.8" r="0.46" fill="#26364F" fill-opacity="0.13"/><circle cx="613.8" cy="36.7" r="0.88" fill="#26364F" fill-opacity="0.13"/><circle cx="102.6" cy="218.6" r="0.71" fill="#26364F" fill-opacity="0.13"/><circle cx="180.7" cy="253.7" r="0.93" fill="#26364F" fill-opacity="0.13"/><circle cx="123.1" cy="224.7" r="1.14" fill="#26364F" fill-opacity="0.13"/><circle cx="588.5" cy="265.5" r="1.01" fill="#26364F" fill-opacity="0.13"/><circle cx="296.8" cy="143.8" r="0.67" fill="#26364F" fill-opacity="0.13"/><circle cx="165.7" cy="45.2" r="0.59" fill="#26364F" fill-opacity="0.13"/><circle cx="338.2" cy="23.4" r="0.42" fill="#26364F" fill-opacity="0.13"/><circle cx="174.7" cy="180.6" r="0.63" fill="#26364F" fill-opacity="0.13"/><circle cx="487.0" cy="263.6" r="0.62" fill="#26364F" fill-opacity="0.13"/><circle cx="13.7" cy="299.4" r="0.66" fill="#26364F" fill-opacity="0.13"/><circle cx="135.8" cy="33.6" r="0.76" fill="#26364F" fill-opacity="0.13"/><circle cx="328.6" cy="246.0" r="0.88" fill="#26364F" fill-opacity="0.13"/><circle cx="555.0" cy="63.9" r="0.78" fill="#26364F" fill-opacity="0.13"/><circle cx="363.6" cy="29.7" r="0.66" fill="#26364F" fill-opacity="0.13"/><circle cx="225.9" cy="215.8" r="1.01" fill="#26364F" fill-opacity="0.13"/><circle cx="594.0" cy="152.9" r="0.65" fill="#26364F" fill-opacity="0.13"/><circle cx="350.8" cy="186.2" r="0.51" fill="#26364F" fill-opacity="0.13"/><circle cx="279.5" cy="62.6" r="0.85" fill="#26364F" fill-opacity="0.13"/><circle cx="37.2" cy="239.6" r="1.11" fill="#26364F" fill-opacity="0.13"/><circle cx="330.2" cy="253.5" r="0.64" fill="#26364F" fill-opacity="0.13"/><circle cx="93.4" cy="227.5" r="0.88" fill="#26364F" fill-opacity="0.13"/><circle cx="309.8" cy="293.2" r="0.82" fill="#26364F" fill-opacity="0.13"/><circle cx="318.6" cy="187.4" r="1.13" fill="#26364F" fill-opacity="0.13"/><circle cx="242.1" cy="257.1" r="0.52" fill="#26364F" fill-opacity="0.13"/><circle cx="96.0" cy="245.9" r="0.77" fill="#26364F" fill-opacity="0.13"/><circle cx="590.2" cy="67.6" r="1.16" fill="#26364F" fill-opacity="0.13"/><circle cx="8.1" cy="140.0" r="1.15" fill="#26364F" fill-opacity="0.13"/><circle cx="52.2" cy="10.3" r="0.88" fill="#26364F" fill-opacity="0.13"/><circle cx="455.6" cy="174.1" r="1.10" fill="#26364F" fill-opacity="0.13"/><circle cx="189.3" cy="173.0" r="0.78" fill="#26364F" fill-opacity="0.13"/><circle cx="562.1" cy="233.1" r="0.62" fill="#26364F" fill-opacity="0.13"/><circle cx="0.6" cy="88.3" r="0.88" fill="#26364F" fill-opacity="0.13"/><circle cx="354.7" cy="65.3" r="0.71" fill="#26364F" fill-opacity="0.13"/><circle cx="302.7" cy="216.2" r="0.70" fill="#26364F" fill-opacity="0.13"/><circle cx="2.6" cy="21.7" r="0.75" fill="#26364F" fill-opacity="0.13"/><circle cx="240.7" cy="229.7" r="1.16" fill="#26364F" fill-opacity="0.13"/><circle cx="561.6" cy="246.8" r="0.76" fill="#26364F" fill-opacity="0.13"/><circle cx="469.0" cy="158.2" r="1.00" fill="#26364F" fill-opacity="0.13"/><circle cx="218.9" cy="166.2" r="1.13" fill="#26364F" fill-opacity="0.13"/><circle cx="242.3" cy="74.3" r="0.73" fill="#26364F" fill-opacity="0.13"/><circle cx="272.1" cy="259.7" r="0.42" fill="#26364F" fill-opacity="0.13"/><circle cx="237.8" cy="229.3" r="0.87" fill="#26364F" fill-opacity="0.13"/><circle cx="231.0" cy="176.1" r="1.09" fill="#26364F" fill-opacity="0.13"/><circle cx="211.2" cy="57.9" r="1.18" fill="#26364F" fill-opacity="0.13"/><circle cx="108.8" cy="204.7" r="1.00" fill="#26364F" fill-opacity="0.13"/><circle cx="192.9" cy="31.4" r="0.78" fill="#26364F" fill-opacity="0.13"/><circle cx="0.1" cy="102.4" r="0.63" fill="#26364F" fill-opacity="0.13"/><circle cx="346.3" cy="66.3" r="0.99" fill="#26364F" fill-opacity="0.13"/><circle cx="575.3" cy="229.5" r="0.42" fill="#26364F" fill-opacity="0.13"/><circle cx="337.5" cy="102.4" r="0.63" fill="#26364F" fill-opacity="0.13"/><circle cx="418.8" cy="252.9" r="1.20" fill="#26364F" fill-opacity="0.13"/><circle cx="414.1" cy="186.2" r="0.76" fill="#26364F" fill-opacity="0.13"/><circle cx="102.1" cy="265.9" r="0.97" fill="#26364F" fill-opacity="0.13"/><circle cx="164.5" cy="88.8" r="0.53" fill="#26364F" fill-opacity="0.13"/><circle cx="254.8" cy="252.4" r="0.68" fill="#26364F" fill-opacity="0.13"/><circle cx="153.5" cy="135.8" r="0.61" fill="#26364F" fill-opacity="0.13"/><circle cx="437.5" cy="135.4" r="0.47" fill="#26364F" fill-opacity="0.13"/><circle cx="453.1" cy="6.8" r="0.85" fill="#26364F" fill-opacity="0.13"/><circle cx="125.7" cy="134.0" r="0.59" fill="#26364F" fill-opacity="0.13"/><circle cx="78.5" cy="148.0" r="1.18" fill="#26364F" fill-opacity="0.13"/><circle cx="145.4" cy="141.1" r="1.05" fill="#26364F" fill-opacity="0.13"/><circle cx="484.9" cy="280.9" r="1.00" fill="#26364F" fill-opacity="0.13"/><circle cx="547.7" cy="216.3" r="0.93" fill="#26364F" fill-opacity="0.13"/><circle cx="67.2" cy="200.7" r="1.16" fill="#26364F" fill-opacity="0.13"/><circle cx="98.0" cy="262.5" r="0.96" fill="#26364F" fill-opacity="0.13"/><circle cx="286.3" cy="257.2" r="1.04" fill="#26364F" fill-opacity="0.13"/><circle cx="248.4" cy="123.9" r="0.53" fill="#26364F" fill-opacity="0.13"/><circle cx="240.9" cy="170.7" r="0.83" fill="#26364F" fill-opacity="0.13"/><circle cx="145.7" cy="283.1" r="0.53" fill="#26364F" fill-opacity="0.13"/><circle cx="304.2" cy="160.4" r="0.79" fill="#26364F" fill-opacity="0.13"/><circle cx="344.8" cy="117.9" r="0.87" fill="#26364F" fill-opacity="0.13"/><circle cx="439.7" cy="65.2" r="0.99" fill="#26364F" fill-opacity="0.13"/><circle cx="114.8" cy="20.6" r="1.09" fill="#26364F" fill-opacity="0.13"/><circle cx="23.3" cy="257.3" r="0.43" fill="#26364F" fill-opacity="0.13"/><circle cx="64.7" cy="168.6" r="0.42" fill="#26364F" fill-opacity="0.13"/><circle cx="223.1" cy="73.3" r="0.60" fill="#26364F" fill-opacity="0.13"/><circle cx="122.9" cy="273.4" r="0.84" fill="#26364F" fill-opacity="0.13"/><circle cx="270.0" cy="238.5" r="0.54" fill="#26364F" fill-opacity="0.13"/><circle cx="356.7" cy="199.1" r="0.92" fill="#26364F" fill-opacity="0.13"/><circle cx="493.2" cy="92.4" r="0.44" fill="#26364F" fill-opacity="0.13"/><circle cx="218.7" cy="204.2" r="0.71" fill="#26364F" fill-opacity="0.13"/><circle cx="371.1" cy="239.8" r="0.41" fill="#26364F" fill-opacity="0.13"/><circle cx="466.3" cy="123.9" r="0.88" fill="#26364F" fill-opacity="0.13"/><circle cx="600.9" cy="266.6" r="0.62" fill="#26364F" fill-opacity="0.13"/><circle cx="235.6" cy="126.4" r="0.49" fill="#26364F" fill-opacity="0.13"/><circle cx="496.8" cy="293.4" r="0.93" fill="#26364F" fill-opacity="0.13"/><circle cx="90.7" cy="122.6" r="1.17" fill="#26364F" fill-opacity="0.13"/><circle cx="159.6" cy="268.0" r="0.88" fill="#26364F" fill-opacity="0.13"/><circle cx="539.2" cy="50.9" r="0.57" fill="#26364F" fill-opacity="0.13"/><circle cx="442.6" cy="143.6" r="0.65" fill="#26364F" fill-opacity="0.13"/><circle cx="626.5" cy="265.9" r="0.95" fill="#26364F" fill-opacity="0.13"/><circle cx="393.2" cy="251.2" r="0.42" fill="#26364F" fill-opacity="0.13"/><circle cx="298.7" cy="23.3" r="0.93" fill="#26364F" fill-opacity="0.13"/><circle cx="491.1" cy="265.7" r="0.65" fill="#26364F" fill-opacity="0.13"/><circle cx="266.4" cy="217.8" r="1.01" fill="#26364F" fill-opacity="0.13"/><circle cx="558.7" cy="13.8" r="0.45" fill="#26364F" fill-opacity="0.13"/><circle cx="339.6" cy="187.2" r="0.50" fill="#26364F" fill-opacity="0.13"/><circle cx="272.5" cy="28.9" r="0.44" fill="#26364F" fill-opacity="0.13"/><circle cx="498.8" cy="44.7" r="1.16" fill="#26364F" fill-opacity="0.13"/><circle cx="564.0" cy="41.1" r="0.54" fill="#26364F" fill-opacity="0.13"/><circle cx="637.7" cy="44.8" r="1.16" fill="#26364F" fill-opacity="0.13"/><circle cx="418.4" cy="219.7" r="0.61" fill="#26364F" fill-opacity="0.13"/><circle cx="553.0" cy="85.6" r="1.12" fill="#26364F" fill-opacity="0.13"/><circle cx="393.9" cy="205.4" r="0.52" fill="#26364F" fill-opacity="0.13"/><circle cx="264.1" cy="281.2" r="1.18" fill="#26364F" fill-opacity="0.13"/><circle cx="116.7" cy="245.9" r="1.03" fill="#26364F" fill-opacity="0.13"/><circle cx="443.9" cy="260.5" r="1.11" fill="#26364F" fill-opacity="0.13"/><circle cx="390.7" cy="120.2" r="0.96" fill="#26364F" fill-opacity="0.13"/><circle cx="453.1" cy="115.0" r="0.95" fill="#26364F" fill-opacity="0.13"/><circle cx="467.9" cy="219.8" r="1.11" fill="#26364F" fill-opacity="0.13"/><circle cx="21.8" cy="93.8" r="0.87" fill="#26364F" fill-opacity="0.13"/><circle cx="11.2" cy="158.3" r="0.98" fill="#26364F" fill-opacity="0.13"/><circle cx="593.5" cy="12.9" r="0.59" fill="#26364F" fill-opacity="0.13"/><circle cx="345.6" cy="155.4" r="0.43" fill="#26364F" fill-opacity="0.13"/><circle cx="6.1" cy="43.2" r="1.15" fill="#26364F" fill-opacity="0.13"/><circle cx="2.4" cy="75.5" r="0.77" fill="#26364F" fill-opacity="0.13"/><circle cx="42.5" cy="226.6" r="1.15" fill="#26364F" fill-opacity="0.13"/><circle cx="393.9" cy="165.4" r="0.49" fill="#26364F" fill-opacity="0.13"/><circle cx="617.7" cy="190.4" r="0.78" fill="#26364F" fill-opacity="0.13"/><circle cx="625.4" cy="86.0" r="1.10" fill="#26364F" fill-opacity="0.13"/><circle cx="204.0" cy="140.7" r="0.67" fill="#26364F" fill-opacity="0.13"/><circle cx="330.6" cy="109.3" r="0.71" fill="#26364F" fill-opacity="0.13"/><circle cx="187.7" cy="110.8" r="0.50" fill="#26364F" fill-opacity="0.13"/><circle cx="74.3" cy="51.6" r="0.52" fill="#26364F" fill-opacity="0.13"/><circle cx="561.8" cy="22.5" r="0.62" fill="#26364F" fill-opacity="0.13"/><circle cx="377.3" cy="34.0" r="0.91" fill="#26364F" fill-opacity="0.13"/><circle cx="25.0" cy="46.6" r="0.44" fill="#26364F" fill-opacity="0.13"/><circle cx="308.0" cy="178.4" r="0.55" fill="#26364F" fill-opacity="0.13"/><circle cx="277.7" cy="91.1" r="0.93" fill="#26364F" fill-opacity="0.13"/><circle cx="207.1" cy="207.7" r="0.85" fill="#26364F" fill-opacity="0.13"/><circle cx="486.6" cy="88.2" r="0.73" fill="#26364F" fill-opacity="0.13"/><circle cx="18.0" cy="187.0" r="0.68" fill="#26364F" fill-opacity="0.13"/><circle cx="222.8" cy="232.1" r="1.03" fill="#26364F" fill-opacity="0.13"/><circle cx="326.9" cy="163.7" r="0.89" fill="#26364F" fill-opacity="0.13"/><circle cx="129.7" cy="276.5" r="0.46" fill="#26364F" fill-opacity="0.13"/><circle cx="7.4" cy="212.5" r="1.16" fill="#26364F" fill-opacity="0.13"/><circle cx="238.4" cy="242.5" r="0.94" fill="#26364F" fill-opacity="0.13"/><circle cx="578.0" cy="230.2" r="1.10" fill="#26364F" fill-opacity="0.13"/><circle cx="117.0" cy="96.1" r="0.88" fill="#26364F" fill-opacity="0.13"/><circle cx="78.2" cy="55.6" r="0.70" fill="#26364F" fill-opacity="0.13"/><circle cx="323.9" cy="75.9" r="1.12" fill="#26364F" fill-opacity="0.13"/><circle cx="486.8" cy="112.9" r="0.97" fill="#26364F" fill-opacity="0.13"/><circle cx="516.1" cy="36.2" r="0.75" fill="#26364F" fill-opacity="0.13"/><circle cx="535.8" cy="241.6" r="1.02" fill="#26364F" fill-opacity="0.13"/><circle cx="91.0" cy="266.0" r="0.72" fill="#26364F" fill-opacity="0.13"/><circle cx="570.6" cy="280.5" r="1.14" fill="#26364F" fill-opacity="0.13"/><circle cx="403.9" cy="65.0" r="0.82" fill="#26364F" fill-opacity="0.13"/><circle cx="508.6" cy="293.7" r="0.55" fill="#26364F" fill-opacity="0.13"/><circle cx="22.3" cy="284.2" r="0.94" fill="#26364F" fill-opacity="0.13"/><circle cx="64.6" cy="116.4" r="0.93" fill="#26364F" fill-opacity="0.13"/><circle cx="76.5" cy="179.0" r="0.77" fill="#26364F" fill-opacity="0.13"/><circle cx="226.9" cy="186.1" r="0.82" fill="#26364F" fill-opacity="0.13"/><circle cx="172.1" cy="209.9" r="1.18" fill="#26364F" fill-opacity="0.13"/><circle cx="10.0" cy="80.0" r="0.71" fill="#26364F" fill-opacity="0.13"/><circle cx="321.8" cy="123.7" r="1.02" fill="#26364F" fill-opacity="0.13"/><circle cx="47.6" cy="208.7" r="0.94" fill="#26364F" fill-opacity="0.13"/><circle cx="375.6" cy="225.8" r="0.55" fill="#26364F" fill-opacity="0.13"/><circle cx="599.3" cy="157.3" r="0.84" fill="#26364F" fill-opacity="0.13"/><circle cx="226.9" cy="104.8" r="0.84" fill="#26364F" fill-opacity="0.13"/><circle cx="495.1" cy="11.0" r="0.44" fill="#26364F" fill-opacity="0.13"/><circle cx="460.3" cy="136.5" r="0.50" fill="#26364F" fill-opacity="0.13"/><circle cx="124.7" cy="91.6" r="0.57" fill="#26364F" fill-opacity="0.13"/><circle cx="121.6" cy="32.6" r="0.48" fill="#26364F" fill-opacity="0.13"/><circle cx="484.3" cy="170.1" r="0.84" fill="#26364F" fill-opacity="0.13"/><circle cx="28.9" cy="285.9" r="0.82" fill="#26364F" fill-opacity="0.13"/><circle cx="300.8" cy="227.5" r="0.55" fill="#26364F" fill-opacity="0.13"/><circle cx="456.4" cy="229.0" r="0.61" fill="#26364F" fill-opacity="0.13"/><circle cx="14.7" cy="109.2" r="0.51" fill="#26364F" fill-opacity="0.13"/><circle cx="255.9" cy="31.1" r="0.55" fill="#26364F" fill-opacity="0.13"/><circle cx="573.2" cy="248.3" r="0.63" fill="#26364F" fill-opacity="0.13"/><circle cx="388.0" cy="190.1" r="0.97" fill="#26364F" fill-opacity="0.13"/><circle cx="550.3" cy="170.2" r="0.65" fill="#26364F" fill-opacity="0.13"/><circle cx="603.7" cy="159.8" r="0.92" fill="#26364F" fill-opacity="0.13"/><circle cx="335.4" cy="78.6" r="0.59" fill="#26364F" fill-opacity="0.13"/><circle cx="359.1" cy="7.4" r="0.80" fill="#26364F" fill-opacity="0.13"/><circle cx="369.8" cy="59.9" r="0.81" fill="#26364F" fill-opacity="0.13"/><circle cx="388.4" cy="208.9" r="1.07" fill="#26364F" fill-opacity="0.13"/><circle cx="142.2" cy="72.3" r="0.68" fill="#26364F" fill-opacity="0.13"/><circle cx="232.4" cy="116.6" r="1.19" fill="#26364F" fill-opacity="0.13"/><circle cx="607.6" cy="255.2" r="1.19" fill="#26364F" fill-opacity="0.13"/><circle cx="78.9" cy="58.3" r="1.04" fill="#26364F" fill-opacity="0.13"/><circle cx="238.7" cy="18.4" r="0.49" fill="#26364F" fill-opacity="0.13"/><circle cx="236.8" cy="224.3" r="0.59" fill="#26364F" fill-opacity="0.13"/><circle cx="157.8" cy="92.9" r="0.82" fill="#26364F" fill-opacity="0.13"/><circle cx="278.5" cy="33.6" r="0.46" fill="#26364F" fill-opacity="0.13"/><circle cx="107.3" cy="60.4" r="0.64" fill="#26364F" fill-opacity="0.13"/><circle cx="302.4" cy="92.4" r="0.97" fill="#26364F" fill-opacity="0.13"/><circle cx="512.9" cy="111.4" r="0.90" fill="#26364F" fill-opacity="0.13"/><circle cx="158.1" cy="276.6" r="0.46" fill="#26364F" fill-opacity="0.13"/><circle cx="507.8" cy="4.1" r="0.41" fill="#26364F" fill-opacity="0.13"/><circle cx="562.8" cy="116.8" r="0.70" fill="#26364F" fill-opacity="0.13"/><circle cx="601.9" cy="175.6" r="0.62" fill="#26364F" fill-opacity="0.13"/><circle cx="159.3" cy="185.8" r="0.83" fill="#26364F" fill-opacity="0.13"/><circle cx="428.2" cy="263.2" r="1.17" fill="#26364F" fill-opacity="0.13"/><circle cx="141.8" cy="95.3" r="0.54" fill="#26364F" fill-opacity="0.13"/><circle cx="306.0" cy="76.0" r="0.95" fill="#26364F" fill-opacity="0.13"/><circle cx="120.6" cy="193.0" r="0.57" fill="#26364F" fill-opacity="0.13"/><circle cx="481.3" cy="143.2" r="0.74" fill="#26364F" fill-opacity="0.13"/><circle cx="365.8" cy="153.5" r="0.51" fill="#26364F" fill-opacity="0.13"/><circle cx="171.8" cy="149.2" r="0.68" fill="#26364F" fill-opacity="0.13"/><circle cx="611.5" cy="190.7" r="0.70" fill="#26364F" fill-opacity="0.13"/><circle cx="513.9" cy="170.4" r="0.65" fill="#26364F" fill-opacity="0.13"/><circle cx="214.9" cy="168.0" r="1.06" fill="#26364F" fill-opacity="0.13"/><circle cx="307.0" cy="85.3" r="1.01" fill="#26364F" fill-opacity="0.13"/><circle cx="423.9" cy="93.6" r="0.47" fill="#26364F" fill-opacity="0.13"/><circle cx="579.8" cy="42.2" r="0.93" fill="#26364F" fill-opacity="0.13"/><circle cx="249.4" cy="119.8" r="0.90" fill="#26364F" fill-opacity="0.13"/><circle cx="562.4" cy="247.1" r="2.58" fill="#26364F" fill-opacity="0.22"/><circle cx="191.2" cy="212.0" r="2.62" fill="#26364F" fill-opacity="0.22"/><circle cx="128.8" cy="72.3" r="1.87" fill="#26364F" fill-opacity="0.22"/><circle cx="188.9" cy="149.3" r="2.09" fill="#26364F" fill-opacity="0.22"/><circle cx="27.7" cy="39.8" r="1.17" fill="#26364F" fill-opacity="0.22"/><circle cx="229.2" cy="284.3" r="2.37" fill="#26364F" fill-opacity="0.22"/><circle cx="163.9" cy="123.5" r="2.06" fill="#26364F" fill-opacity="0.22"/><circle cx="193.2" cy="297.5" r="2.37" fill="#26364F" fill-opacity="0.22"/><circle cx="244.7" cy="221.8" r="1.48" fill="#26364F" fill-opacity="0.22"/><rect x="0" y="0" width="640" height="300" fill="none" stroke="#26364F" stroke-width="48.0" stroke-opacity="0.055"/><rect x="0" y="0" width="640" height="300" fill="none" stroke="#26364F" stroke-width="21.000000000000004" stroke-opacity="0.07"/><rect x="0" y="0" width="640" height="300" fill="none" stroke="#26364F" stroke-width="7.5" stroke-opacity="0.10"/></svg>