<svg xmlns="http://www.w3.org/2000/svg" viewBox="0 0 640 300"><defs><radialGradient id="g46"><stop offset="0" stop-color="#A9762B" stop-opacity="0.7"/><stop offset="1" stop-color="#A9762B" stop-opacity="0"/></radialGradient><radialGradient id="g47"><stop offset="0" stop-color="#A9762B" stop-opacity="0.7"/><stop offset="1" stop-color="#A9762B" stop-opacity="0"/></radialGradient></defs><rect x="0" y="0" width="640" height="300" rx="0" fill="#26364F" fill-opacity="0.07"/><path d="M320 290 Q250 220 170 170 M320 290 Q390 220 470 170" fill="none" stroke="#26364F" stroke-width="3" stroke-linecap="round" stroke-linejoin="round"/><circle cx="150" cy="130" r="40" fill="url(#g46)"/><circle cx="490" cy="130" r="40" fill="url(#g47)"/><rect x="120" y="110" width="60" height="56" rx="0" fill="none" stroke="#26364F" stroke-width="2"/><path d="M114 112 l36 -26 36 26" fill="none" stroke="#26364F" stroke-width="2" stroke-linecap="round" stroke-linejoin="round"/><rect x="136" y="128" width="12" height="14" rx="0" fill="#A9762B" fill-opacity="0.9"/><rect x="460" y="110" width="60" height="56" rx="0" fill="none" stroke="#26364F" stroke-width="2"/><path d="M454 112 l36 -26 36 26" fill="none" stroke="#26364F" stroke-width="2" stroke-linecap="round" stroke-linejoin="round"/><rect x="476" y="128" width="12" height="14" rx="0" fill="#A9762B" fill-opacity="0.9"/><path d="M309.46 290 Q307.879 257.76 314.73 246.6 Q320 241.64 325.27 246.6 Q332.121 257.76 330.54 290 Z" fill="#26364F" fill-opacity="0.95"/><circle cx="320" cy="233.89" r="5.89" fill="#26364F" fill-opacity="0.95"/><path d="M0 292 h640" fill="none" stroke="#26364F" stroke-width="1.6" stroke-linecap="round" stroke-linejoin="round"/></svg>